<svg width="55" height="54" viewBox="0 0 55 54" fill="none" xmlns="http://www.w3.org/2000/svg">
<g clip-path="url(#clip0_72_131)">
<path d="M0.928101 16.0314H4.19332V19.1951H0.928101V35.0157H4.19332V38.1794H0.928101V54H54.8634V38.1794H51.5972V35.0157H54.8624V19.1951H51.5972V16.0314H54.8624V0H0.928101V16.0314ZM51.7034 50.8363H4.08803V41.3441H51.7034V50.8363ZM48.4372 38.1794H7.35424V35.0157H48.4372V38.1794ZM51.7025 31.851H4.08803V22.3589H51.7034L51.7025 31.851ZM48.4372 19.1951H7.35424V16.0314H48.4372V19.1951ZM4.08803 3.16372H51.7034V12.8667H4.08803V3.16372Z" fill="url(#paint0_linear_72_131)"/>
<path d="M7.35425 6.53931H10.5142V9.70302H7.35425V6.53931Z" fill="url(#paint1_linear_72_131)"/>
<path d="M13.6741 6.53931H16.834V9.70302H13.6741V6.53931Z" fill="url(#paint2_linear_72_131)"/>
<path d="M19.9949 6.53931H23.1548V9.70302H19.9949V6.53931Z" fill="url(#paint3_linear_72_131)"/>
<path d="M32.6356 6.53931H48.4372V9.70302H32.6356V6.53931Z" fill="url(#paint4_linear_72_131)"/>
<path d="M7.35425 25.5236H10.5142V28.6873H7.35425V25.5236Z" fill="url(#paint5_linear_72_131)"/>
<path d="M13.6741 25.5236H16.834V28.6873H13.6741V25.5236Z" fill="url(#paint6_linear_72_131)"/>
<path d="M19.9949 25.5236H23.1548V28.6873H19.9949V25.5236Z" fill="url(#paint7_linear_72_131)"/>
<path d="M32.6356 25.5236H48.4372V28.6873H32.6356V25.5236Z" fill="url(#paint8_linear_72_131)"/>
<path d="M7.35425 44.5079H10.5142V47.6716H7.35425V44.5079Z" fill="url(#paint9_linear_72_131)"/>
<path d="M13.6741 44.5079H16.834V47.6716H13.6741V44.5079Z" fill="url(#paint10_linear_72_131)"/>
<path d="M19.9949 44.5079H23.1548V47.6716H19.9949V44.5079Z" fill="url(#paint11_linear_72_131)"/>
<path d="M32.6356 44.5079H48.4372V47.6716H32.6356V44.5079Z" fill="url(#paint12_linear_72_131)"/>
</g>
<defs>
<linearGradient id="paint0_linear_72_131" x1="0.928101" y1="27" x2="63.5719" y2="29.6286" gradientUnits="userSpaceOnUse">
<stop stop-color="#6812C8"/>
<stop offset="1" stop-color="#3A82FF"/>
</linearGradient>
<linearGradient id="paint1_linear_72_131" x1="7.35425" y1="8.12116" x2="11.0244" y2="8.27517" gradientUnits="userSpaceOnUse">
<stop stop-color="#6812C8"/>
<stop offset="1" stop-color="#3A82FF"/>
</linearGradient>
<linearGradient id="paint2_linear_72_131" x1="13.6741" y1="8.12116" x2="17.3442" y2="8.27517" gradientUnits="userSpaceOnUse">
<stop stop-color="#6812C8"/>
<stop offset="1" stop-color="#3A82FF"/>
</linearGradient>
<linearGradient id="paint3_linear_72_131" x1="19.9949" y1="8.12116" x2="23.665" y2="8.27517" gradientUnits="userSpaceOnUse">
<stop stop-color="#6812C8"/>
<stop offset="1" stop-color="#3A82FF"/>
</linearGradient>
<linearGradient id="paint4_linear_72_131" x1="32.6356" y1="8.12116" x2="50.2456" y2="11.8163" gradientUnits="userSpaceOnUse">
<stop stop-color="#6812C8"/>
<stop offset="1" stop-color="#3A82FF"/>
</linearGradient>
<linearGradient id="paint5_linear_72_131" x1="7.35425" y1="27.1054" x2="11.0244" y2="27.2594" gradientUnits="userSpaceOnUse">
<stop stop-color="#6812C8"/>
<stop offset="1" stop-color="#3A82FF"/>
</linearGradient>
<linearGradient id="paint6_linear_72_131" x1="13.6741" y1="27.1054" x2="17.3442" y2="27.2594" gradientUnits="userSpaceOnUse">
<stop stop-color="#6812C8"/>
<stop offset="1" stop-color="#3A82FF"/>
</linearGradient>
<linearGradient id="paint7_linear_72_131" x1="19.9949" y1="27.1054" x2="23.665" y2="27.2594" gradientUnits="userSpaceOnUse">
<stop stop-color="#6812C8"/>
<stop offset="1" stop-color="#3A82FF"/>
</linearGradient>
<linearGradient id="paint8_linear_72_131" x1="32.6356" y1="27.1054" x2="50.2456" y2="30.8006" gradientUnits="userSpaceOnUse">
<stop stop-color="#6812C8"/>
<stop offset="1" stop-color="#3A82FF"/>
</linearGradient>
<linearGradient id="paint9_linear_72_131" x1="7.35425" y1="46.0897" x2="11.0244" y2="46.2437" gradientUnits="userSpaceOnUse">
<stop stop-color="#6812C8"/>
<stop offset="1" stop-color="#3A82FF"/>
</linearGradient>
<linearGradient id="paint10_linear_72_131" x1="13.6741" y1="46.0897" x2="17.3442" y2="46.2437" gradientUnits="userSpaceOnUse">
<stop stop-color="#6812C8"/>
<stop offset="1" stop-color="#3A82FF"/>
</linearGradient>
<linearGradient id="paint11_linear_72_131" x1="19.9949" y1="46.0897" x2="23.665" y2="46.2437" gradientUnits="userSpaceOnUse">
<stop stop-color="#6812C8"/>
<stop offset="1" stop-color="#3A82FF"/>
</linearGradient>
<linearGradient id="paint12_linear_72_131" x1="32.6356" y1="46.0897" x2="50.2456" y2="49.7849" gradientUnits="userSpaceOnUse">
<stop stop-color="#6812C8"/>
<stop offset="1" stop-color="#3A82FF"/>
</linearGradient>
<clipPath id="clip0_72_131">
<rect width="53.9353" height="54" fill="white" transform="translate(0.928101)"/>
</clipPath>
</defs>
</svg>
