<svg width="56" height="56" viewBox="0 0 56 56" fill="none" xmlns="http://www.w3.org/2000/svg">
<g clip-path="url(#clip0_72_171)">
<path d="M54.2497 20.943H1.75025C1.28676 20.9435 0.842025 20.76 0.513818 20.4327C0.185611 20.1054 0.000795163 19.6612 0 19.1977L0 6.40092C0.00318013 4.70149 0.680777 3.07282 1.88395 1.87264C3.08713 0.672467 4.71749 -0.00106187 6.41692 1.25666e-06H49.5831C51.2825 -0.00106187 52.9129 0.672467 54.116 1.87264C55.3192 3.07282 55.9968 4.70149 56 6.40092V19.2027C55.9979 19.6654 55.8125 20.1083 55.4844 20.4345C55.1564 20.7607 54.7124 20.9435 54.2497 20.943ZM3.5005 17.4525H52.4995V6.40092C52.4979 5.62847 52.1899 4.88821 51.6432 4.34258C51.0964 3.79694 50.3555 3.4905 49.5831 3.4905H6.41692C5.64447 3.4905 4.90358 3.79694 4.35682 4.34258C3.81006 4.88821 3.50209 5.62847 3.5005 6.40092V17.4525Z" fill="url(#paint0_linear_72_171)"/>
<path d="M54.2497 38.4715H1.75025C1.28676 38.472 0.842025 38.2885 0.513818 37.9612C0.185611 37.6339 0.000795163 37.1897 0 36.7262L0 19.2738C0.000795163 18.8103 0.185611 18.3661 0.513818 18.0388C0.842025 17.7115 1.28676 17.528 1.75025 17.5285H54.2497C54.7132 17.528 55.158 17.7115 55.4862 18.0388C55.8144 18.3661 55.9992 18.8103 56 19.2738V36.7262C55.9992 37.1897 55.8144 37.6339 55.4862 37.9612C55.158 38.2885 54.7132 38.472 54.2497 38.4715ZM3.5005 34.981H52.4995V21.019H3.5005V34.981Z" fill="url(#paint1_linear_72_171)"/>
<path d="M49.5831 56H6.41692C4.71784 56.0011 3.08778 55.3278 1.88466 54.1281C0.68154 52.9283 0.00370945 51.3002 0 49.6011L0 36.7993C0.00158885 36.3363 0.186755 35.8928 0.514875 35.5662C0.842996 35.2396 1.28728 35.0565 1.75025 35.057H54.2497C54.7132 35.0565 55.158 35.24 55.4862 35.5673C55.8144 35.8946 55.9992 36.3388 56 36.8023V49.6041C55.9955 51.3026 55.3173 52.93 54.1143 54.1291C52.9112 55.3282 51.2816 56.0011 49.5831 56ZM3.5005 38.5475V49.6011C3.50262 50.3732 3.81082 51.1129 4.35752 51.6581C4.90423 52.2033 5.64482 52.5095 6.41692 52.5095H49.5831C50.3552 52.5095 51.0958 52.2033 51.6425 51.6581C52.1892 51.1129 52.4974 50.3732 52.4995 49.6011V38.5475H3.5005Z" fill="url(#paint2_linear_72_171)"/>
<path d="M46.9364 49.2574C48.2249 49.2574 49.2694 48.2128 49.2694 46.9244C49.2694 45.6359 48.2249 44.5914 46.9364 44.5914C45.6479 44.5914 44.6034 45.6359 44.6034 46.9244C44.6034 48.2128 45.6479 49.2574 46.9364 49.2574Z" fill="url(#paint3_linear_72_171)"/>
<path d="M37.449 49.2574C38.7374 49.2574 39.782 48.2128 39.782 46.9244C39.782 45.6359 38.7374 44.5914 37.449 44.5914C36.1605 44.5914 35.116 45.6359 35.116 46.9244C35.116 48.2128 36.1605 49.2574 37.449 49.2574Z" fill="url(#paint4_linear_72_171)"/>
<path d="M27.9817 49.2574C29.2702 49.2574 30.3147 48.2128 30.3147 46.9244C30.3147 45.6359 29.2702 44.5914 27.9817 44.5914C26.6932 44.5914 25.6487 45.6359 25.6487 46.9244C25.6487 48.2128 26.6932 49.2574 27.9817 49.2574Z" fill="url(#paint5_linear_72_171)"/>
<path d="M46.9364 30.3027C48.2249 30.3027 49.2694 29.2581 49.2694 27.9697C49.2694 26.6812 48.2249 25.6367 46.9364 25.6367C45.6479 25.6367 44.6034 26.6812 44.6034 27.9697C44.6034 29.2581 45.6479 30.3027 46.9364 30.3027Z" fill="url(#paint6_linear_72_171)"/>
<path d="M37.449 30.3027C38.7374 30.3027 39.782 29.2581 39.782 27.9697C39.782 26.6812 38.7374 25.6367 37.449 25.6367C36.1605 25.6367 35.116 26.6812 35.116 27.9697C35.116 29.2581 36.1605 30.3027 37.449 30.3027Z" fill="url(#paint7_linear_72_171)"/>
<path d="M27.9817 30.3027C29.2702 30.3027 30.3147 29.2581 30.3147 27.9697C30.3147 26.6812 29.2702 25.6367 27.9817 25.6367C26.6932 25.6367 25.6487 26.6812 25.6487 27.9697C25.6487 29.2581 26.6932 30.3027 27.9817 30.3027Z" fill="url(#paint8_linear_72_171)"/>
<path d="M46.9364 14.1333C48.2249 14.1333 49.2694 13.0888 49.2694 11.8003C49.2694 10.5119 48.2249 9.46735 46.9364 9.46735C45.6479 9.46735 44.6034 10.5119 44.6034 11.8003C44.6034 13.0888 45.6479 14.1333 46.9364 14.1333Z" fill="url(#paint9_linear_72_171)"/>
<path d="M37.449 14.1333C38.7374 14.1333 39.782 13.0888 39.782 11.8003C39.782 10.5119 38.7374 9.46735 37.449 9.46735C36.1605 9.46735 35.116 10.5119 35.116 11.8003C35.116 13.0888 36.1605 14.1333 37.449 14.1333Z" fill="url(#paint10_linear_72_171)"/>
<path d="M27.9817 14.1333C29.2702 14.1333 30.3147 13.0888 30.3147 11.8003C30.3147 10.5119 29.2702 9.46735 27.9817 9.46735C26.6932 9.46735 25.6487 10.5119 25.6487 11.8003C25.6487 13.0888 26.6932 14.1333 27.9817 14.1333Z" fill="url(#paint11_linear_72_171)"/>
</g>
<defs>
<linearGradient id="paint0_linear_72_171" x1="-1.98237e-08" y1="10.4715" x2="64.3445" y2="17.6997" gradientUnits="userSpaceOnUse">
<stop stop-color="#6812C8"/>
<stop offset="1" stop-color="#3A82FF"/>
</linearGradient>
<linearGradient id="paint1_linear_72_171" x1="-1.98237e-08" y1="28" x2="64.3445" y2="35.2282" gradientUnits="userSpaceOnUse">
<stop stop-color="#6812C8"/>
<stop offset="1" stop-color="#3A82FF"/>
</linearGradient>
<linearGradient id="paint2_linear_72_171" x1="-1.98237e-08" y1="45.5285" x2="64.3445" y2="52.7567" gradientUnits="userSpaceOnUse">
<stop stop-color="#6812C8"/>
<stop offset="1" stop-color="#3A82FF"/>
</linearGradient>
<linearGradient id="paint3_linear_72_171" x1="44.6034" y1="46.9244" x2="50.0228" y2="47.152" gradientUnits="userSpaceOnUse">
<stop stop-color="#6812C8"/>
<stop offset="1" stop-color="#3A82FF"/>
</linearGradient>
<linearGradient id="paint4_linear_72_171" x1="35.116" y1="46.9244" x2="40.5353" y2="47.152" gradientUnits="userSpaceOnUse">
<stop stop-color="#6812C8"/>
<stop offset="1" stop-color="#3A82FF"/>
</linearGradient>
<linearGradient id="paint5_linear_72_171" x1="25.6487" y1="46.9244" x2="31.068" y2="47.152" gradientUnits="userSpaceOnUse">
<stop stop-color="#6812C8"/>
<stop offset="1" stop-color="#3A82FF"/>
</linearGradient>
<linearGradient id="paint6_linear_72_171" x1="44.6034" y1="27.9697" x2="50.0228" y2="28.1973" gradientUnits="userSpaceOnUse">
<stop stop-color="#6812C8"/>
<stop offset="1" stop-color="#3A82FF"/>
</linearGradient>
<linearGradient id="paint7_linear_72_171" x1="35.116" y1="27.9697" x2="40.5353" y2="28.1973" gradientUnits="userSpaceOnUse">
<stop stop-color="#6812C8"/>
<stop offset="1" stop-color="#3A82FF"/>
</linearGradient>
<linearGradient id="paint8_linear_72_171" x1="25.6487" y1="27.9697" x2="31.068" y2="28.1973" gradientUnits="userSpaceOnUse">
<stop stop-color="#6812C8"/>
<stop offset="1" stop-color="#3A82FF"/>
</linearGradient>
<linearGradient id="paint9_linear_72_171" x1="44.6034" y1="11.8003" x2="50.0228" y2="12.028" gradientUnits="userSpaceOnUse">
<stop stop-color="#6812C8"/>
<stop offset="1" stop-color="#3A82FF"/>
</linearGradient>
<linearGradient id="paint10_linear_72_171" x1="35.116" y1="11.8003" x2="40.5353" y2="12.028" gradientUnits="userSpaceOnUse">
<stop stop-color="#6812C8"/>
<stop offset="1" stop-color="#3A82FF"/>
</linearGradient>
<linearGradient id="paint11_linear_72_171" x1="25.6487" y1="11.8003" x2="31.068" y2="12.028" gradientUnits="userSpaceOnUse">
<stop stop-color="#6812C8"/>
<stop offset="1" stop-color="#3A82FF"/>
</linearGradient>
<clipPath id="clip0_72_171">
<rect width="56" height="56" fill="white"/>
</clipPath>
</defs>
</svg>
