<svg width="54" height="54" viewBox="0 0 54 54" fill="none" xmlns="http://www.w3.org/2000/svg">
<g clip-path="url(#clip0_72_184)">
<path d="M26.9995 14.1676C24.2366 14.1676 0 13.9697 0 7.0833C0 0.196925 24.2366 0 26.9995 0C29.7624 0 54 0.198914 54 7.0833C54 13.9677 29.7634 14.1676 26.9995 14.1676ZM3.57348 7.0833C5.22048 8.42498 13.1213 10.625 27.0005 10.625C40.8797 10.625 48.7795 8.42498 50.4245 7.0833C48.7775 5.74163 40.8767 3.54165 26.9975 3.54165C13.1183 3.54165 5.22048 5.74263 3.57348 7.0833Z" fill="url(#paint0_linear_72_184)"/>
<path d="M26.9995 27.2471C24.2366 27.2471 -1.97957e-05 27.0492 -1.97957e-05 20.1638C-0.010695 19.7047 0.161439 19.2602 0.478517 18.928C0.795596 18.5958 1.23164 18.4032 1.69074 18.3925C2.11353 18.4024 2.51786 18.5677 2.82647 18.8568C3.13507 19.146 3.3263 19.5387 3.36361 19.9599C4.40293 21.2658 12.3903 23.7045 26.9995 23.7045C41.6087 23.7045 49.596 21.2648 50.6354 19.9599C50.6649 19.5162 50.8686 19.1022 51.2022 18.8081C51.5357 18.514 51.972 18.3637 52.4159 18.3899C52.8598 18.4162 53.2754 18.6168 53.5719 18.9482C53.8685 19.2796 54.022 19.7148 53.999 20.1589C53.999 27.0442 29.7624 27.2422 26.9995 27.2422V27.2471Z" fill="url(#paint1_linear_72_184)"/>
<path d="M26.9995 40.6231C24.2366 40.6231 -1.97957e-05 40.4252 -1.97957e-05 33.5398C-0.010695 33.0807 0.161439 32.6361 0.478517 32.304C0.795596 31.9718 1.23164 31.7791 1.69074 31.7685C2.11405 31.7776 2.51911 31.9425 2.82834 32.2318C3.13757 32.521 3.32922 32.9141 3.36659 33.3359C4.40591 34.6418 12.3933 37.0804 27.0025 37.0804C41.6117 37.0804 49.599 34.6408 50.6383 33.3359C50.6679 32.8922 50.8716 32.4781 51.2051 32.184C51.5387 31.8899 51.975 31.7396 52.4189 31.7658C52.8628 31.7921 53.2783 31.9928 53.5749 32.3242C53.8714 32.6555 54.025 33.0907 54.002 33.5348C54.002 40.4202 29.7654 40.6181 27.0025 40.6181L26.9995 40.6231Z" fill="url(#paint2_linear_72_184)"/>
<path d="M26.9995 53.997C24.2366 53.997 0 53.812 0 47.2847V6.99181C0.0275558 6.56305 0.217309 6.16086 0.530706 5.86696C0.844103 5.57305 1.25764 5.40948 1.68728 5.40948C2.11693 5.40948 2.53046 5.57305 2.84386 5.86696C3.15726 6.16086 3.34701 6.56305 3.37456 6.99181V47.1037C4.45665 48.3479 12.442 50.6423 26.9995 50.6423C41.557 50.6423 49.5424 48.3479 50.6234 47.1037V6.99181C50.651 6.56305 50.8408 6.16086 51.1542 5.86696C51.4675 5.57305 51.8811 5.40948 52.3107 5.40948C52.7404 5.40948 53.1539 5.57305 53.4673 5.86696C53.7807 6.16086 53.9705 6.56305 53.998 6.99181V47.2847C54 53.812 29.7634 53.997 26.9995 53.997Z" fill="url(#paint3_linear_72_184)"/>
<path d="M10.9661 33.7566C12.2476 33.7566 13.2864 32.7177 13.2864 31.4363C13.2864 30.1548 12.2476 29.1159 10.9661 29.1159C9.6846 29.1159 8.64575 30.1548 8.64575 31.4363C8.64575 32.7177 9.6846 33.7566 10.9661 33.7566Z" fill="url(#paint4_linear_72_184)"/>
<path d="M10.9661 20.2563C12.2476 20.2563 13.2864 19.1703 13.2864 17.8306C13.2864 16.4909 12.2476 15.4048 10.9661 15.4048C9.6846 15.4048 8.64575 16.4909 8.64575 17.8306C8.64575 19.1703 9.6846 20.2563 10.9661 20.2563Z" fill="url(#paint5_linear_72_184)"/>
<path d="M10.9661 47.1106C12.2476 47.1106 13.2864 46.001 13.2864 44.6322C13.2864 43.2634 12.2476 42.1537 10.9661 42.1537C9.6846 42.1537 8.64575 43.2634 8.64575 44.6322C8.64575 46.001 9.6846 47.1106 10.9661 47.1106Z" fill="url(#paint6_linear_72_184)"/>
</g>
<defs>
<linearGradient id="paint0_linear_72_184" x1="-1.91157e-08" y1="7.0838" x2="61.2587" y2="16.8931" gradientUnits="userSpaceOnUse">
<stop stop-color="#6812C8"/>
<stop offset="1" stop-color="#3A82FF"/>
</linearGradient>
<linearGradient id="paint1_linear_72_184" x1="-0.0004883" y1="22.817" x2="58.9649" y2="37.9156" gradientUnits="userSpaceOnUse">
<stop stop-color="#6812C8"/>
<stop offset="1" stop-color="#3A82FF"/>
</linearGradient>
<linearGradient id="paint2_linear_72_184" x1="-0.0004883" y1="36.193" x2="58.9677" y2="51.2931" gradientUnits="userSpaceOnUse">
<stop stop-color="#6812C8"/>
<stop offset="1" stop-color="#3A82FF"/>
</linearGradient>
<linearGradient id="paint3_linear_72_184" x1="-1.9115e-08" y1="29.7033" x2="62.6905" y2="32.6303" gradientUnits="userSpaceOnUse">
<stop stop-color="#6812C8"/>
<stop offset="1" stop-color="#3A82FF"/>
</linearGradient>
<linearGradient id="paint4_linear_72_184" x1="8.64575" y1="31.4363" x2="14.0357" y2="31.6627" gradientUnits="userSpaceOnUse">
<stop stop-color="#6812C8"/>
<stop offset="1" stop-color="#3A82FF"/>
</linearGradient>
<linearGradient id="paint5_linear_72_184" x1="8.64575" y1="17.8306" x2="14.0365" y2="18.0472" gradientUnits="userSpaceOnUse">
<stop stop-color="#6812C8"/>
<stop offset="1" stop-color="#3A82FF"/>
</linearGradient>
<linearGradient id="paint6_linear_72_184" x1="8.64575" y1="44.6322" x2="14.0368" y2="44.8442" gradientUnits="userSpaceOnUse">
<stop stop-color="#6812C8"/>
<stop offset="1" stop-color="#3A82FF"/>
</linearGradient>
<clipPath id="clip0_72_184">
<rect width="54" height="54" fill="white"/>
</clipPath>
</defs>
</svg>
