<svg width="54" height="54" viewBox="0 0 54 54" fill="none" xmlns="http://www.w3.org/2000/svg">
<g clip-path="url(#clip0_72_163)">
<path d="M39.356 54C36.46 53.9998 33.629 53.1409 31.2212 51.5318C28.8133 49.9227 26.9366 47.6358 25.8284 44.9602C24.7203 42.2846 24.4304 39.3404 24.9954 36.5001C25.5604 33.6597 26.955 31.0506 29.0028 29.0028C31.0506 26.955 33.6597 25.5604 36.5001 24.9954C39.3404 24.4304 42.2846 24.7203 44.9602 25.8284C47.6358 26.9366 49.9227 28.8133 51.5318 31.2212C53.1409 33.629 53.9998 36.46 54 39.356C53.9958 43.2385 52.4516 46.9609 49.7062 49.7062C46.9609 52.4516 43.2385 53.9958 39.356 54ZM39.356 28.0925C37.1281 28.0925 34.9502 28.7532 33.0977 29.991C31.2453 31.2288 29.8015 32.9881 28.9489 35.0465C28.0964 37.1049 27.8733 39.3698 28.3081 41.555C28.7428 43.7401 29.8157 45.7472 31.3912 47.3225C32.9666 48.8979 34.9739 49.9706 37.159 50.4051C39.3442 50.8397 41.6091 50.6165 43.6674 49.7637C45.7257 48.911 47.4849 47.467 48.7226 45.6145C49.9602 43.7619 50.6207 41.584 50.6205 39.356C50.6163 36.3701 49.428 33.5076 47.3164 31.3965C45.2047 29.2854 42.342 28.0979 39.356 28.0945V28.0925Z" fill="url(#paint0_linear_72_163)"/>
<path d="M45.5512 41.0637H33.1618C32.7134 41.0637 32.2834 40.8855 31.9663 40.5684C31.6492 40.2514 31.4711 39.8213 31.4711 39.3729C31.4711 38.9245 31.6492 38.4944 31.9663 38.1773C32.2834 37.8603 32.7134 37.6821 33.1618 37.6821H45.5512C45.9996 37.6821 46.4296 37.8603 46.7467 38.1773C47.0638 38.4944 47.2419 38.9245 47.2419 39.3729C47.2419 39.8213 47.0638 40.2514 46.7467 40.5684C46.4296 40.8855 45.9996 41.0637 45.5512 41.0637Z" fill="url(#paint1_linear_72_163)"/>
<path d="M18.9694 37.1282H2.81759C2.36918 37.1282 1.93912 36.95 1.62204 36.633C1.30496 36.3159 1.12683 35.8858 1.12683 35.4374C1.12683 34.989 1.30496 34.5589 1.62204 34.2419C1.93912 33.9248 2.36918 33.7466 2.81759 33.7466H18.9694C19.4178 33.7466 19.8478 33.9248 20.1649 34.2419C20.482 34.5589 20.6601 34.989 20.6601 35.4374C20.6601 35.8858 20.482 36.3159 20.1649 36.633C19.8478 36.95 19.4178 37.1282 18.9694 37.1282Z" fill="url(#paint2_linear_72_163)"/>
<path d="M29.652 13.6982C30.9044 13.6982 31.9196 12.6593 31.9196 11.3778C31.9196 10.0964 30.9044 9.05753 29.652 9.05753C28.3996 9.05753 27.3844 10.0964 27.3844 11.3778C27.3844 12.6593 28.3996 13.6982 29.652 13.6982Z" fill="url(#paint3_linear_72_163)"/>
<path d="M20.5408 13.6982C21.8223 13.6982 22.8611 12.6593 22.8611 11.3778C22.8611 10.0964 21.8223 9.05753 20.5408 9.05753C19.2593 9.05753 18.2205 10.0964 18.2205 11.3778C18.2205 12.6593 19.2593 13.6982 20.5408 13.6982Z" fill="url(#paint4_linear_72_163)"/>
<path d="M11.3778 13.6982C12.6593 13.6982 13.6981 12.6593 13.6981 11.3778C13.6981 10.0964 12.6593 9.05753 11.3778 9.05753C10.0963 9.05753 9.0575 10.0964 9.0575 11.3778C9.0575 12.6593 10.0963 13.6982 11.3778 13.6982Z" fill="url(#paint5_linear_72_163)"/>
<path d="M23.0739 54H6.18521C4.54493 53.9984 2.97232 53.346 1.81265 52.1859C0.652982 51.0259 0.00105323 49.4531 0 47.8128L0 6.1872C0.00105323 4.54692 0.652982 2.97409 1.81265 1.81405C2.97232 0.654015 4.54493 0.00158065 6.18521 0L34.2976 0C35.9372 0.00263355 37.5088 0.655533 38.6676 1.81546C39.8264 2.97538 40.4778 4.54761 40.4789 6.1872V18.5626C40.4789 18.7846 40.4351 19.0045 40.3502 19.2096C40.2652 19.4148 40.1407 19.6011 39.9837 19.7581C39.8266 19.9151 39.6403 20.0397 39.4351 20.1247C39.23 20.2096 39.0101 20.2534 38.7881 20.2534H3.37357V47.8128C3.37489 48.558 3.67157 49.2723 4.19859 49.7991C4.72562 50.326 5.44001 50.6224 6.18521 50.6234H23.0739C23.5027 50.651 23.9049 50.8408 24.1988 51.1542C24.4927 51.4675 24.6563 51.8811 24.6563 52.3107C24.6563 52.7404 24.4927 53.1539 24.1988 53.4673C23.9049 53.7807 23.5027 53.9705 23.0739 53.998V54ZM3.37357 16.8748H37.1093V6.1872C37.1085 5.44166 36.812 4.72686 36.285 4.19959C35.7579 3.67232 35.0432 3.37562 34.2976 3.37456H6.18521C5.43967 3.37562 4.72498 3.67232 4.19789 4.19959C3.67081 4.72686 3.37436 5.44166 3.37357 6.1872V16.8748Z" fill="url(#paint6_linear_72_163)"/>
</g>
<defs>
<linearGradient id="paint0_linear_72_163" x1="24.714" y1="39.357" x2="58.7285" y2="40.786" gradientUnits="userSpaceOnUse">
<stop stop-color="#6812C8"/>
<stop offset="1" stop-color="#3A82FF"/>
</linearGradient>
<linearGradient id="paint1_linear_72_163" x1="31.4711" y1="39.3729" x2="49.1422" y2="42.8353" gradientUnits="userSpaceOnUse">
<stop stop-color="#6812C8"/>
<stop offset="1" stop-color="#3A82FF"/>
</linearGradient>
<linearGradient id="paint2_linear_72_163" x1="1.12683" y1="35.4374" x2="22.5899" y2="40.6461" gradientUnits="userSpaceOnUse">
<stop stop-color="#6812C8"/>
<stop offset="1" stop-color="#3A82FF"/>
</linearGradient>
<linearGradient id="paint3_linear_72_163" x1="27.3844" y1="11.3778" x2="32.6523" y2="11.5941" gradientUnits="userSpaceOnUse">
<stop stop-color="#6812C8"/>
<stop offset="1" stop-color="#3A82FF"/>
</linearGradient>
<linearGradient id="paint4_linear_72_163" x1="18.2205" y1="11.3778" x2="23.6104" y2="11.6043" gradientUnits="userSpaceOnUse">
<stop stop-color="#6812C8"/>
<stop offset="1" stop-color="#3A82FF"/>
</linearGradient>
<linearGradient id="paint5_linear_72_163" x1="9.0575" y1="11.3778" x2="14.4474" y2="11.6043" gradientUnits="userSpaceOnUse">
<stop stop-color="#6812C8"/>
<stop offset="1" stop-color="#3A82FF"/>
</linearGradient>
<linearGradient id="paint6_linear_72_163" x1="-1.43293e-08" y1="27" x2="47.0508" y2="28.4817" gradientUnits="userSpaceOnUse">
<stop stop-color="#6812C8"/>
<stop offset="1" stop-color="#3A82FF"/>
</linearGradient>
<clipPath id="clip0_72_163">
<rect width="54" height="54" fill="white"/>
</clipPath>
</defs>
</svg>
