<svg width="55" height="54" viewBox="0 0 55 54" fill="none" xmlns="http://www.w3.org/2000/svg">
<g clip-path="url(#clip0_72_145)">
<path d="M48.1487 42.0612C46.8416 42.0628 45.571 42.4925 44.5318 43.2846C43.4926 44.0767 42.7422 45.1873 42.3956 46.4463H32.8499C32.5748 45.4494 32.0459 44.5407 31.3148 43.8087C30.5837 43.0766 29.6752 42.5462 28.6779 42.2691V36.242H44.382C46.857 36.2401 49.235 35.2809 51.0172 33.5655C52.7994 31.8501 53.8471 29.5119 53.9407 27.0415C54.0342 24.5711 53.1662 22.1606 51.5188 20.3157C49.8714 18.4707 47.5726 17.3348 45.1049 17.1463C44.9837 15.8911 44.5843 14.6786 43.9356 13.5969C43.2869 12.5151 42.4051 11.5912 41.3544 10.8922C40.3037 10.1932 39.1103 9.73666 37.8609 9.55574C36.6116 9.37481 35.3375 9.47403 34.1313 9.84619C34.0567 7.18342 32.9352 4.65713 31.0097 2.81419C29.0841 0.971239 26.5093 -0.0400803 23.8428 -0.000853147C21.1762 0.038374 18.6324 1.12499 16.762 3.02378C14.8916 4.92257 13.8451 7.48075 13.849 10.1446V10.8537H12.9459C9.57461 10.8537 6.34137 12.1914 3.9575 14.5726C1.57362 16.9538 0.234369 20.1833 0.234369 23.5508C0.234369 26.9183 1.57362 30.1479 3.9575 32.5291C6.34137 34.9102 9.57461 36.248 12.9459 36.248H25.5146V42.275C24.5172 42.5521 23.6087 43.0825 22.8776 43.8145C22.1464 44.5466 21.6176 45.4553 21.3426 46.4522H11.7839C11.4006 45.0595 10.5246 43.8529 9.31834 43.0563C8.1121 42.2597 6.65754 41.9271 5.22448 42.1203C3.79143 42.3135 2.47716 43.0193 1.52548 44.1068C0.573804 45.1943 0.0493164 46.5897 0.0493164 48.0341C0.0493164 49.4785 0.573804 50.8739 1.52548 51.9614C2.47716 53.0489 3.79143 53.7547 5.22448 53.9479C6.65754 54.141 8.1121 53.8085 9.31834 53.0119C10.5246 52.2153 11.4006 51.0087 11.7839 49.6159H21.3426C21.6878 50.8758 22.4379 51.9875 23.4775 52.7799C24.5171 53.5723 25.7886 54.0015 27.0962 54.0015C28.4039 54.0015 29.6754 53.5723 30.715 52.7799C31.7546 51.9875 32.5047 50.8758 32.8499 49.6159H42.3956C42.6926 50.6863 43.2829 51.6525 44.1001 52.4057C44.9173 53.1588 45.9289 53.6691 47.0208 53.8788C48.1127 54.0885 49.2416 53.9894 50.2802 53.5927C51.3188 53.196 52.2258 52.5174 52.8989 51.6334C53.5721 50.7494 53.9847 49.6952 54.0903 48.5895C54.1958 47.4838 53.9901 46.3707 53.4962 45.3756C53.0024 44.3805 52.2401 43.5429 51.2953 42.9573C50.3505 42.3717 49.2607 42.0613 48.1487 42.0612ZM3.41412 23.5523C3.41649 21.0272 4.42124 18.606 6.20806 16.8198C7.99487 15.0335 10.4179 14.0278 12.9459 14.0234H17.0123V10.1446C17.0123 8.2955 17.7477 6.52216 19.0567 5.21468C20.3657 3.90719 22.141 3.17265 23.9922 3.17265C25.8433 3.17265 27.6187 3.90719 28.9277 5.21468C30.2366 6.52216 30.972 8.2955 30.972 10.1446V15.5152L33.4911 13.6604C34.4044 12.9852 35.5113 12.6221 36.6475 12.625C38.0622 12.6287 39.4176 13.1928 40.4165 14.1935C41.4153 15.1942 41.976 16.5498 41.9754 17.9629C41.975 18.1559 41.9644 18.3488 41.9436 18.5407L41.7564 20.2911H44.378C46.0766 20.2911 47.7055 20.9651 48.9066 22.1648C50.1076 23.3645 50.7824 24.9916 50.7824 26.6882C50.7824 28.3848 50.1076 30.0119 48.9066 31.2116C47.7055 32.4113 46.0766 33.0852 44.378 33.0852H12.9459C10.4173 33.0808 7.99378 32.0746 6.207 30.2874C4.42023 28.5002 3.41617 26.078 3.41512 23.5523H3.41412ZM6.02484 50.8363C5.46913 50.8371 4.92567 50.6732 4.46324 50.3654C4.0008 50.0575 3.64016 49.6196 3.42695 49.107C3.21375 48.5944 3.15755 48.0302 3.26548 47.4857C3.37341 46.9412 3.64062 46.4409 4.03328 46.0481C4.42595 45.6553 4.92643 45.3877 5.47141 45.2791C6.01638 45.1705 6.58135 45.2259 7.09484 45.4381C7.60832 45.6503 8.04724 46.01 8.35606 46.4714C8.66487 46.9329 8.82971 47.4755 8.82971 48.0306C8.82945 48.7739 8.53398 49.4868 8.00813 50.0128C7.48229 50.5388 6.76902 50.8349 6.02484 50.8363ZM27.0958 50.8363C26.54 50.8371 25.9966 50.6732 25.5341 50.3654C25.0717 50.0575 24.7111 49.6196 24.4979 49.107C24.2847 48.5944 24.2285 48.0302 24.3364 47.4857C24.4443 46.9412 24.7115 46.4409 25.1042 46.0481C25.4969 45.6553 25.9973 45.3877 26.5423 45.2791C27.0873 45.1705 27.6523 45.2259 28.1657 45.4381C28.6792 45.6503 29.1182 46.01 29.427 46.4714C29.7358 46.9329 29.9006 47.4755 29.9006 48.0306C29.9004 48.7739 29.6049 49.4868 29.079 50.0128C28.5532 50.5388 27.8399 50.8349 27.0958 50.8363ZM48.1497 50.8363C47.594 50.8371 47.0506 50.6732 46.5881 50.3654C46.1257 50.0575 45.7651 49.6196 45.5519 49.107C45.3386 48.5944 45.2825 48.0302 45.3904 47.4857C45.4983 46.9412 45.7655 46.4409 46.1582 46.0481C46.5509 45.6553 47.0513 45.3877 47.5963 45.2791C48.1413 45.1705 48.7063 45.2259 49.2197 45.4381C49.7332 45.6503 50.1721 46.01 50.481 46.4714C50.7898 46.9329 50.9546 47.4755 50.9546 48.0306C50.9543 48.7741 50.6587 49.4871 50.1327 50.0132C49.6066 50.5392 48.8931 50.8352 48.1487 50.8363H48.1497Z" fill="url(#paint0_linear_72_145)"/>
</g>
<defs>
<linearGradient id="paint0_linear_72_145" x1="0.0493164" y1="26.9998" x2="62.8467" y2="29.6412" gradientUnits="userSpaceOnUse">
<stop stop-color="#6812C8"/>
<stop offset="1" stop-color="#3A82FF"/>
</linearGradient>
<clipPath id="clip0_72_145">
<rect width="54.0613" height="54" fill="white" transform="translate(0.0567627)"/>
</clipPath>
</defs>
</svg>
