<svg width="54" height="54" viewBox="0 0 54 54" fill="none" xmlns="http://www.w3.org/2000/svg">
<g clip-path="url(#clip0_72_147)">
<path d="M50.8363 25.2073C51.675 25.2062 52.4791 24.8726 53.0722 24.2795C53.6653 23.6864 53.9989 22.8823 54 22.0436V3.16372C53.9989 2.32497 53.6653 1.52088 53.0722 0.927794C52.4791 0.33471 51.675 0.00105271 50.8363 0L3.16372 0C2.32497 0.00105271 1.52088 0.33471 0.927794 0.927794C0.33471 1.52088 0.00105271 2.32497 0 3.16372L0 22.0426C0.00105271 22.8813 0.33471 23.6854 0.927794 24.2785C1.52088 24.8716 2.32497 25.2052 3.16372 25.2063H12.7613V28.7927H3.16372C2.3248 28.7938 1.52056 29.1276 0.927443 29.7209C0.334331 30.3142 0.00078953 31.1185 0 31.9574L0 50.8363C0.00105271 51.675 0.33471 52.4791 0.927794 53.0722C1.52088 53.6653 2.32497 53.9989 3.16372 54H50.8363C51.675 53.9989 52.4791 53.6653 53.0722 53.0722C53.6653 52.4791 53.9989 51.675 54 50.8363V31.9574C53.9989 31.1187 53.6653 30.3146 53.0722 29.7215C52.4791 29.1284 51.675 28.7948 50.8363 28.7937H41.2387V25.2073H50.8363ZM3.16372 3.16372H50.8363V22.0426C50.8253 22.0426 41.4247 22.0426 3.16272 22.0426L3.16372 3.16372ZM50.8383 50.8353C50.8273 50.8353 41.4267 50.8353 3.16471 50.8353V31.9574H50.8363L50.8383 50.8353ZM38.074 28.7927H15.926V25.2073H38.074V28.7927Z" fill="url(#paint0_linear_72_147)"/>
<path d="M40.4998 18.4572C41.6469 18.4572 42.7683 18.117 43.7222 17.4797C44.676 16.8424 45.4194 15.9366 45.8585 14.8768C46.2975 13.817 46.4124 12.6508 46.1887 11.5257C45.965 10.4005 45.4127 9.36702 44.6016 8.55579C43.7905 7.74456 42.757 7.19206 41.632 6.96814C40.5069 6.74422 39.3407 6.85895 38.2808 7.29781C37.2209 7.73667 36.315 8.47995 35.6775 9.43368C35.04 10.3874 34.6997 11.5087 34.6995 12.6559C34.701 14.1938 35.3126 15.6683 36.4 16.7559C37.4874 17.8435 38.9618 18.4554 40.4998 18.4572ZM40.4998 10.0193C41.0212 10.0193 41.531 10.1739 41.9646 10.4636C42.3982 10.7534 42.7361 11.1651 42.9357 11.6469C43.1352 12.1287 43.1875 12.6588 43.0857 13.1703C42.984 13.6817 42.7329 14.1515 42.3641 14.5202C41.9954 14.889 41.5256 15.1401 41.0141 15.2418C40.5027 15.3436 39.9726 15.2913 39.4908 15.0918C39.009 14.8922 38.5972 14.5543 38.3075 14.1207C38.0178 13.6871 37.8632 13.1774 37.8632 12.6559C37.864 11.9569 38.142 11.2867 38.6363 10.7924C39.1306 10.2981 39.8008 10.0201 40.4998 10.0193Z" fill="url(#paint1_linear_72_147)"/>
<path d="M10.1247 6.85553H8.43392C8.02126 6.86588 7.62897 7.03708 7.34076 7.33261C7.05255 7.62813 6.89124 8.02459 6.89124 8.43739C6.89124 8.85019 7.05255 9.24664 7.34076 9.54217C7.62897 9.8377 8.02126 10.0089 8.43392 10.0192H10.1247C10.5374 10.0089 10.9296 9.8377 11.2179 9.54217C11.5061 9.24664 11.6674 8.85019 11.6674 8.43739C11.6674 8.02459 11.5061 7.62813 11.2179 7.33261C10.9296 7.03708 10.5374 6.86588 10.1247 6.85553Z" fill="url(#paint2_linear_72_147)"/>
<path d="M10.1247 15.2924H8.43392C8.02126 15.3028 7.62897 15.474 7.34076 15.7695C7.05255 16.065 6.89124 16.4615 6.89124 16.8743C6.89124 17.2871 7.05255 17.6835 7.34076 17.9791C7.62897 18.2746 8.02126 18.4458 8.43392 18.4561H10.1247C10.3358 18.4614 10.5458 18.4244 10.7423 18.3473C10.9389 18.2702 11.118 18.1545 11.2691 18.0071C11.4203 17.8597 11.5404 17.6835 11.6224 17.489C11.7045 17.2944 11.7467 17.0854 11.7467 16.8743C11.7467 16.6632 11.7045 16.4541 11.6224 16.2596C11.5404 16.065 11.4203 15.8889 11.2691 15.7415C11.118 15.594 10.9389 15.4784 10.7423 15.4013C10.5458 15.3241 10.3358 15.2871 10.1247 15.2924Z" fill="url(#paint3_linear_72_147)"/>
<path d="M16.8748 10.0193H18.5656C18.7767 10.0245 18.9867 9.98755 19.1832 9.91043C19.3798 9.83331 19.5589 9.71764 19.71 9.57023C19.8612 9.42282 19.9813 9.24664 20.0634 9.05209C20.1454 8.85753 20.1876 8.64853 20.1876 8.4374C20.1876 8.22626 20.1454 8.01726 20.0634 7.82271C19.9813 7.62815 19.8612 7.45198 19.71 7.30456C19.5589 7.15715 19.3798 7.04148 19.1832 6.96437C18.9867 6.88725 18.7767 6.85025 18.5656 6.85554H16.8748C16.4622 6.86589 16.0699 7.03709 15.7817 7.33262C15.4935 7.62814 15.3322 8.0246 15.3322 8.4374C15.3322 8.85019 15.4935 9.24665 15.7817 9.54218C16.0699 9.83771 16.4622 10.0089 16.8748 10.0193Z" fill="url(#paint4_linear_72_147)"/>
<path d="M16.8748 18.4561H18.5656C18.7767 18.4614 18.9867 18.4244 19.1832 18.3473C19.3798 18.2702 19.5589 18.1545 19.71 18.0071C19.8612 17.8597 19.9813 17.6835 20.0634 17.489C20.1454 17.2944 20.1876 17.0854 20.1876 16.8743C20.1876 16.6632 20.1454 16.4541 20.0634 16.2596C19.9813 16.065 19.8612 15.8889 19.71 15.7415C19.5589 15.594 19.3798 15.4784 19.1832 15.4013C18.9867 15.3241 18.7767 15.2871 18.5656 15.2924H16.8748C16.4622 15.3028 16.0699 15.474 15.7817 15.7695C15.4935 16.065 15.3322 16.4615 15.3322 16.8743C15.3322 17.2871 15.4935 17.6835 15.7817 17.9791C16.0699 18.2746 16.4622 18.4458 16.8748 18.4561Z" fill="url(#paint5_linear_72_147)"/>
<path d="M25.3127 10.0193H27.0035C27.2145 10.0245 27.4245 9.98755 27.6211 9.91043C27.8176 9.83331 27.9968 9.71764 28.1479 9.57023C28.2991 9.42282 28.4192 9.24664 28.5012 9.05209C28.5832 8.85753 28.6255 8.64853 28.6255 8.4374C28.6255 8.22626 28.5832 8.01726 28.5012 7.82271C28.4192 7.62815 28.2991 7.45198 28.1479 7.30456C27.9968 7.15715 27.8176 7.04148 27.6211 6.96437C27.4245 6.88725 27.2145 6.85025 27.0035 6.85554H25.3127C25.1016 6.85025 24.8916 6.88725 24.6951 6.96437C24.4985 7.04148 24.3194 7.15715 24.1682 7.30456C24.0171 7.45198 23.897 7.62815 23.8149 7.82271C23.7329 8.01726 23.6907 8.22626 23.6907 8.4374C23.6907 8.64853 23.7329 8.85753 23.8149 9.05209C23.897 9.24664 24.0171 9.42282 24.1682 9.57023C24.3194 9.71764 24.4985 9.83331 24.6951 9.91043C24.8916 9.98755 25.1016 10.0245 25.3127 10.0193Z" fill="url(#paint6_linear_72_147)"/>
<path d="M25.3127 18.4561H27.0035C27.2145 18.4614 27.4245 18.4244 27.6211 18.3473C27.8176 18.2702 27.9968 18.1545 28.1479 18.0071C28.2991 17.8597 28.4192 17.6835 28.5012 17.489C28.5832 17.2944 28.6255 17.0854 28.6255 16.8743C28.6255 16.6632 28.5832 16.4541 28.5012 16.2596C28.4192 16.065 28.2991 15.8889 28.1479 15.7415C27.9968 15.594 27.8176 15.4784 27.6211 15.4013C27.4245 15.3241 27.2145 15.2871 27.0035 15.2924H25.3127C25.1016 15.2871 24.8916 15.3241 24.6951 15.4013C24.4985 15.4784 24.3194 15.594 24.1682 15.7415C24.0171 15.8889 23.897 16.065 23.8149 16.2596C23.7329 16.4541 23.6907 16.6632 23.6907 16.8743C23.6907 17.0854 23.7329 17.2944 23.8149 17.489C23.897 17.6835 24.0171 17.8597 24.1682 18.0071C24.3194 18.1545 24.4985 18.2702 24.6951 18.3473C24.8916 18.4244 25.1016 18.4614 25.3127 18.4561Z" fill="url(#paint7_linear_72_147)"/>
<path d="M34.6995 41.3432C34.6995 42.4904 35.0397 43.6118 35.677 44.5656C36.3143 45.5195 37.2202 46.2629 38.2801 46.7019C39.34 47.141 40.5062 47.2558 41.6314 47.032C42.7565 46.8082 43.79 46.2558 44.6012 45.4446C45.4124 44.6334 45.9648 43.5999 46.1886 42.4747C46.4124 41.3496 46.2976 40.1833 45.8586 39.1235C45.4196 38.0636 44.6761 37.1577 43.7223 36.5204C42.7684 35.883 41.647 35.5428 40.4998 35.5428C38.962 35.5447 37.4877 36.1564 36.4004 37.2438C35.313 38.3311 34.7013 39.8054 34.6995 41.3432ZM40.4998 38.7066C41.0212 38.7066 41.531 38.8612 41.9646 39.1509C42.3982 39.4406 42.7361 39.8524 42.9357 40.3342C43.1352 40.816 43.1875 41.3461 43.0857 41.8575C42.984 42.369 42.7329 42.8388 42.3641 43.2075C41.9954 43.5763 41.5256 43.8274 41.0141 43.9291C40.5027 44.0308 39.9726 43.9786 39.4908 43.7791C39.009 43.5795 38.5972 43.2416 38.3075 42.808C38.0178 42.3744 37.8632 41.8646 37.8632 41.3432C37.864 40.6441 38.142 39.974 38.6363 39.4797C39.1306 38.9854 39.8008 38.7074 40.4998 38.7066Z" fill="url(#paint8_linear_72_147)"/>
<path d="M10.1247 35.5428H8.43392C8.02126 35.5532 7.62897 35.7244 7.34076 36.0199C7.05255 36.3154 6.89124 36.7119 6.89124 37.1247C6.89124 37.5375 7.05255 37.934 7.34076 38.2295C7.62897 38.525 8.02126 38.6962 8.43392 38.7066H10.1247C10.5374 38.6962 10.9296 38.525 11.2179 38.2295C11.5061 37.934 11.6674 37.5375 11.6674 37.1247C11.6674 36.7119 11.5061 36.3154 11.2179 36.0199C10.9296 35.7244 10.5374 35.5532 10.1247 35.5428Z" fill="url(#paint9_linear_72_147)"/>
<path d="M10.1247 43.9807H8.43392C8.02126 43.9911 7.62897 44.1623 7.34076 44.4578C7.05255 44.7533 6.89124 45.1498 6.89124 45.5626C6.89124 45.9754 7.05255 46.3718 7.34076 46.6674C7.62897 46.9629 8.02126 47.1341 8.43392 47.1444H10.1247C10.5374 47.1341 10.9296 46.9629 11.2179 46.6674C11.5061 46.3718 11.6674 45.9754 11.6674 45.5626C11.6674 45.1498 11.5061 44.7533 11.2179 44.4578C10.9296 44.1623 10.5374 43.9911 10.1247 43.9807Z" fill="url(#paint10_linear_72_147)"/>
<path d="M18.5616 35.5429H16.8708C16.4581 35.5532 16.0659 35.7244 15.7776 36.0199C15.4894 36.3155 15.3281 36.7119 15.3281 37.1247C15.3281 37.5375 15.4894 37.934 15.7776 38.2295C16.0659 38.525 16.4581 38.6962 16.8708 38.7066H18.5616C18.7726 38.7119 18.9826 38.6749 19.1792 38.5978C19.3757 38.5206 19.5549 38.405 19.706 38.2575C19.8572 38.1101 19.9773 37.934 20.0593 37.7394C20.1413 37.5449 20.1836 37.3359 20.1836 37.1247C20.1836 36.9136 20.1413 36.7046 20.0593 36.51C19.9773 36.3155 19.8572 36.1393 19.706 35.9919C19.5549 35.8445 19.3757 35.7288 19.1792 35.6517C18.9826 35.5746 18.7726 35.5376 18.5616 35.5429Z" fill="url(#paint11_linear_72_147)"/>
<path d="M18.5616 43.9807H16.8708C16.4581 43.9911 16.0659 44.1623 15.7776 44.4578C15.4894 44.7533 15.3281 45.1498 15.3281 45.5626C15.3281 45.9754 15.4894 46.3718 15.7776 46.6674C16.0659 46.9629 16.4581 47.1341 16.8708 47.1444H18.5616C18.7726 47.1497 18.9826 47.1127 19.1792 47.0356C19.3757 46.9585 19.5549 46.8428 19.706 46.6954C19.8572 46.548 19.9773 46.3718 20.0593 46.1773C20.1413 45.9827 20.1836 45.7737 20.1836 45.5626C20.1836 45.3515 20.1413 45.1424 20.0593 44.9479C19.9773 44.7533 19.8572 44.5772 19.706 44.4297C19.5549 44.2823 19.3757 44.1666 19.1792 44.0895C18.9826 44.0124 18.7726 43.9754 18.5616 43.9807Z" fill="url(#paint12_linear_72_147)"/>
<path d="M26.9995 35.5429H25.3087C25.0977 35.5376 24.8877 35.5746 24.6911 35.6517C24.4946 35.7288 24.3154 35.8445 24.1643 35.9919C24.0131 36.1393 23.893 36.3155 23.811 36.51C23.729 36.7046 23.6867 36.9136 23.6867 37.1247C23.6867 37.3359 23.729 37.5449 23.811 37.7394C23.893 37.934 24.0131 38.1101 24.1643 38.2575C24.3154 38.405 24.4946 38.5206 24.6911 38.5978C24.8877 38.6749 25.0977 38.7119 25.3087 38.7066H26.9995C27.2106 38.7119 27.4206 38.6749 27.6171 38.5978C27.8137 38.5206 27.9928 38.405 28.1439 38.2575C28.2951 38.1101 28.4152 37.934 28.4972 37.7394C28.5793 37.5449 28.6215 37.3359 28.6215 37.1247C28.6215 36.9136 28.5793 36.7046 28.4972 36.51C28.4152 36.3155 28.2951 36.1393 28.1439 35.9919C27.9928 35.8445 27.8137 35.7288 27.6171 35.6517C27.4206 35.5746 27.2106 35.5376 26.9995 35.5429Z" fill="url(#paint13_linear_72_147)"/>
<path d="M26.9995 43.9807H25.3087C25.0977 43.9754 24.8877 44.0124 24.6911 44.0895C24.4946 44.1666 24.3154 44.2823 24.1643 44.4297C24.0131 44.5772 23.893 44.7533 23.811 44.9479C23.729 45.1424 23.6867 45.3515 23.6867 45.5626C23.6867 45.7737 23.729 45.9827 23.811 46.1773C23.893 46.3718 24.0131 46.548 24.1643 46.6954C24.3154 46.8428 24.4946 46.9585 24.6911 47.0356C24.8877 47.1127 25.0977 47.1497 25.3087 47.1444H26.9995C27.2106 47.1497 27.4206 47.1127 27.6171 47.0356C27.8137 46.9585 27.9928 46.8428 28.1439 46.6954C28.2951 46.548 28.4152 46.3718 28.4972 46.1773C28.5793 45.9827 28.6215 45.7737 28.6215 45.5626C28.6215 45.3515 28.5793 45.1424 28.4972 44.9479C28.4152 44.7533 28.2951 44.5772 28.1439 44.4297C27.9928 44.2823 27.8137 44.1666 27.6171 44.0895C27.4206 44.0124 27.2106 43.9754 26.9995 43.9807Z" fill="url(#paint14_linear_72_147)"/>
</g>
<defs>
<linearGradient id="paint0_linear_72_147" x1="-1.91157e-08" y1="27" x2="62.7187" y2="29.6349" gradientUnits="userSpaceOnUse">
<stop stop-color="#6812C8"/>
<stop offset="1" stop-color="#3A82FF"/>
</linearGradient>
<linearGradient id="paint1_linear_72_147" x1="34.6995" y1="12.6569" x2="48.1731" y2="13.2229" gradientUnits="userSpaceOnUse">
<stop stop-color="#6812C8"/>
<stop offset="1" stop-color="#3A82FF"/>
</linearGradient>
<linearGradient id="paint2_linear_72_147" x1="6.89124" y1="8.43739" x2="12.4261" y2="8.78843" gradientUnits="userSpaceOnUse">
<stop stop-color="#6812C8"/>
<stop offset="1" stop-color="#3A82FF"/>
</linearGradient>
<linearGradient id="paint3_linear_72_147" x1="6.89124" y1="16.8743" x2="12.5173" y2="17.2369" gradientUnits="userSpaceOnUse">
<stop stop-color="#6812C8"/>
<stop offset="1" stop-color="#3A82FF"/>
</linearGradient>
<linearGradient id="paint4_linear_72_147" x1="15.3322" y1="8.4374" x2="20.9582" y2="8.80003" gradientUnits="userSpaceOnUse">
<stop stop-color="#6812C8"/>
<stop offset="1" stop-color="#3A82FF"/>
</linearGradient>
<linearGradient id="paint5_linear_72_147" x1="15.3322" y1="16.8743" x2="20.9582" y2="17.2369" gradientUnits="userSpaceOnUse">
<stop stop-color="#6812C8"/>
<stop offset="1" stop-color="#3A82FF"/>
</linearGradient>
<linearGradient id="paint6_linear_72_147" x1="23.6907" y1="8.4374" x2="29.4078" y2="8.81193" gradientUnits="userSpaceOnUse">
<stop stop-color="#6812C8"/>
<stop offset="1" stop-color="#3A82FF"/>
</linearGradient>
<linearGradient id="paint7_linear_72_147" x1="23.6907" y1="16.8743" x2="29.4078" y2="17.2488" gradientUnits="userSpaceOnUse">
<stop stop-color="#6812C8"/>
<stop offset="1" stop-color="#3A82FF"/>
</linearGradient>
<linearGradient id="paint8_linear_72_147" x1="34.6995" y1="41.3432" x2="48.1731" y2="41.9092" gradientUnits="userSpaceOnUse">
<stop stop-color="#6812C8"/>
<stop offset="1" stop-color="#3A82FF"/>
</linearGradient>
<linearGradient id="paint9_linear_72_147" x1="6.89124" y1="37.1247" x2="12.4261" y2="37.4757" gradientUnits="userSpaceOnUse">
<stop stop-color="#6812C8"/>
<stop offset="1" stop-color="#3A82FF"/>
</linearGradient>
<linearGradient id="paint10_linear_72_147" x1="6.89124" y1="45.5626" x2="12.4261" y2="45.9136" gradientUnits="userSpaceOnUse">
<stop stop-color="#6812C8"/>
<stop offset="1" stop-color="#3A82FF"/>
</linearGradient>
<linearGradient id="paint11_linear_72_147" x1="15.3281" y1="37.1247" x2="20.9541" y2="37.4873" gradientUnits="userSpaceOnUse">
<stop stop-color="#6812C8"/>
<stop offset="1" stop-color="#3A82FF"/>
</linearGradient>
<linearGradient id="paint12_linear_72_147" x1="15.3281" y1="45.5626" x2="20.9541" y2="45.9252" gradientUnits="userSpaceOnUse">
<stop stop-color="#6812C8"/>
<stop offset="1" stop-color="#3A82FF"/>
</linearGradient>
<linearGradient id="paint13_linear_72_147" x1="23.6867" y1="37.1247" x2="29.4039" y2="37.4992" gradientUnits="userSpaceOnUse">
<stop stop-color="#6812C8"/>
<stop offset="1" stop-color="#3A82FF"/>
</linearGradient>
<linearGradient id="paint14_linear_72_147" x1="23.6867" y1="45.5626" x2="29.4039" y2="45.9371" gradientUnits="userSpaceOnUse">
<stop stop-color="#6812C8"/>
<stop offset="1" stop-color="#3A82FF"/>
</linearGradient>
<clipPath id="clip0_72_147">
<rect width="54" height="54" fill="white"/>
</clipPath>
</defs>
</svg>
