<svg id="visual" viewBox="0 0 1920 1080" width="1920" height="1080" xmlns="http://www.w3.org/2000/svg" xmlns:xlink="http://www.w3.org/1999/xlink" version="1.1"><rect x="0" y="0" width="1920" height="1080" fill="#0B0038"></rect><path d="M702 0L713 0L713 154L1060 154L1060 309L861 309L861 463L815 463L815 617L745 617L745 771L785 771L785 926L810 926L810 1080L0 1080L0 926L0 926L0 771L0 771L0 617L0 617L0 463L0 463L0 309L0 309L0 154L0 154L0 0L0 0Z" fill="#53268d"></path><path d="M562 0L648 0L648 154L534 154L534 309L699 309L699 463L656 463L656 617L779 617L779 771L452 771L452 926L556 926L556 1080L0 1080L0 926L0 926L0 771L0 771L0 617L0 617L0 463L0 463L0 309L0 309L0 154L0 154L0 0L0 0Z" fill="#6e36b8"></path><path d="M394 0L471 0L471 154L487 154L487 309L402 309L402 463L239 463L239 617L485 617L485 771L448 771L448 926L464 926L464 1080L0 1080L0 926L0 926L0 771L0 771L0 617L0 617L0 463L0 463L0 309L0 309L0 154L0 154L0 0L0 0Z" fill="#8b47e4"></path></svg>