<svg id="visual" viewBox="0 0 900 600" width="900" height="600" xmlns="http://www.w3.org/2000/svg" xmlns:xlink="http://www.w3.org/1999/xlink" version="1.1"><g stroke-width="1" stroke-linejoin="bevel"><path d="M462 260L386 184L380 265Z" fill="#0b0038" stroke="#0b0038"></path><path d="M386 184L315 179L380 265Z" fill="#042459" stroke="#042459"></path><path d="M462 260L535 211L386 184Z" fill="#1b87b3" stroke="#1b87b3"></path><path d="M315 179L318 290L380 265Z" fill="#042459" stroke="#042459"></path><path d="M433 374L479 360L462 260Z" fill="#00447a" stroke="#00447a"></path><path d="M480 82L414 98L386 184Z" fill="#042459" stroke="#042459"></path><path d="M386 184L414 98L315 179Z" fill="#00447a" stroke="#00447a"></path><path d="M433 374L462 260L380 265Z" fill="#026598" stroke="#026598"></path><path d="M462 260L600 315L535 211Z" fill="#1b87b3" stroke="#1b87b3"></path><path d="M318 290L433 374L380 265Z" fill="#3caacc" stroke="#3caacc"></path><path d="M535 211L480 82L386 184Z" fill="#005489" stroke="#005489"></path><path d="M479 360L600 315L462 260Z" fill="#0b0038" stroke="#0b0038"></path><path d="M535 211L583 103L480 82Z" fill="#0b0038" stroke="#0b0038"></path><path d="M624 199L583 103L535 211Z" fill="#2b98c0" stroke="#2b98c0"></path><path d="M600 315L624 199L535 211Z" fill="#00447a" stroke="#00447a"></path><path d="M331 0L261 70L414 98Z" fill="#042459" stroke="#042459"></path><path d="M414 98L261 70L315 179Z" fill="#02346a" stroke="#02346a"></path><path d="M167 271L262 395L318 290Z" fill="#026598" stroke="#026598"></path><path d="M524 0L429 0L480 82Z" fill="#1b87b3" stroke="#1b87b3"></path><path d="M480 82L429 0L414 98Z" fill="#026598" stroke="#026598"></path><path d="M186 237L318 290L315 179Z" fill="#026598" stroke="#026598"></path><path d="M318 290L262 395L433 374Z" fill="#02346a" stroke="#02346a"></path><path d="M184 99L186 237L315 179Z" fill="#0b0038" stroke="#0b0038"></path><path d="M429 0L331 0L414 98Z" fill="#042459" stroke="#042459"></path><path d="M583 103L524 0L480 82Z" fill="#3caacc" stroke="#3caacc"></path><path d="M67 207L167 271L186 237Z" fill="#026598" stroke="#026598"></path><path d="M186 237L167 271L318 290Z" fill="#042459" stroke="#042459"></path><path d="M479 360L609 400L600 315Z" fill="#026598" stroke="#026598"></path><path d="M600 315L664 309L624 199Z" fill="#2b98c0" stroke="#2b98c0"></path><path d="M505 475L609 400L479 360Z" fill="#042459" stroke="#042459"></path><path d="M505 475L479 360L433 374Z" fill="#2b98c0" stroke="#2b98c0"></path><path d="M609 400L664 309L600 315Z" fill="#005489" stroke="#005489"></path><path d="M387 525L505 475L433 374Z" fill="#02346a" stroke="#02346a"></path><path d="M169 0L184 99L261 70Z" fill="#2b98c0" stroke="#2b98c0"></path><path d="M261 70L184 99L315 179Z" fill="#0c76a6" stroke="#0c76a6"></path><path d="M167 271L212 401L262 395Z" fill="#0b0038" stroke="#0b0038"></path><path d="M262 395L387 525L433 374Z" fill="#026598" stroke="#026598"></path><path d="M664 309L687 191L624 199Z" fill="#00447a" stroke="#00447a"></path><path d="M624 199L687 191L583 103Z" fill="#2b98c0" stroke="#2b98c0"></path><path d="M583 103L613 0L524 0Z" fill="#2b98c0" stroke="#2b98c0"></path><path d="M679 0L613 0L583 103Z" fill="#00447a" stroke="#00447a"></path><path d="M269 529L387 525L262 395Z" fill="#00447a" stroke="#00447a"></path><path d="M609 400L719 420L664 309Z" fill="#061549" stroke="#061549"></path><path d="M505 475L598 473L609 400Z" fill="#026598" stroke="#026598"></path><path d="M599 600L598 473L505 475Z" fill="#061549" stroke="#061549"></path><path d="M133 464L223 476L212 401Z" fill="#1b87b3" stroke="#1b87b3"></path><path d="M212 401L223 476L262 395Z" fill="#2b98c0" stroke="#2b98c0"></path><path d="M223 476L269 529L262 395Z" fill="#005489" stroke="#005489"></path><path d="M331 0L169 0L261 70Z" fill="#061549" stroke="#061549"></path><path d="M184 99L67 207L186 237Z" fill="#00447a" stroke="#00447a"></path><path d="M664 309L762 209L687 191Z" fill="#02346a" stroke="#02346a"></path><path d="M730 76L679 0L583 103Z" fill="#1b87b3" stroke="#1b87b3"></path><path d="M786 303L762 209L664 309Z" fill="#0c76a6" stroke="#0c76a6"></path><path d="M169 0L107 82L184 99Z" fill="#042459" stroke="#042459"></path><path d="M167 271L70 362L212 401Z" fill="#00447a" stroke="#00447a"></path><path d="M730 76L583 103L687 191Z" fill="#00447a" stroke="#00447a"></path><path d="M780 136L730 76L687 191Z" fill="#026598" stroke="#026598"></path><path d="M107 82L67 207L184 99Z" fill="#061549" stroke="#061549"></path><path d="M67 207L67 277L167 271Z" fill="#3caacc" stroke="#3caacc"></path><path d="M674 507L719 420L609 400Z" fill="#042459" stroke="#042459"></path><path d="M70 362L133 464L212 401Z" fill="#042459" stroke="#042459"></path><path d="M223 476L234 600L269 529Z" fill="#02346a" stroke="#02346a"></path><path d="M900 229L780 136L762 209Z" fill="#005489" stroke="#005489"></path><path d="M762 209L780 136L687 191Z" fill="#0b0038" stroke="#0b0038"></path><path d="M730 76L778 0L679 0Z" fill="#005489" stroke="#005489"></path><path d="M323 600L404 600L387 525Z" fill="#1b87b3" stroke="#1b87b3"></path><path d="M387 525L486 600L505 475Z" fill="#0c76a6" stroke="#0c76a6"></path><path d="M598 473L674 507L609 400Z" fill="#0c76a6" stroke="#0c76a6"></path><path d="M323 600L387 525L269 529Z" fill="#2b98c0" stroke="#2b98c0"></path><path d="M67 277L70 362L167 271Z" fill="#042459" stroke="#042459"></path><path d="M719 420L786 303L664 309Z" fill="#3caacc" stroke="#3caacc"></path><path d="M0 109L0 207L67 207Z" fill="#026598" stroke="#026598"></path><path d="M169 0L116 0L107 82Z" fill="#3caacc" stroke="#3caacc"></path><path d="M599 600L674 507L598 473Z" fill="#0c76a6" stroke="#0c76a6"></path><path d="M719 420L811 387L786 303Z" fill="#005489" stroke="#005489"></path><path d="M404 600L486 600L387 525Z" fill="#0c76a6" stroke="#0c76a6"></path><path d="M234 600L323 600L269 529Z" fill="#0c76a6" stroke="#0c76a6"></path><path d="M486 600L599 600L505 475Z" fill="#2b98c0" stroke="#2b98c0"></path><path d="M133 464L234 600L223 476Z" fill="#0c76a6" stroke="#0c76a6"></path><path d="M0 109L67 207L107 82Z" fill="#042459" stroke="#042459"></path><path d="M67 207L0 269L67 277Z" fill="#1b87b3" stroke="#1b87b3"></path><path d="M67 277L0 269L70 362Z" fill="#2b98c0" stroke="#2b98c0"></path><path d="M0 207L0 269L67 207Z" fill="#061549" stroke="#061549"></path><path d="M70 362L0 413L133 464Z" fill="#02346a" stroke="#02346a"></path><path d="M798 513L719 420L674 507Z" fill="#061549" stroke="#061549"></path><path d="M798 513L811 387L719 420Z" fill="#3caacc" stroke="#3caacc"></path><path d="M786 303L900 229L762 209Z" fill="#00447a" stroke="#00447a"></path><path d="M900 114L778 0L780 136Z" fill="#00447a" stroke="#00447a"></path><path d="M780 136L778 0L730 76Z" fill="#00447a" stroke="#00447a"></path><path d="M0 0L0 109L107 82Z" fill="#0c76a6" stroke="#0c76a6"></path><path d="M0 269L0 413L70 362Z" fill="#061549" stroke="#061549"></path><path d="M133 464L97 600L234 600Z" fill="#02346a" stroke="#02346a"></path><path d="M599 600L693 600L674 507Z" fill="#3caacc" stroke="#3caacc"></path><path d="M693 600L798 513L674 507Z" fill="#026598" stroke="#026598"></path><path d="M116 0L0 0L107 82Z" fill="#042459" stroke="#042459"></path><path d="M0 413L0 460L133 464Z" fill="#061549" stroke="#061549"></path><path d="M900 298L786 303L900 360Z" fill="#0c76a6" stroke="#0c76a6"></path><path d="M900 298L900 229L786 303Z" fill="#026598" stroke="#026598"></path><path d="M900 360L786 303L811 387Z" fill="#061549" stroke="#061549"></path><path d="M0 460L97 600L133 464Z" fill="#02346a" stroke="#02346a"></path><path d="M900 229L900 114L780 136Z" fill="#3caacc" stroke="#3caacc"></path><path d="M900 496L900 360L811 387Z" fill="#3caacc" stroke="#3caacc"></path><path d="M900 114L900 0L778 0Z" fill="#0b0038" stroke="#0b0038"></path><path d="M693 600L812 600L798 513Z" fill="#1b87b3" stroke="#1b87b3"></path><path d="M798 513L900 496L811 387Z" fill="#061549" stroke="#061549"></path><path d="M900 600L900 496L798 513Z" fill="#0c76a6" stroke="#0c76a6"></path><path d="M0 460L0 600L97 600Z" fill="#2b98c0" stroke="#2b98c0"></path><path d="M812 600L900 600L798 513Z" fill="#042459" stroke="#042459"></path></g></svg>