<svg width="320" height="181" viewBox="0 0 320 181" fill="none" xmlns="http://www.w3.org/2000/svg">
<g clip-path="url(#clip0_258_7)">
<path d="M319.466 87.027C319.213 72.6592 313.955 60.2065 303.216 50.6821C298.322 46.1963 293.957 41.1613 290.207 35.676C288.945 33.9333 287.714 32.1702 286.442 30.4477C271.737 10.4768 252.127 0.121479 227.268 0.0505526C204.832 -0.0305065 182.406 0.0505526 159.97 0.0505526V0.121487C136.353 0.121487 112.736 -0.0912859 89.1292 0.192421C72.3147 0.395069 57.6096 6.66701 44.812 17.5695C36.2534 24.8546 30.6116 34.4905 23.9302 43.3057C22.7485 44.833 21.3936 46.2169 19.8931 47.4296C7.29735 57.6431 0.464572 70.805 0.121419 87.0675C-0.140992 100.422 -0.0400643 113.787 0.121419 127.141C0.373738 152.117 18.1168 174.449 42.6017 179.1C52.3816 180.964 62.6661 180.569 72.7084 180.498C88.8567 180.397 103.693 175.432 117.318 166.769C129.823 158.795 139.038 147.76 146.88 135.358C153.238 125.226 166.137 125.388 172.768 135.358C174.019 137.243 175.24 139.138 176.482 141.022C189.3 160.342 206.925 172.808 229.358 178.421C241.61 181.461 254.105 180.812 266.519 180.63C295.445 180.204 319.112 156.312 319.466 127.182C319.647 113.736 319.698 100.381 319.466 87.027ZM78.2392 11.9257C83.0619 10.9158 87.9774 10.42 92.9039 10.4464C137.524 10.3451 182.154 10.4464 226.784 10.3755C247.205 10.3755 263.767 18.3699 276.471 34.3588C277.197 35.2707 277.813 36.2536 278.489 37.1857H41.0979C50.3126 23.9427 62.6055 15.3505 78.2392 11.9257ZM309.221 125.611C309.131 150.82 289.884 170.194 264.733 170.194C253.923 170.194 243.074 170.903 232.375 168.329C213.421 163.77 198.252 153.658 186.958 137.79C184.889 134.913 183.022 131.883 181.044 128.945C178.748 125.404 175.607 122.496 171.906 120.486C168.206 118.475 164.063 117.425 159.855 117.432C155.647 117.44 151.508 118.503 147.814 120.526C144.12 122.549 140.988 125.467 138.705 129.016C132.255 138.885 125.403 148.267 115.724 155.299C102.835 164.631 88.4732 169.859 72.6074 170.113C64.0488 170.254 55.3589 170.579 46.9214 169.403C26.5543 166.556 10.8096 148.125 10.5068 127.465C10.3117 113.895 10.3117 100.327 10.5068 86.7635C10.7793 66.0326 27.5333 48.4935 48.183 47.2472C53.3101 46.9331 58.4776 47.0648 63.635 47.0648H159.879C195.715 47.0648 231.555 47.0648 267.397 47.0648C287.764 47.0648 303.953 59.781 308.273 79.1237C308.91 82.176 309.231 85.2863 309.232 88.405C309.292 100.837 309.292 113.25 309.221 125.611Z" fill="white"/>
<path d="M274.654 113.858H259.615V129.461C259.613 130.957 259.02 132.391 257.966 133.449C256.912 134.507 255.484 135.103 253.994 135.105H245.92C244.429 135.103 243.001 134.507 241.947 133.449C240.894 132.391 240.301 130.957 240.298 129.461V113.858H225.229C223.736 113.858 222.303 113.262 221.247 112.202C220.191 111.141 219.598 109.703 219.598 108.204V101.223C219.598 99.723 220.191 98.285 221.247 97.2247C222.303 96.1644 223.736 95.5687 225.229 95.5687H240.318V79.8128C240.318 78.3026 240.916 76.8542 241.979 75.7863C243.043 74.7183 244.486 74.1184 245.99 74.1184H253.943C255.448 74.1184 256.89 74.7183 257.954 75.7863C259.018 76.8542 259.615 78.3026 259.615 79.8128V95.5281H274.654C276.161 95.5281 277.606 96.1292 278.671 97.199C279.737 98.2688 280.336 99.7197 280.336 101.233V108.183C280.328 109.691 279.726 111.134 278.661 112.198C277.596 113.261 276.155 113.858 274.654 113.858Z" fill="white"/>
<path d="M38.4891 42.2188C39.1585 18.7907 67.2165 9.02897 81.1618 7.07662C188.262 -0.453848 173.201 15.7785 206.67 7.07662C240.138 -1.62526 269.145 19.6274 279.464 31.3415V42.2188H38.4891Z" fill="url(#paint0_linear_258_7)" fill-opacity="0.49"/>
<path d="M112.011 166.503C116.191 166.503 119.58 163.115 119.58 158.935C119.58 154.755 116.191 151.366 112.011 151.366C107.831 151.366 104.443 154.755 104.443 158.935C104.443 163.115 107.831 166.503 112.011 166.503Z" fill="white"/>
<path d="M180.935 53.3547C184.279 53.3547 186.989 50.6439 186.989 47.3C186.989 43.9561 184.279 41.2454 180.935 41.2454C177.591 41.2454 174.88 43.9561 174.88 47.3C174.88 50.6439 177.591 53.3547 180.935 53.3547Z" fill="white"/>
<path d="M78.7105 107.47C82.0544 107.47 84.7652 104.759 84.7652 101.415C84.7652 98.0716 82.0544 95.3608 78.7105 95.3608C75.3666 95.3608 72.6559 98.0716 72.6559 101.415C72.6559 104.759 75.3666 107.47 78.7105 107.47Z" fill="white"/>
<path d="M37.8416 107.47C40.3496 107.47 42.3826 105.437 42.3826 102.929C42.3826 100.421 40.3496 98.3881 37.8416 98.3881C35.3337 98.3881 33.3007 100.421 33.3007 102.929C33.3007 105.437 35.3337 107.47 37.8416 107.47Z" fill="white"/>
<path d="M11.3525 127.148C14.2784 127.148 16.6503 124.776 16.6503 121.85C16.6503 118.924 14.2784 116.552 11.3525 116.552C8.42661 116.552 6.05469 118.924 6.05469 121.85C6.05469 124.776 8.42661 127.148 11.3525 127.148Z" fill="white"/>
<path d="M182.304 47.8446L129.418 65.8444L124.999 98.3881L137.743 137.743L111.254 158.178" stroke="white" stroke-width="4.23826"/>
<path d="M78.8325 99.9018L86.2789 71.1422L103.051 49.9509" stroke="white" stroke-width="4.23826" stroke-miterlimit="10"/>
<path d="M12.4034 122.653L37.8416 127.905L62.939 124.877L78.7106 102.172L89.3062 133.202L110.497 159.691" stroke="white" stroke-width="4.23826" stroke-miterlimit="10"/>
<path d="M104.443 54.4919C107.787 54.4919 110.497 51.7811 110.497 48.4372C110.497 45.0933 107.787 42.3826 104.443 42.3826C101.099 42.3826 98.3882 45.0933 98.3882 48.4372C98.3882 51.7811 101.099 54.4919 104.443 54.4919Z" fill="white"/>
<path d="M21.1912 65.0876C24.5351 65.0876 27.2459 62.3768 27.2459 59.0329C27.2459 55.689 24.5351 52.9783 21.1912 52.9783C17.8474 52.9783 15.1366 55.689 15.1366 59.0329C15.1366 62.3768 17.8474 65.0876 21.1912 65.0876Z" fill="white"/>
<path d="M125.756 104.443C129.1 104.443 131.811 101.732 131.811 98.3881C131.811 95.0443 129.1 92.3335 125.756 92.3335C122.412 92.3335 119.701 95.0443 119.701 98.3881C119.701 101.732 122.412 104.443 125.756 104.443Z" fill="white"/>
<path d="M69.6285 149.853C72.1364 149.853 74.1695 147.82 74.1695 145.312C74.1695 142.804 72.1364 140.771 69.6285 140.771C67.1206 140.771 65.0875 142.804 65.0875 145.312C65.0875 147.82 67.1206 149.853 69.6285 149.853Z" fill="white"/>
<path d="M78.0756 100.659L47.6804 86.2788L18.1639 57.5192" stroke="white" stroke-width="4.23826"/>
<path d="M86.2788 71.1422L102.929 95.3608L125.756 98.3881" stroke="white" stroke-width="4.23826"/>
<path d="M63.6958 124.877L70.3854 145.312L47.8024 175.585" stroke="white" stroke-width="4.23826"/>
<path d="M47.6804 85.522L37.8416 102.172V125.634" stroke="white" stroke-width="4.23826"/>
<path d="M78.7105 107.47C82.0544 107.47 84.7652 104.759 84.7652 101.415C84.7652 98.0716 82.0544 95.3608 78.7105 95.3608C75.3666 95.3608 72.6559 98.0716 72.6559 101.415C72.6559 104.759 75.3666 107.47 78.7105 107.47Z" fill="white"/>
<path d="M37.8416 107.47C40.3496 107.47 42.3826 105.437 42.3826 102.929C42.3826 100.421 40.3496 98.3881 37.8416 98.3881C35.3337 98.3881 33.3007 100.421 33.3007 102.929C33.3007 105.437 35.3337 107.47 37.8416 107.47Z" fill="white"/>
<path d="M11.3525 127.148C14.2784 127.148 16.6503 124.776 16.6503 121.85C16.6503 118.924 14.2784 116.552 11.3525 116.552C8.42661 116.552 6.05469 118.924 6.05469 121.85C6.05469 124.776 8.42661 127.148 11.3525 127.148Z" fill="white"/>
<path d="M182.304 47.8446L129.418 65.8444L124.999 98.3881L137.743 137.743L111.254 158.178" stroke="white" stroke-width="4.23826"/>
<path d="M78.8325 99.9018L86.2789 71.1422L103.051 49.9509" stroke="white" stroke-width="4.23826" stroke-miterlimit="10"/>
<path d="M12.4034 122.653L37.8416 127.905L62.939 124.877L78.7106 102.172L89.3062 133.202L110.497 159.691" stroke="white" stroke-width="4.23826" stroke-miterlimit="10"/>
<path d="M104.443 54.4919C107.787 54.4919 110.497 51.7811 110.497 48.4372C110.497 45.0933 107.787 42.3826 104.443 42.3826C101.099 42.3826 98.3882 45.0933 98.3882 48.4372C98.3882 51.7811 101.099 54.4919 104.443 54.4919Z" fill="white"/>
<path d="M21.1912 65.0876C24.5351 65.0876 27.2459 62.3768 27.2459 59.0329C27.2459 55.689 24.5351 52.9783 21.1912 52.9783C17.8474 52.9783 15.1366 55.689 15.1366 59.0329C15.1366 62.3768 17.8474 65.0876 21.1912 65.0876Z" fill="white"/>
<path d="M125.756 104.443C129.1 104.443 131.811 101.732 131.811 98.3881C131.811 95.0443 129.1 92.3335 125.756 92.3335C122.412 92.3335 119.701 95.0443 119.701 98.3881C119.701 101.732 122.412 104.443 125.756 104.443Z" fill="white"/>
<path d="M69.6285 149.853C72.1364 149.853 74.1695 147.82 74.1695 145.312C74.1695 142.804 72.1364 140.771 69.6285 140.771C67.1206 140.771 65.0875 142.804 65.0875 145.312C65.0875 147.82 67.1206 149.853 69.6285 149.853Z" fill="white"/>
<path d="M78.0756 100.659L47.6804 86.2788L18.1639 57.5192" stroke="white" stroke-width="4.23826"/>
<path d="M86.2788 71.1422L102.929 95.3608L125.756 98.3881" stroke="white" stroke-width="4.23826"/>
<path d="M63.6958 124.877L70.3854 145.312L47.8024 175.585" stroke="white" stroke-width="4.23826"/>
<path d="M47.6804 85.522L37.8416 102.172V125.634" stroke="white" stroke-width="4.23826"/>
</g>
<defs>
<linearGradient id="paint0_linear_258_7" x1="55.2235" y1="23.811" x2="264.403" y2="23.811" gradientUnits="userSpaceOnUse">
<stop stop-color="white" stop-opacity="0.64"/>
<stop offset="1" stop-color="white" stop-opacity="0"/>
</linearGradient>
<clipPath id="clip0_258_7">
<rect width="319.627" height="180.731" fill="white"/>
</clipPath>
</defs>
</svg>
