<svg width="606" height="428" viewBox="0 0 606 428" fill="none" xmlns="http://www.w3.org/2000/svg">
<g clip-path="url(#clip0_72_216)">
<path opacity="0.1" d="M201.47 427.759C230.982 427.759 254.906 423.928 254.906 419.202C254.906 414.476 230.982 410.645 201.47 410.645C171.958 410.645 148.034 414.476 148.034 419.202C148.034 423.928 171.958 427.759 201.47 427.759Z" fill="#DC5FEE"/>
<path opacity="0.1" d="M491.939 428C528.765 428 558.619 424.169 558.619 419.443C558.619 414.717 528.765 410.885 491.939 410.885C455.113 410.885 425.259 414.717 425.259 419.443C425.259 424.169 455.113 428 491.939 428Z" fill="#DC5FEE"/>
<path opacity="0.1" d="M7.58982 184.927H63.2466V260.565H11.6644C11.5273 261.342 11.3957 262.124 11.2531 262.906H63.2466V323.906C63.1534 323.879 63.0711 323.846 62.9833 323.813C61.5136 323.234 60.0549 322.621 58.5962 321.965L57.6639 321.544C56.2015 320.855 54.7391 320.126 53.2767 319.357C52.7667 319.089 52.2567 318.81 51.7522 318.526C43.6336 313.991 36.2584 308.245 29.8821 301.488C29.6957 301.307 29.5202 301.116 29.3337 300.941C28.4453 299.978 27.5734 299.005 26.7289 298.01L25.7966 296.916C24.7985 295.697 23.8333 294.445 22.8956 293.176C22.7585 292.99 22.6269 292.804 22.4843 292.629C18.6704 287.357 15.5037 281.648 13.0519 275.624C12.9751 275.444 12.9093 275.247 12.838 275.077C12.0848 273.145 11.4176 271.195 10.8363 269.226C10.5841 268.401 10.3428 267.586 10.1344 266.728C10.0576 266.476 9.9918 266.23 9.93147 265.984C6.81658 253.861 6.44916 241.269 6.44916 228.763C6.44916 227.304 6.44916 225.838 6.44916 224.389C6.44916 219.331 6.50948 214.241 6.59722 209.155C6.59722 207.838 6.65206 206.525 6.67948 205.202C6.75626 201.845 6.86594 198.487 7.00852 195.13C7.04143 194.195 7.0853 193.265 7.13465 192.336C7.13465 191.8 7.16207 191.264 7.21691 190.728C7.34853 188.782 7.45821 186.851 7.58982 184.927Z" fill="#DC5FEE"/>
<path opacity="0.1" d="M63.2466 100.709H32.7173C37.68 92.9641 43.1024 85.5217 48.9554 78.4216C53.4906 72.8662 58.2781 67.4529 63.2466 62.2365V100.709Z" fill="#DC5FEE"/>
<path opacity="0.1" d="M63.2466 103.049V182.587H7.76532C7.76532 182.357 7.80371 182.122 7.82016 181.892C7.86951 181.263 7.91887 180.634 7.97371 180.011C8.03403 179.278 8.09984 178.54 8.17113 177.824C8.24242 177.108 8.3192 176.233 8.40146 175.44C8.48372 174.647 8.56049 173.843 8.65372 173.05C8.74695 172.258 8.82921 171.465 8.92792 170.677C9.02663 169.89 9.11438 169.092 9.21857 168.304C9.30083 167.648 9.38857 166.997 9.47631 166.341C9.60245 165.417 9.73406 164.488 9.87665 163.569C9.87665 163.432 9.91503 163.29 9.93697 163.159C10.9379 156.434 12.3017 149.768 14.0225 143.19C15.8238 136.289 18.1239 129.528 20.9049 122.958C23.8606 116.086 27.3212 109.441 31.2586 103.077L63.2466 103.049Z" fill="#DC5FEE"/>
<path opacity="0.1" d="M76.5342 184.921V260.565H195.41V184.921H76.5342ZM76.5342 262.9V327.86C77.2142 328.002 77.8887 328.138 78.5578 328.253C79.4681 328.428 80.373 328.587 81.2997 328.724C81.4752 328.751 81.6562 328.778 81.8481 328.795C82.2101 328.855 82.583 328.904 82.9449 328.953C83.8608 329.079 84.7711 329.183 85.6869 329.265C86.1202 329.309 86.5589 329.347 86.9976 329.38L88.056 329.462C88.6318 329.505 89.2021 329.538 89.767 329.555C90.118 329.555 90.4689 329.587 90.8309 329.598C91.1051 329.598 91.3793 329.598 91.6644 329.598C91.9496 329.598 92.3554 329.598 92.7009 329.598C93.1725 329.598 93.6441 329.598 94.1103 329.598H94.7409C95.2126 329.598 95.6842 329.598 96.1503 329.555H96.1832C96.5068 329.555 96.8358 329.555 97.1649 329.511C97.2562 329.516 97.3477 329.516 97.439 329.511C97.7132 329.511 97.9874 329.511 98.2507 329.473H98.4426L100.28 329.331C100.883 329.276 101.492 329.205 102.106 329.139L103.356 328.991C108.443 328.281 113.473 327.214 118.41 325.798C129.498 322.714 140.346 318.4 151.429 315.24C165.758 311.166 181.59 309.165 195.437 314.146V262.9H76.5342ZM195.41 100.709V0.00552427C182.395 -0.13507 169.416 1.38273 156.787 4.52207C126.685 12.0624 99.6765 28.4171 76.5342 49.3048V100.704H82.5007V103.039H76.5342V182.587H195.41V103.044H106.998V100.709H195.41ZM348.1 66.6929C340.653 66.4305 333.25 64.0792 326.554 60.4485C313.749 53.5042 303.521 42.7815 292.092 33.732C268.347 14.8839 238.898 3.51049 208.687 0.689021V100.709H378.388L378.81 100.266L348.1 66.6929ZM363.559 63.9589L379.951 81.8939V59.2565C374.462 59.9345 369.652 61.5475 363.581 63.937L363.559 63.9589ZM379.951 343.99V262.9H345.024C344.93 262.556 344.837 262.206 344.727 261.856C344.832 262.206 344.919 262.556 345.018 262.9H208.709V321.544C210.003 322.501 211.281 323.507 212.547 324.53C213.913 325.623 215.262 326.777 216.617 327.909L217.982 329.035C218.635 329.582 219.293 330.129 219.956 330.643C221.272 331.707 222.601 332.757 223.943 333.792C224.607 334.339 225.287 334.831 225.961 335.345C236.67 343.509 247.966 350.876 259.759 357.387C262.402 358.845 265.069 360.268 267.76 361.657C269.553 362.57 271.357 363.478 273.167 364.358C275.887 365.682 278.629 366.957 281.393 368.186C306.875 379.591 333.82 387.418 361.459 391.441C367.597 392.345 373.76 393.056 379.945 393.574V343.985H380.494L379.951 343.99ZM208.709 103.044V182.587H379.973V103.044H208.709ZM208.709 184.921V260.565H379.973V184.921H208.709ZM393.266 59.158V84.4091L414.187 61.5202C407.256 60.4047 400.282 59.6082 393.266 59.1307V59.158ZM393.266 184.949V260.565H559.841V184.921L393.266 184.949ZM559.233 349.994L559.819 262.9H393.266V394.443C403.995 394.893 414.741 394.765 425.457 394.06H425.643C430.762 393.74 435.856 393.273 440.927 392.661H441.042C468.095 389.521 494.548 382.484 519.573 371.767L559.233 349.994ZM591.961 197.377C591.336 195.907 590.683 194.447 590.02 193.003C588.78 190.269 587.47 187.612 586.121 184.954H573.124V260.565H605.984C605.967 239.153 600.532 217.281 591.977 197.35L591.961 197.377ZM573.124 262.927V337.839C582.38 328.991 590.201 318.87 595.833 307.3C602.605 293.368 605.704 278.282 605.956 262.917L573.124 262.927ZM573.124 162.907V182.592H584.903C581.34 175.816 577.413 169.236 573.14 162.88L573.124 162.907ZM460.154 73.9981C459.287 73.67 458.421 73.3365 457.549 73.0139C448.353 69.6277 438.956 66.8118 429.411 64.5823L397.395 99.6156L396.781 100.266L397.193 100.715H511.138C495.269 89.8227 478.16 80.8454 460.17 73.9708L460.154 73.9981ZM514.478 103.071H395.602L393.266 105.204V182.587H413.743H413.776H559.863V145.104C546.648 129.168 531.395 115.027 514.495 103.044L514.478 103.071Z" fill="#DC5FEE"/>
<path opacity="0.1" d="M63.2466 143.168V182.586H7.76532C7.76532 182.357 7.80371 182.122 7.82016 181.892C7.86951 181.263 7.91887 180.634 7.97371 180.011C8.03403 179.278 8.09984 178.54 8.17113 177.824C8.24242 177.108 8.3192 176.233 8.40146 175.44C8.48372 174.647 8.56049 173.843 8.65372 173.05C8.74695 172.257 8.82921 171.465 8.92792 170.677C9.02663 169.89 9.11438 169.092 9.21857 168.304C9.30083 167.648 9.38857 166.997 9.47631 166.341C9.60245 165.417 9.73406 164.487 9.87665 163.569C9.87665 163.432 9.91503 163.29 9.93697 163.159C10.9379 156.434 12.3017 149.768 14.0225 143.19L63.2466 143.168Z" fill="#DC5FEE"/>
<path opacity="0.1" d="M7.58982 184.927H63.2466V260.565H11.6644C11.5273 261.342 11.3957 262.124 11.2531 262.906H63.2466V323.906C63.1534 323.879 63.0711 323.846 62.9833 323.813C61.5136 323.234 60.0549 322.621 58.5962 321.965L57.6639 321.544C56.2015 320.855 54.7391 320.126 53.2767 319.357C52.7667 319.089 52.2567 318.81 51.7522 318.526C43.6336 313.991 36.2584 308.245 29.8821 301.488C29.6957 301.307 29.5202 301.116 29.3337 300.941C28.4453 299.978 27.5734 299.005 26.7289 298.01L25.7966 296.916C24.7985 295.697 23.8333 294.445 22.8956 293.176C22.7585 292.99 22.6269 292.804 22.4843 292.629C18.6704 287.357 15.5037 281.648 13.0519 275.624C12.9751 275.444 12.9093 275.247 12.838 275.077C12.0848 273.145 11.4176 271.195 10.8363 269.226C10.5841 268.401 10.3428 267.586 10.1344 266.728C10.0576 266.476 9.9918 266.23 9.93147 265.984C6.81658 253.861 6.44916 241.269 6.44916 228.763C6.44916 227.304 6.44916 225.838 6.44916 224.389C6.44916 219.331 6.50948 214.241 6.59722 209.155C6.59722 207.838 6.65206 206.525 6.67948 205.202C6.75626 201.845 6.86594 198.487 7.00852 195.13C7.04143 194.195 7.0853 193.265 7.13465 192.336C7.13465 191.8 7.16207 191.264 7.21691 190.728C7.34853 188.782 7.45821 186.851 7.58982 184.927Z" fill="#DC5FEE"/>
<path opacity="0.1" d="M118.382 114.434V182.587H76.5342V114.434H82.5007V91.3589H106.992V114.434H118.382Z" fill="#DC5FEE"/>
<path opacity="0.1" d="M118.382 184.921H76.5397V260.56H118.382V184.921Z" fill="#DC5FEE"/>
<path opacity="0.1" d="M76.5342 262.906H118.382V325.787C113.446 327.201 108.416 328.267 103.329 328.975L102.078 329.128C101.464 329.199 100.856 329.259 100.252 329.32C99.6491 329.38 99.0239 329.423 98.4152 329.462H98.2233C97.96 329.462 97.6749 329.494 97.4171 329.5H97.1374C96.8084 329.5 96.4794 329.533 96.1503 329.544C95.6842 329.571 95.218 329.576 94.7409 329.582C94.538 329.582 94.3461 329.582 94.1432 329.582C93.6716 329.582 93.2054 329.582 92.7338 329.582H91.6973C91.4177 329.582 91.1489 329.582 90.8583 329.582L89.7999 329.544C89.2515 329.544 88.6592 329.484 88.0889 329.445L87.036 329.369L85.7253 329.248C84.804 329.166 83.8882 329.063 82.9833 328.937L81.8865 328.784L81.3381 328.707C80.4223 328.565 79.5175 328.412 78.5961 328.237C77.9216 328.122 77.2526 327.98 76.5726 327.843L76.5342 262.906Z" fill="#DC5FEE"/>
<path opacity="0.1" d="M379.973 106.385H345.468V182.581H379.973V106.385Z" fill="#DC5FEE"/>
<path opacity="0.1" d="M379.978 184.921V260.565H208.709V227.938H299.934V247.185H345.468V184.921H379.978Z" fill="#DC5FEE"/>
<path opacity="0.1" d="M380.521 344.007H379.973V393.628C373.794 393.107 367.634 392.398 361.492 391.501C333.84 387.465 306.883 379.622 281.393 368.197C274.034 364.894 266.824 361.289 259.764 357.381C247.972 350.867 236.674 343.5 225.961 335.34C223.27 333.284 220.614 331.18 217.993 329.03C216.178 327.537 214.374 326.006 212.548 324.519C211.281 323.496 210.003 322.49 208.709 321.528V262.906H345.013C344.919 262.556 344.826 262.206 344.727 261.861C344.832 262.206 344.93 262.556 345.024 262.906H379.973V343.974C380.159 343.979 380.34 343.996 380.521 344.007Z" fill="#DC5FEE"/>
<path opacity="0.1" d="M469.965 100.709H447.48V93.7429H457.56V72.9919C458.434 73.3091 459.304 73.6353 460.17 73.9707V93.7429H469.965V100.709Z" fill="#DC5FEE"/>
<path opacity="0.1" d="M524.135 182.587H413.754C413.754 182.587 413.754 182.587 413.793 182.614L413.743 182.587H393.266V106.39H399.068V162.71H425.583V129.356H447.486V103.049H469.97V129.378H491.873V162.732H524.135V182.587Z" fill="#DC5FEE"/>
<path opacity="0.1" d="M393.266 184.921V260.565H524.135V184.921H393.266ZM559.661 349.606L559.841 289.731H524.135V262.938H393.266V394.443C403.995 394.893 414.741 394.765 425.457 394.06H425.643C430.762 393.74 435.856 393.273 440.927 392.661H441.042C468.095 389.521 494.548 382.484 519.573 371.767" fill="#DC5FEE"/>
<path opacity="0.1" d="M575.449 262.906H605.978C605.709 278.265 602.616 293.351 595.849 307.284C590.217 318.859 582.392 328.98 573.146 337.822V289.704H575.449V262.906Z" fill="#DC5FEE"/>
<path opacity="0.1" d="M605.995 260.565H575.449V197.35H591.977C600.532 217.281 605.967 239.153 605.995 260.565Z" fill="#DC5FEE"/>
<path opacity="0.1" d="M379.978 127.568H361.492V151.457H379.978V127.568Z" fill="#DC5FEE"/>
<path opacity="0.1" d="M379.978 177.086H361.492V182.586H379.978V177.086Z" fill="#DC5FEE"/>
<path opacity="0.1" d="M379.978 184.921H361.492V200.97H379.978V184.921Z" fill="#DC5FEE"/>
<path opacity="0.1" d="M379.978 226.604H361.492V250.493H379.978V226.604Z" fill="#DC5FEE"/>
<path opacity="0.1" d="M379.978 276.122H361.492V300.011H379.978V276.122Z" fill="#DC5FEE"/>
<path opacity="0.1" d="M379.973 343.974C380.159 343.974 380.34 343.974 380.521 344.006H379.973V349.556H361.492V325.64H379.973V343.974Z" fill="#DC5FEE"/>
<path opacity="0.1" d="M379.973 375.147V393.601C373.794 393.08 367.634 392.371 361.492 391.474V375.147H379.973Z" fill="#DC5FEE"/>
<path opacity="0.1" d="M287.936 258.81H208.709V260.565H287.936V258.81Z" fill="#DC5FEE"/>
<path opacity="0.1" d="M287.936 262.9H208.709V269.626H287.936V262.9Z" fill="#DC5FEE"/>
<path opacity="0.1" d="M287.936 291.672H208.709V302.488H287.936V291.672Z" fill="#DC5FEE"/>
<path opacity="0.1" d="M287.93 324.535V335.351H225.961C223.27 333.302 220.613 331.199 217.988 329.041C216.172 327.548 214.374 326.017 212.542 324.535H287.93Z" fill="#DC5FEE"/>
<path opacity="0.1" d="M287.93 357.392V368.197H281.388C274.036 364.891 266.828 361.284 259.764 357.376L287.93 357.392Z" fill="#DC5FEE"/>
<path opacity="0.1" d="M441.059 192.254H425.462V207.805H441.059V192.254Z" fill="#DC5FEE"/>
<path opacity="0.1" d="M103.367 119.798H87.7709V135.349H103.367V119.798Z" fill="#DC5FEE"/>
<path opacity="0.1" d="M103.367 155.919H87.7709V171.47H103.367V155.919Z" fill="#DC5FEE"/>
<path opacity="0.1" d="M103.367 192.041H87.7709V207.592H103.367V192.041Z" fill="#DC5FEE"/>
<path opacity="0.1" d="M103.367 228.157H87.7709V243.708H103.367V228.157Z" fill="#DC5FEE"/>
<path opacity="0.1" d="M103.367 264.278H87.7709V279.829H103.367V264.278Z" fill="#DC5FEE"/>
<path opacity="0.1" d="M103.367 300.399H87.7709V315.95H103.367V300.399Z" fill="#DC5FEE"/>
<path opacity="0.1" d="M500.598 192.254H485.002V207.805H500.598V192.254Z" fill="#DC5FEE"/>
<path opacity="0.1" d="M441.059 230.612H425.462V246.163H441.059V230.612Z" fill="#DC5FEE"/>
<path opacity="0.1" d="M500.598 230.612H485.002V246.163H500.598V230.612Z" fill="#DC5FEE"/>
<path opacity="0.1" d="M441.059 268.964H425.462V284.515H441.059V268.964Z" fill="#DC5FEE"/>
<path opacity="0.1" d="M500.598 268.964H485.002V284.515H500.598V268.964Z" fill="#DC5FEE"/>
<path opacity="0.1" d="M441.059 307.322H425.462V322.873H441.059V307.322Z" fill="#DC5FEE"/>
<path opacity="0.1" d="M500.598 307.322H485.002V322.873H500.598V307.322Z" fill="#DC5FEE"/>
<path opacity="0.1" d="M441.059 345.68H425.462V361.231H441.059V345.68Z" fill="#DC5FEE"/>
<path opacity="0.1" d="M500.598 345.68H485.002V361.231H500.598V345.68Z" fill="#DC5FEE"/>
<path opacity="0.1" d="M425.462 394.06V384.032H441.053V392.633L425.462 394.06Z" fill="#DC5FEE"/>
<path opacity="0.1" d="M9.87115 163.148V172.044H63.2466V163.148H9.87115ZM15.1906 171.486H10.8363V163.695H15.2235L15.1906 171.486ZM20.5046 171.486H16.1174V163.695H20.5046V171.486ZM25.8076 171.486H21.4204V163.695H25.8076V171.486ZM31.1215 171.486H26.7398V163.695H31.127L31.1215 171.486ZM36.43 171.486H32.0428V163.695H36.43V171.486ZM41.744 171.486H37.3568V163.695H41.744V171.486ZM47.0579 171.486H42.6707V163.695H47.0579V171.486ZM52.3664 171.486H47.9792V163.695H52.3664V171.486ZM57.6749 171.486H53.2877V163.695H57.6749V171.486ZM62.9833 171.486H58.5962V163.695H62.9833V171.486Z" fill="#DC5FEE"/>
<path opacity="0.1" d="M9.87115 189.033V197.93H63.2466V189.033H9.87115ZM15.1906 197.366H10.8363V189.596H15.2235L15.1906 197.366ZM20.5046 197.366H16.1174V189.596H20.5046V197.366ZM25.8076 197.366H21.4204V189.596H25.8076V197.366ZM31.1215 197.366H26.7398V189.596H31.127L31.1215 197.366ZM36.43 197.366H32.0428V189.596H36.43V197.366ZM41.744 197.366H37.3568V189.596H41.744V197.366ZM47.0579 197.366H42.6707V189.596H47.0579V197.366ZM52.3664 197.366H47.9792V189.596H52.3664V197.366ZM57.6749 197.366H53.2877V189.596H57.6749V197.366ZM62.9833 197.366H58.5962V189.596H62.9833V197.366Z" fill="#DC5FEE"/>
<path opacity="0.1" d="M9.87115 214.93V223.842H63.2466V214.93H9.87115ZM15.1906 223.263H10.8363V215.487H15.2235L15.1906 223.263ZM20.5046 223.263H16.1174V215.487H20.5046V223.263ZM25.8076 223.263H21.4204V215.487H25.8076V223.263ZM31.1215 223.263H26.7398V215.487H31.127L31.1215 223.263ZM36.43 223.263H32.0428V215.487H36.43V223.263ZM41.744 223.263H37.3568V215.487H41.744V223.263ZM47.0579 223.263H42.6707V215.487H47.0579V223.263ZM52.3664 223.263H47.9792V215.487H52.3664V223.263ZM57.6749 223.263H53.2877V215.487H57.6749V223.263ZM62.9833 223.263H58.5962V215.487H62.9833V223.263Z" fill="#DC5FEE"/>
<path opacity="0.1" d="M9.87115 240.826V249.711H63.2466V240.826H9.87115ZM15.1906 249.159H10.8363V241.378H15.2235L15.1906 249.159ZM20.5046 249.159H16.1174V241.378H20.5046V249.159ZM25.8076 249.159H21.4204V241.378H25.8076V249.159ZM31.1215 249.159H26.7398V241.378H31.127L31.1215 249.159ZM36.43 249.159H32.0428V241.378H36.43V249.159ZM41.744 249.159H37.3568V241.378H41.744V249.159ZM47.0579 249.159H42.6707V241.378H47.0579V249.159ZM52.3664 249.159H47.9792V241.378H52.3664V249.159ZM57.6749 249.159H53.2877V241.378H57.6749V249.159ZM62.9833 249.159H58.5962V241.378H62.9833V249.159Z" fill="#DC5FEE"/>
<path opacity="0.1" d="M10.1014 266.717C10.3153 267.553 10.5566 268.39 10.8089 269.216V267.274H15.196V275.05H12.8489C12.9202 275.23 12.9915 275.427 13.0628 275.597H63.2465V266.717H10.1014ZM20.521 275.05H16.1338V267.274H20.521V275.05ZM25.824 275.05H21.4368V267.274H25.824V275.05ZM31.1379 275.05H26.7398V267.274H31.127L31.1379 275.05ZM36.4464 275.05H32.0592V267.274H36.4464V275.05ZM41.7604 275.05H37.3732V267.274H41.7604V275.05ZM47.0743 275.05H42.6872V267.274H47.0743V275.05ZM52.3828 275.05H47.9956V267.274H52.3828V275.05ZM57.6913 275.05H53.3041V267.274H57.6913V275.05ZM62.9998 275.05H58.6126V267.274H62.9998V275.05Z" fill="#DC5FEE"/>
<path opacity="0.1" d="M22.4952 292.613C22.6323 292.788 22.764 292.985 22.9065 293.16H25.8076V296.894C26.1201 297.266 26.4272 297.638 26.7453 297.988V293.138H31.1325V300.941H29.3557C29.5312 301.121 29.7012 301.313 29.9041 301.488H63.263V292.613H22.4952ZM36.43 300.941H32.0428V293.171H36.43V300.941ZM41.744 300.941H37.3568V293.171H41.744V300.941ZM47.0579 300.941H42.6707V293.171H47.0579V300.941ZM52.3664 300.941H47.9792V293.171H52.3664V300.941ZM57.6749 300.941H53.2877V293.171H57.6749V300.941ZM62.9833 300.941H58.5962V293.171H62.9833V300.941Z" fill="#DC5FEE"/>
<path opacity="0.1" d="M51.7741 318.504C52.2731 318.788 52.7832 319.051 53.2987 319.335V319.062H57.6858V321.522L58.6181 321.954V319.062H63.0053V323.791C63.0894 323.833 63.1776 323.866 63.2685 323.89V318.504H51.7741Z" fill="#DC5FEE"/>
<path opacity="0.1" d="M413.754 182.587H413.787H413.754ZM379.973 343.968H380.521H379.973ZM344.727 261.856C344.832 262.206 344.919 262.556 345.018 262.9C344.93 262.556 344.837 262.206 344.727 261.856ZM413.754 182.57H413.787H413.754ZM82.5227 100.693V103.028H107.02V100.693H82.5227ZM379.973 343.968H380.521H379.973ZM344.727 261.856C344.832 262.206 344.919 262.556 345.018 262.9C344.93 262.556 344.837 262.206 344.727 261.856ZM413.754 182.57H413.787H413.754ZM379.973 343.952H380.521H379.973ZM344.727 261.856C344.832 262.206 344.919 262.556 345.018 262.9C344.93 262.556 344.837 262.206 344.727 261.856Z" fill="#DC5FEE"/>
<path opacity="0.1" d="M247.744 415.653C247.763 415.917 247.735 416.181 247.661 416.435C247.661 416.435 228.901 419.557 225.062 416.435C223.98 415.524 222.72 414.848 221.361 414.45C220.002 414.053 218.575 413.943 217.17 414.128C217.17 414.128 209.904 414.325 208.698 411.941C208.193 410.934 208.319 408.999 208.632 407.085C211.429 407.364 215.843 408.058 217.576 409.715C220.198 412.236 224.64 414.751 227.365 414.948C229.498 415.085 242.26 415.489 247.744 415.653Z" fill="black"/>
<path opacity="0.1" d="M182.331 406.095L182.161 406.281C175.405 398.134 167.234 408.288 167.234 408.288L167.113 408.075L167.53 403.46L180.346 400.141L182.161 405.674L182.331 406.095Z" fill="black"/>
<path opacity="0.1" d="M207.886 131.98C207.502 132.954 207.442 134.643 207.546 136.535C204.519 138.353 201.039 139.282 197.506 139.216C193.973 139.151 190.53 138.092 187.573 136.163C187.411 133.476 187.087 130.801 186.603 128.153C186.603 128.153 209.202 128.65 207.886 131.98Z" fill="black"/>
<path opacity="0.1" d="M190.738 336.16C190.37 337.066 190.091 338.005 189.904 338.965C182.051 337.756 174.424 335.38 167.277 331.917L167.129 331.84L167.179 330.96L167.206 330.501L169.948 325.404C169.948 325.404 192.054 332.95 190.738 336.16Z" fill="black"/>
<path opacity="0.1" d="M210.211 338.987C208.204 339.327 206.179 339.557 204.146 339.676C204.025 336.942 203.954 335.061 203.954 335.061L210.052 333.836L210.211 338.987Z" fill="black"/>
<path opacity="0.1" d="M226.224 335.706C222.325 336.718 216.304 337.855 210.913 337.144L210.836 333.677L225.544 330.736C225.544 330.736 225.95 333.442 226.224 335.706Z" fill="black"/>
<path opacity="0.1" d="M200.225 181.088C201.043 181.088 201.706 180.427 201.706 179.612C201.706 178.797 201.043 178.136 200.225 178.136C199.407 178.136 198.744 178.797 198.744 179.612C198.744 180.427 199.407 181.088 200.225 181.088Z" fill="black"/>
<path opacity="0.1" d="M202.951 244.998C203.768 244.998 204.431 244.337 204.431 243.522C204.431 242.706 203.768 242.045 202.951 242.045C202.133 242.045 201.47 242.706 201.47 243.522C201.47 244.337 202.133 244.998 202.951 244.998Z" fill="black"/>
<path opacity="0.1" d="M201.7 213.043C202.518 213.043 203.181 212.382 203.181 211.567C203.181 210.751 202.518 210.09 201.7 210.09C200.882 210.09 200.22 210.751 200.22 211.567C200.22 212.382 200.882 213.043 201.7 213.043Z" fill="black"/>
<path opacity="0.1" d="M171.599 393.656C171.599 393.656 176.896 390.337 180.373 392.748C183.85 395.159 171.599 393.656 171.599 393.656Z" fill="black"/>
<path opacity="0.1" d="M72.7886 415.888C102.3 415.888 126.224 412.057 126.224 407.331C126.224 402.605 102.3 398.774 72.7886 398.774C43.2769 398.774 19.3529 402.605 19.3529 407.331C19.3529 412.057 43.2769 415.888 72.7886 415.888Z" fill="#DC5FEE"/>
<path d="M548.215 257.935C548.215 257.935 539.161 213.021 542.627 207.433C542.627 207.433 542.753 202.238 542.545 195.617C542.545 195.365 542.545 195.114 542.545 194.857C543.155 195.262 543.791 195.627 544.448 195.95C547.641 197.586 551.307 198.058 554.813 197.284L552.071 194.239C551.413 193.511 550.727 192.724 550.585 191.762C550.442 190.799 550.837 189.941 551.177 189.082C553.782 182.521 553.919 174.27 548.901 169.261C544.662 165.051 543.631 159.616 539.03 155.772C535.668 152.956 533.82 148.827 532.076 144.836C530.601 141.462 529.115 138.061 528.27 134.485C527.612 131.691 527.349 128.798 526.444 126.07C525.539 123.341 523.845 120.689 521.196 119.47C520.253 119.038 519.205 118.792 518.344 118.218C517.215 117.457 516.535 116.222 515.717 115.139C511.566 109.671 497.664 112.892 491.083 115.112C489.294 115.671 487.638 116.586 486.214 117.802L486.274 117.704C486.323 117.622 486.384 117.539 486.439 117.457C485.718 118.038 485.096 118.731 484.596 119.508C483.636 121.023 483.236 122.789 482.435 124.429C481.47 126.37 476.101 131.789 478.41 133.971C478.572 134.117 478.757 134.236 478.958 134.321C479.825 134.68 480.779 134.776 481.7 134.594L481.602 134.829C480.813 136.754 480.409 138.814 480.412 140.893C480.412 149.877 487.842 157.16 497.017 157.16C498.742 157.162 500.457 156.898 502.101 156.378C502.139 156.586 502.172 156.794 502.21 157.002C502.21 157.084 502.238 157.166 502.249 157.248L501.958 157.653C501.944 157.628 501.927 157.604 501.909 157.581L493.299 169.578C491.983 170.502 484.404 175.97 483.976 180.071C483.527 184.56 483.077 189.815 483.077 189.815L483.017 190.942C482.64 191.255 482.2 191.483 481.727 191.611C481.253 191.738 480.758 191.762 480.275 191.68C477.587 191.242 477.587 201.522 477.587 201.522C477.587 201.522 475.8 203.162 474.571 201.741C473.343 200.319 470.096 205.136 470.096 205.136L449.751 206.011L449.285 206.039L448.188 202.654C448.07 202.297 447.815 202.001 447.48 201.83C447.144 201.659 446.754 201.627 446.395 201.741C446.31 201.769 446.227 201.803 446.148 201.845L446.071 201.888L445.929 201.987L445.857 202.052C445.818 202.088 445.781 202.126 445.748 202.167L445.682 202.244L445.649 202.277C445.522 202.451 445.438 202.653 445.404 202.866C445.37 203.078 445.386 203.296 445.451 203.501L446.395 206.405C442.468 207.192 438.454 209.412 441.728 215.526L425.133 212.469L430.502 216.964L458.218 222.667C457.851 223.323 458.092 224.274 459.238 225.614C464.174 231.394 473.167 232.963 476.787 233.368C477.743 235.499 478.937 237.517 480.346 239.382L480.033 245.14C480.033 245.14 470.87 289.026 469.192 291.251C470.039 290.294 470.814 289.276 471.511 288.206C468.852 297.223 465.133 309.564 464.157 311.412C462.589 314.365 461.136 326.312 462.923 327.078C463.472 327.313 465.04 327.198 467.278 327.028V328.018L467.179 365.523C467.179 365.523 467.629 388.527 466.395 390.719C465.161 392.912 464.832 397.511 464.832 397.511C464.832 397.511 459.896 406.582 455.986 410.229C455.959 410.257 455.93 410.283 455.898 410.306L455.778 409.453C455.778 409.453 451.078 415.369 440.68 415.035C440.68 415.035 434.423 419.093 443.702 419.311C452.981 419.53 464.832 418.983 464.832 418.983C464.832 418.983 473.107 406.407 480.039 408.047V417.578H482.161V407.894C483.145 407.248 483.988 406.41 484.637 405.429C485.287 404.449 485.73 403.347 485.94 402.191C486.121 400.999 485.988 399.781 485.553 398.656C485.119 397.532 484.397 396.539 483.461 395.777C483.04 395.398 482.702 394.936 482.469 394.42C482.236 393.905 482.113 393.346 482.106 392.781L482.029 392.846C482.029 392.655 481.98 392.458 481.958 392.256C481.349 387.335 480.587 377.181 483.28 369.668C486.971 359.366 488.089 345.018 485.402 336.477C484.535 333.747 483.823 330.97 483.269 328.16C483.203 327.805 483.143 327.466 483.088 327.149C484.925 327.396 486.744 327.762 488.533 328.242C494.758 329.954 508.374 330.271 520 330.178C520.028 330.495 520.061 330.829 520.099 331.162C520.306 333.481 520.74 335.773 521.393 338.008C522.852 342.382 523.521 361.668 523.521 361.668C523.521 361.668 525.402 377.525 524.377 383.977C523.828 387.564 523.28 391.168 522.967 394.788V394.859C522.967 394.859 519.885 403.607 517.631 408.359C517.577 408.479 517.516 408.6 517.461 408.714C516.86 408.769 516.269 408.9 515.701 409.103C515.701 409.103 512.679 415.117 509.669 416.113C506.658 417.108 507.656 420.383 514.473 419.18C521.289 417.977 531.583 416.993 531.583 416.993L532.027 410.858L534.122 408.244L533.573 414.363L535.805 413.925L535.509 406.484L538.937 402.208C538.937 402.208 543.077 398.533 536.924 391.304V391.463C536.858 391.359 536.798 391.25 536.727 391.146V391.113C535.707 389.538 534.895 386.602 536.381 381.391C539.068 371.975 540.631 363.429 540.631 363.429C540.631 363.429 546.631 340.534 539.419 329.702H539.737C538.998 328.178 538.476 326.558 538.185 324.89C538.149 324.694 538.116 324.491 538.087 324.283C543.422 323.977 548.66 323.015 552.932 320.937C552.915 320.915 550.343 266.585 548.215 257.935ZM480.472 220.042V220.151L479.375 220.206L480.472 220.042ZM476.71 220.562C476.53 220.601 476.361 220.682 476.216 220.797C475.745 221.462 475.449 222.235 475.355 223.044L473.644 222.661C473.644 222.661 472.444 222.404 470.716 222.114L469.899 221.294C472.147 221.108 474.484 220.835 476.71 220.562Z" fill="url(#paint0_linear_72_216)"/>
<path d="M533.321 406.56L532.668 414.308L534.856 413.871L534.527 405.467L533.321 406.56Z" fill="black"/>
<path d="M483.4 369.772C480.763 377.263 481.508 387.373 482.101 392.283C482.32 394.099 482.523 395.203 482.523 395.203C482.523 395.203 478.58 404.16 478.251 404.499C477.922 404.838 466.647 411.7 466.647 411.7L458.766 416.288C458.766 416.288 450.771 412.794 454.604 411.591C455.387 411.277 456.093 410.798 456.672 410.185C460.51 406.549 465.331 397.511 465.331 397.511C465.331 397.511 465.66 392.923 466.866 390.741C468.073 388.559 467.634 365.632 467.634 365.632L467.727 328.259V323.387L482.726 323.496C482.821 325.15 483.037 326.795 483.373 328.417C483.911 331.218 484.609 333.985 485.462 336.707C488.106 345.231 487.009 359.508 483.4 369.772Z" fill="url(#paint1_linear_72_216)"/>
<path opacity="0.1" d="M482.523 395.203C482.523 395.203 478.58 404.16 478.251 404.499C477.922 404.838 466.647 411.7 466.647 411.7L458.766 416.288C458.766 416.288 450.771 412.794 454.604 411.591C455.387 411.277 456.093 410.798 456.672 410.185L457.012 412.575L459.638 412.466L482.123 392.294C482.32 394.099 482.523 395.203 482.523 395.203Z" fill="black"/>
<path d="M482.249 392.803L459.638 413.111L457.012 413.22L456.463 409.393C456.463 409.393 451.868 415.287 441.657 414.959C441.657 414.959 435.525 419 444.612 419.219C453.699 419.437 465.303 418.89 465.303 418.89C465.303 418.89 473.409 406.314 480.192 407.954V417.452H482.276V407.867C483.245 407.217 484.072 406.378 484.707 405.4C485.342 404.423 485.773 403.328 485.972 402.18C486.153 400.998 486.025 399.79 485.602 398.671C485.178 397.553 484.473 396.562 483.554 395.794C483.144 395.41 482.816 394.947 482.592 394.433C482.367 393.918 482.251 393.364 482.249 392.803Z" fill="#0B0038"/>
<path d="M535.405 381.451C533.946 386.646 534.741 389.571 535.739 391.14V391.173C537.02 393.111 537.91 395.278 538.361 397.554L538.448 398.046L528.161 413.001L522.578 415.189C522.578 415.189 513.601 412.132 515.24 411.257C515.652 411.044 516.293 409.906 517.028 408.337C519.222 403.607 522.249 394.88 522.249 394.88V394.809C522.567 391.206 523.071 387.614 523.631 384.037C524.634 377.602 522.792 361.805 522.792 361.805C522.792 361.805 522.134 342.596 520.708 338.227C520.064 336.006 519.636 333.728 519.43 331.425C519.134 328.691 519.068 326.438 519.068 326.438C519.068 326.438 524.98 318.236 535.816 327.094C536.683 327.801 537.445 328.625 538.081 329.544C545.567 340.162 539.54 363.554 539.54 363.554C539.54 363.554 538.032 372.063 535.405 381.451Z" fill="url(#paint2_linear_72_216)"/>
<path opacity="0.1" d="M538.465 398.046L528.177 413.001L522.594 415.189C522.594 415.189 513.617 412.132 515.257 411.257C515.668 411.044 516.31 409.906 517.045 408.337C520.845 408.304 522.814 411.913 522.814 411.913L527.629 411.148C527.629 411.148 533.979 398.703 535.405 397.943C536.831 397.183 535.624 392.261 535.624 392.261V391.009C535.663 391.053 535.696 391.102 535.739 391.146V391.179C537.02 393.116 537.91 395.284 538.361 397.56L538.465 398.046Z" fill="black"/>
<path d="M523.143 412.236C523.143 412.236 520.401 407.216 515.147 409.07C515.147 409.07 512.191 415.085 509.235 416.058C506.28 417.031 507.267 420.312 513.946 419.115C520.626 417.917 530.694 416.927 530.694 416.927L531.133 410.809L537.922 402.186C537.922 402.186 541.969 398.528 535.948 391.326V392.578C535.948 392.578 537.154 397.5 535.728 398.26C534.303 399.02 527.974 411.47 527.974 411.47L523.143 412.236Z" fill="#0B0038"/>
<path opacity="0.1" d="M482.742 323.485C482.837 325.139 483.053 326.784 483.39 328.406C477.215 327.504 471.484 327.953 467.727 328.248V323.376L482.742 323.485Z" fill="black"/>
<path opacity="0.1" d="M538.69 330.905C538.69 330.905 529.915 331.332 519.452 331.419C519.156 328.685 519.09 326.432 519.09 326.432C519.09 326.432 525.002 318.23 535.838 327.089C536.705 327.795 537.467 328.62 538.103 329.538C538.273 330.004 538.469 330.461 538.69 330.905Z" fill="black"/>
<path d="M538.69 329.921C538.69 329.921 500.258 331.775 488.544 328.499C476.831 325.224 465.221 328.062 463.472 327.302C461.722 326.542 463.143 314.638 464.678 311.691C466.214 308.744 474.637 278.938 474.637 278.938L482.742 236.801L491.281 234.456L491.884 234.286L506.762 230.196L517.664 227.194C517.664 227.194 539.342 311.581 537.483 317.804C536.808 320.187 536.699 322.694 537.165 325.126C537.449 326.786 537.962 328.4 538.69 329.921Z" fill="#0B0038"/>
<path d="M454.489 207.985C454.489 207.985 446.811 216.187 452.624 220.758C458.437 225.33 462.26 221.196 462.26 221.196L454.489 207.985Z" fill="#C7DAF5"/>
<path opacity="0.1" d="M454.489 207.985C454.489 207.985 446.811 216.187 452.624 220.758C458.437 225.33 462.26 221.196 462.26 221.196L454.489 207.985Z" fill="black"/>
<path d="M516.518 154.06C516.518 154.06 515.619 154.913 514.264 156.171C512.334 157.97 509.477 160.6 506.943 162.803C503.433 165.849 500.538 168.085 501.574 166.177C502.611 164.269 502.413 160.944 501.898 157.833C501.86 157.625 501.827 157.417 501.788 157.215C501.361 154.93 500.795 152.673 500.094 150.457C500.094 150.457 505.764 143.151 508.901 140.27C510.069 139.176 510.886 138.728 510.935 139.488C510.99 140.51 511.758 142.769 512.712 145.164C512.74 145.24 512.767 145.311 512.8 145.388C513.436 147.028 514.155 148.712 514.785 150.167C515.75 152.398 516.518 154.06 516.518 154.06Z" fill="url(#paint3_linear_72_216)"/>
<path opacity="0.1" d="M512.8 145.388C512.267 148.246 510.974 150.908 509.056 153.098C507.139 155.287 504.666 156.922 501.898 157.833C501.462 155.337 500.859 152.873 500.094 150.457C500.094 150.457 510.771 136.705 510.935 139.488C510.974 140.543 511.807 142.884 512.8 145.388Z" fill="black"/>
<path opacity="0.1" d="M500.834 161.508L502.216 159.566C502.216 159.566 503.132 165.133 506.499 162.678C509.866 160.223 510.031 181.154 510.031 181.154L506.417 235.03L480.302 233.471L481.042 207.438L483.998 194.315L491.308 175.238L495.657 168.933L500.834 161.508Z" fill="black"/>
<path d="M510.031 181.487L506.74 230.202L506.395 235.363L491.835 234.494L491.286 234.461L480.318 233.805L481.059 207.767L484.015 194.643L491.325 175.566L495.674 169.261L500.85 161.808L502.232 159.873C502.232 159.873 503.148 165.439 506.515 162.984L506.587 162.935C509.877 160.857 510.031 181.487 510.031 181.487Z" fill="#1D2366"/>
<path d="M484.382 190.083C484.382 190.083 483.071 192.817 480.439 192.374C477.807 191.931 477.812 202.217 477.812 202.217C477.812 202.217 476.063 203.857 474.856 202.435C473.65 201.014 470.469 205.82 470.469 205.82L450.541 206.695C450.541 206.695 459.408 210.736 457.67 222.962C457.67 222.962 487.777 221.103 488.764 218.265C489.751 215.427 484.382 190.083 484.382 190.083Z" fill="white"/>
<path opacity="0.03" d="M484.382 190.083C484.382 190.083 483.071 192.817 480.439 192.374C477.807 191.931 477.812 202.217 477.812 202.217C477.812 202.217 476.063 203.857 474.856 202.435C473.65 201.014 470.469 205.82 470.469 205.82L450.541 206.695C450.541 206.695 459.408 210.736 457.67 222.962C457.67 222.962 487.777 221.103 488.764 218.265C489.751 215.427 484.382 190.083 484.382 190.083Z" fill="black"/>
<path d="M426.466 213.12L431.72 217.592L474.966 226.653L469.603 221.196L426.466 213.12Z" fill="white"/>
<path d="M500.916 163.23C500.198 164.323 498.141 169.923 496.425 174.811C494.994 178.885 493.798 182.466 493.798 182.466C493.798 182.466 491.007 200.587 489.581 203.862C488.155 207.138 488.928 219.911 488.928 219.911L483.614 251.456C483.614 251.456 481.207 267.723 477.489 277.439C473.82 287.003 469.734 291.487 469.608 291.629C471.253 289.409 480.22 245.698 480.22 245.698L483.181 190.57C483.181 190.57 483.614 185.331 484.053 180.853C484.492 176.375 493.376 170.262 493.376 170.262L501.942 158.117C502.803 159.266 502.227 161.267 500.916 163.23Z" fill="white"/>
<path d="M478.58 234.078C478.58 234.078 465.967 233.532 459.858 226.215C453.749 218.899 473.979 223.296 473.979 223.296L479.238 224.499L478.58 234.078Z" fill="url(#paint4_linear_72_216)"/>
<path opacity="0.1" d="M537.483 317.809C536.808 320.192 536.699 322.699 537.165 325.131C523.406 326.104 508.687 322.397 508.687 322.397C505.945 324.912 498.723 328.62 498.723 328.62L494.785 279.955C492.268 273.393 491.281 239.016 491.281 239.016C491.281 239.016 491.506 237.217 491.829 234.521C491.829 234.456 491.829 234.385 491.857 234.319C492.838 226.79 494.785 212.655 495.739 210.747C497.056 208.122 491.692 201.139 491.692 201.139L494.133 180.388L494.429 177.884C499.573 175.593 503.516 168.277 503.516 168.277L506.543 162.989C509.833 160.884 510.003 181.515 510.003 181.515L506.713 230.229L517.615 227.227C517.615 227.227 539.342 311.587 537.483 317.809Z" fill="black"/>
<path d="M551.605 321.172C536.606 328.598 509.345 321.719 509.345 321.719C506.603 324.234 499.381 327.942 499.381 327.942L495.438 279.277C492.926 272.715 491.939 238.338 491.939 238.338C491.939 238.338 495.109 212.688 496.425 210.069C496.809 209.303 496.622 208.166 496.167 206.941C493.929 201.111 493.106 194.836 493.765 188.629L494.818 179.71L495.109 177.212C500.258 174.915 504.201 167.599 504.201 167.599L506.943 162.809L511.988 153.984L514.379 149.806L514.785 150.172L517.884 152.972C517.884 152.972 519.2 154.066 521.174 155.706C525.468 159.315 532.888 165.669 536.716 169.556C540.083 172.979 541.147 186.294 541.454 196.317C541.657 202.916 541.536 208.089 541.536 208.089C538.141 213.661 547.02 258.394 547.02 258.394C549.087 267.039 551.605 321.172 551.605 321.172Z" fill="white"/>
<path opacity="0.03" d="M522.814 167.489C522.814 167.489 512.52 187.026 513.716 194.452C514.911 201.877 518.311 210.282 516.672 212.245C516.108 212.988 515.38 213.592 514.544 214.009C513.708 214.425 512.786 214.643 511.851 214.645C510.206 214.755 505.819 217.811 505.819 218.139C505.819 218.467 501.766 218.467 498.141 219.998C494.516 221.529 489.164 222.399 489.164 222.399C489.164 222.399 478.745 222.071 477.774 223.055C476.803 224.039 475.805 229.928 477.884 234.625C479.962 239.322 482.271 242.827 484.015 243.467C485.759 244.107 496.825 240.41 505.802 239.535C514.78 238.661 524.525 231.569 524.525 231.569C524.525 231.569 535.257 227.741 537.138 221.305C539.019 214.869 534.84 179.497 534.84 179.497C534.84 179.497 531.681 163.011 522.814 167.489Z" fill="black"/>
<path opacity="0.03" d="M521.498 165.849C521.498 165.849 511.204 185.392 512.411 192.812C513.617 200.232 517.006 208.641 515.361 210.61C514.8 211.354 514.073 211.959 513.237 212.375C512.401 212.792 511.48 213.009 510.546 213.01C508.901 213.12 504.514 216.176 504.514 216.504C504.514 216.832 500.461 216.832 496.836 218.358C493.211 219.884 487.859 220.758 487.859 220.758C487.859 220.758 477.439 220.43 476.474 221.415C475.509 222.399 474.5 228.293 476.584 232.985C478.668 237.676 480.971 241.187 482.715 241.827C484.459 242.466 495.526 238.77 504.503 237.901C513.48 237.031 523.225 229.928 523.225 229.928C523.225 229.928 533.952 226.101 535.811 219.67C537.67 213.24 533.513 177.857 533.513 177.857C533.513 177.857 530.365 161.376 521.498 165.849Z" fill="black"/>
<path d="M522.49 166.505C522.49 166.505 512.197 186.048 513.403 193.468C514.61 200.888 517.999 209.298 516.359 211.261C515.798 212.007 515.07 212.613 514.233 213.03C513.397 213.448 512.474 213.666 511.539 213.666C509.894 213.776 505.506 216.832 505.506 217.155C505.506 217.478 501.459 217.483 497.829 219.014C494.198 220.545 488.852 221.415 488.852 221.415C488.852 221.415 478.432 221.087 477.461 222.071C476.491 223.055 475.493 228.949 477.571 233.641C479.649 238.333 481.958 241.843 483.702 242.483C485.446 243.122 496.513 239.426 505.49 238.551C514.467 237.676 524.212 230.584 524.212 230.584C524.212 230.584 534.944 226.757 536.825 220.321C538.706 213.885 534.555 178.513 534.555 178.513C534.555 178.513 531.352 162.054 522.49 166.505Z" fill="white"/>
<path opacity="0.1" d="M522.265 218.921C522.265 218.921 514.039 217.281 516.902 220.015C519.765 222.749 519.748 225.144 523.252 225.034C526.757 224.925 522.265 218.921 522.265 218.921Z" fill="black"/>
<path opacity="0.1" d="M536.167 277.746C536.167 277.746 532.449 280.255 539.562 286.041C546.674 291.826 536.167 277.746 536.167 277.746Z" fill="black"/>
<path opacity="0.1" d="M529.071 298.376C529.071 298.704 527.755 310.406 532.679 313.331C537.604 316.256 529.071 298.376 529.071 298.376Z" fill="black"/>
<path d="M450.881 206.667C446.91 206.804 438.333 208.013 442.781 216.286C446.713 223.607 453.321 218.713 457.039 215.001C456.132 211.539 453.928 208.556 450.881 206.667Z" fill="url(#paint5_linear_72_216)"/>
<path d="M457.088 214.935L457.253 214.766L457.088 214.935Z" fill="#FFB0B1"/>
<path opacity="0.1" d="M521.174 156.04C516.962 158.91 513.431 161.333 512.74 161.836C510.853 163.23 507.256 171.415 504.936 175.593C503.088 178.956 497.083 179.82 494.818 180.033L495.109 177.534C500.258 175.238 504.201 167.921 504.201 167.921L514.379 150.129L517.884 153.306C517.884 153.306 519.2 154.399 521.174 156.04Z" fill="black"/>
<path d="M521.174 155.711C516.962 158.582 513.431 161.004 512.74 161.513C510.853 162.902 507.256 171.087 504.936 175.265C503.088 178.628 497.083 179.492 494.818 179.705L495.109 177.206C500.258 174.909 504.201 167.593 504.201 167.593L514.379 149.801L517.884 152.966C517.884 152.966 519.2 154.049 521.174 155.711Z" fill="#DCE7FF"/>
<path d="M513.069 141.779C513.071 145.061 512.073 148.267 510.206 150.971C508.002 154.167 504.721 156.47 500.959 157.462C497.197 158.453 493.204 158.067 489.703 156.373C486.203 154.68 483.427 151.791 481.879 148.232C480.332 144.672 480.116 140.677 481.27 136.972C482.423 133.267 484.871 130.097 488.168 128.038C491.466 125.978 495.394 125.166 499.241 125.747C503.088 126.329 506.599 128.266 509.136 131.207C511.673 134.149 513.068 137.9 513.069 141.779Z" fill="url(#paint6_linear_72_216)"/>
<path opacity="0.1" d="M541.454 196.322C539.227 194.956 537.413 193.013 536.206 190.701C535.29 188.897 534.681 186.813 533.118 185.534C531.709 184.385 529.828 184.107 528.073 183.593C522.304 181.892 517.467 176.643 517.286 170.65C517.198 167.828 518.081 165.012 517.681 162.218C517.453 160.637 516.822 159.14 515.849 157.871C515.366 157.264 514.836 156.696 514.264 156.171C513.496 155.449 512.69 154.749 511.988 153.984C511.546 153.51 511.16 152.987 510.837 152.425C510.576 151.966 510.365 151.48 510.206 150.976C509.109 147.63 510.107 143.66 508.901 140.275L508.835 140.089C508.38 138.886 507.453 137.683 506.164 137.591C504.876 137.498 503.773 138.564 502.545 139.04C499.973 140.035 497.198 138.34 495.054 136.612C492.91 134.884 490.491 132.91 487.766 133.293C485.961 133.55 484.536 134.775 482.874 135.409C482.499 135.554 482.112 135.665 481.717 135.742C483.123 132.246 485.707 129.346 489.024 127.543C492.341 125.739 496.185 125.143 499.894 125.858C503.604 126.573 506.948 128.554 509.352 131.46C511.757 134.367 513.071 138.017 513.069 141.784C513.071 142.922 512.951 144.057 512.712 145.169C512.74 145.246 512.767 145.317 512.8 145.393C513.436 147.034 514.155 148.718 514.785 150.172L517.884 152.972C517.884 152.972 519.2 154.066 521.174 155.706C525.468 159.315 532.888 165.669 536.716 169.556C540.083 172.99 541.136 186.299 541.454 196.322Z" fill="black"/>
<path d="M482.682 125.419C483.466 123.828 483.856 122.045 484.793 120.536C486.17 118.349 488.572 116.949 491.04 116.101C497.483 113.887 511.1 110.672 515.169 116.101C515.97 117.195 516.633 118.409 517.741 119.164C518.586 119.738 519.606 119.984 520.532 120.416C523.126 121.63 524.782 124.276 525.665 126.977C526.548 129.678 526.812 132.576 527.459 135.36C528.287 138.93 529.74 142.315 531.188 145.678C532.893 149.647 534.703 153.765 537.993 156.57C542.485 160.398 543.477 165.816 547.645 170.016C552.581 175.002 552.422 183.232 549.877 189.766C549.543 190.624 549.164 191.521 549.296 192.434C549.427 193.348 550.107 194.179 550.749 194.906L553.447 197.941C547.064 199.477 539.841 196.153 536.869 190.318C535.953 188.514 535.345 186.436 533.776 185.151C532.372 184.003 530.486 183.729 528.736 183.215C522.967 181.509 518.13 176.255 517.949 170.262C517.862 167.446 518.745 164.63 518.344 161.841C518.122 160.249 517.489 158.742 516.507 157.467C514.999 155.504 512.723 154.186 511.495 151.999C509.416 148.341 510.996 143.589 509.499 139.663C509.038 138.46 508.117 137.257 506.828 137.164C505.539 137.071 504.437 138.137 503.203 138.613C500.637 139.608 497.862 137.919 495.717 136.185C493.573 134.452 491.155 132.484 488.424 132.872C486.62 133.123 485.199 134.348 483.538 134.988C482.309 135.458 479.819 135.879 478.745 134.846C476.474 132.762 481.733 127.366 482.682 125.419Z" fill="#0B0038"/>
<path opacity="0.1" d="M538.394 188.514C537.472 186.709 536.869 184.632 535.301 183.352C533.897 182.204 532.01 181.925 530.255 181.411C524.492 179.71 519.655 174.456 519.469 168.463C519.381 165.647 520.264 162.825 519.869 160.037C519.639 158.455 519.007 156.958 518.032 155.69C516.518 153.727 514.242 152.409 513.019 150.222C510.941 146.569 512.52 141.817 511.018 137.886C510.563 136.688 509.636 135.485 508.353 135.387C507.069 135.289 505.956 136.366 504.728 136.841C502.161 137.837 499.381 136.142 497.242 134.414C495.103 132.686 492.674 130.712 489.948 131.095C488.144 131.352 486.718 132.576 485.062 133.211C483.834 133.681 481.339 134.107 480.264 133.074C478.004 130.887 483.263 125.501 484.207 123.565C484.991 121.969 485.38 120.191 486.323 118.682C486.373 118.6 486.428 118.518 486.482 118.436C485.777 119.019 485.168 119.709 484.678 120.481C483.74 121.99 483.351 123.762 482.567 125.364C481.618 127.3 476.359 132.702 478.624 134.873C479.721 135.912 482.189 135.485 483.417 135.015C485.062 134.375 486.499 133.151 488.303 132.899C491.045 132.511 493.458 134.485 495.597 136.213C497.736 137.941 500.532 139.636 503.088 138.64C504.316 138.165 505.391 137.093 506.707 137.191C508.023 137.29 508.901 138.487 509.378 139.69C510.875 143.616 509.296 148.368 511.374 152.026C512.603 154.175 514.878 155.52 516.387 157.494C517.368 158.769 518.001 160.276 518.224 161.868C518.624 164.657 517.741 167.473 517.829 170.289C518.01 176.304 522.847 181.537 528.616 183.243C530.354 183.757 532.252 184.03 533.656 185.178C535.229 186.463 535.849 188.541 536.748 190.346C539.721 196.18 546.943 199.504 553.327 197.968L552.054 196.535C546.521 196.617 540.922 193.479 538.394 188.514Z" fill="black"/>
<path opacity="0.1" d="M500.587 163.558C499.869 164.652 497.812 170.251 496.096 175.139C494.489 174.516 493.03 170.541 493.03 170.541L501.596 158.391C502.474 159.594 501.898 161.59 500.587 163.558Z" fill="black"/>
<path d="M500.916 163.23C500.198 164.323 498.141 169.923 496.425 174.811C494.818 174.193 493.359 170.212 493.359 170.212L501.925 158.068C502.803 159.266 502.227 161.267 500.916 163.23Z" fill="#DCE7FF"/>
<path d="M451.111 219.091L446.362 204.158C446.306 203.983 446.285 203.799 446.3 203.616C446.315 203.433 446.367 203.255 446.451 203.092C446.536 202.928 446.652 202.784 446.793 202.665C446.934 202.547 447.097 202.458 447.272 202.402C447.626 202.292 448.008 202.326 448.337 202.496C448.666 202.666 448.914 202.959 449.027 203.31L453.776 218.227L453.304 221.349L451.111 219.091Z" fill="#BE8B87"/>
<path opacity="0.1" d="M446.811 202.845C447.166 202.734 447.55 202.766 447.88 202.937C448.21 203.107 448.459 203.4 448.572 203.753L453.321 218.67L452.964 221.01L453.31 221.371L453.782 218.249L449.005 203.332C448.892 202.981 448.644 202.688 448.315 202.518C447.986 202.348 447.604 202.314 447.25 202.424C446.953 202.521 446.696 202.713 446.521 202.971C446.614 202.921 446.711 202.879 446.811 202.845Z" fill="white"/>
<path d="M451.111 219.091L453.776 218.249L453.387 220.808L453.304 221.371L452.526 220.562L451.111 219.091Z" fill="#EFC8C4"/>
<path d="M452.526 220.562C452.572 220.503 452.63 220.455 452.696 220.419C452.734 220.395 452.779 220.382 452.825 220.382C452.87 220.382 452.915 220.395 452.954 220.419C452.991 220.464 453.022 220.514 453.047 220.567C453.083 220.627 453.132 220.679 453.191 220.718C453.25 220.756 453.317 220.782 453.387 220.791L453.305 221.338L452.526 220.562Z" fill="#727A9C"/>
<path d="M446.334 209.462C446.334 209.462 455.86 209.407 453.617 213.448C451.374 217.489 447.87 217.975 447.87 217.975L446.334 209.462Z" fill="url(#paint7_linear_72_216)"/>
<path d="M377.579 35H377.246C363.981 35 352.25 41.3015 345.502 50.6001C338.754 41.3015 327.023 35 313.758 35H313.425C303.47 35.0852 293.955 38.6939 286.947 45.042C279.939 51.3901 276.005 59.9645 276 68.902C276 80.0005 281.414 95.7483 291.972 108.706C312.087 133.398 345.502 155 345.502 155C345.502 155 378.917 133.402 399.028 108.706C409.59 95.7483 415 80.0005 415 68.902C414.995 59.9652 411.061 51.3914 404.054 45.0434C397.048 38.6954 387.534 35.0862 377.579 35ZM372.81 110.606C371.299 110.601 369.825 110.186 368.582 109.415C367.339 108.645 366.385 107.554 365.844 106.288H357.913C357.391 106.285 356.883 106.136 356.46 105.861C356.037 105.586 355.72 105.2 355.553 104.756L353.117 98.1667L345.409 122.347C345.259 122.813 344.944 123.222 344.513 123.513C344.082 123.805 343.557 123.963 343.017 123.963H342.862C342.298 123.939 341.762 123.742 341.341 123.405C340.92 123.068 340.641 122.611 340.55 122.112L332.606 79.2183L326.801 104.6C326.668 105.082 326.359 105.51 325.923 105.816C325.487 106.122 324.949 106.288 324.396 106.288H313.225C312.89 106.301 312.556 106.253 312.242 106.146C311.929 106.04 311.642 105.878 311.4 105.67C311.158 105.461 310.966 105.211 310.834 104.935C310.703 104.658 310.635 104.36 310.635 104.059C310.635 103.758 310.703 103.46 310.834 103.184C310.966 102.907 311.158 102.657 311.4 102.449C311.642 102.24 311.929 102.078 312.242 101.972C312.556 101.866 312.89 101.818 313.225 101.83H322.44L330.664 67.7048C330.799 67.2002 331.125 66.7535 331.586 66.4408C332.047 66.1282 332.615 65.9691 333.193 65.9908C333.77 66.0125 334.321 66.2136 334.752 66.5597C335.183 66.9058 335.466 67.3755 335.554 67.8884L343.666 111.644L350.574 90.0095C350.718 89.5538 351.022 89.1522 351.441 88.8645C351.86 88.5768 352.372 88.4184 352.899 88.4131H352.948C353.471 88.4133 353.98 88.5615 354.403 88.8367C354.826 89.1119 355.141 89.5 355.304 89.9456L359.709 101.842H365.746C366.175 100.672 366.956 99.6302 368.003 98.8329C369.05 98.0356 370.322 97.5135 371.679 97.3242C373.035 97.1349 374.423 97.2858 375.69 97.7601C376.957 98.2344 378.054 99.0138 378.859 100.012C379.663 101.011 380.145 102.189 380.251 103.418C380.357 104.647 380.082 105.878 379.458 106.976C378.834 108.073 377.884 108.995 376.713 109.638C375.542 110.282 374.196 110.622 372.823 110.622L372.81 110.606Z" fill="url(#paint8_linear_72_216)"/>
<g clip-path="url(#clip1_72_216)">
<path d="M269.409 263.149L253.562 264.356L251.695 254.863C250.392 252.009 253.562 264.356 244.945 310.912L239.98 309.787L187.608 297.939L200.315 231.137L178.17 229.643L181.914 208.864L192.931 209.801C192.931 209.801 212.728 207.739 227.472 209.801C242.216 211.864 252.617 212.386 259.607 219.57C266.597 226.754 269.409 263.149 269.409 263.149Z" fill="url(#paint9_linear_72_216)"/>
<path d="M251.695 254.863C250.392 252.01 253.562 264.356 244.945 310.912L239.98 309.787L234.768 308.615C234.768 308.615 240.267 295.724 237.18 293.38C234.093 291.036 218.909 296.714 205.304 297.944C191.699 299.175 193.43 295.384 193.43 295.384C193.43 295.384 205.873 284.086 226.938 277.963C248.003 271.839 249.001 240.296 249.001 240.296L251.695 254.863Z" fill="url(#paint10_linear_72_216)"/>
<path d="M219.255 212.89C219.255 212.89 232.543 213.44 237.497 209.485L241.647 211.794C241.647 211.794 240.514 219.728 234.017 220.783C227.519 221.837 219.243 221.48 219.255 212.89Z" fill="#68E1FD"/>
<path d="M219.255 212.89C219.255 212.89 232.543 213.44 237.497 209.485L241.647 211.794C241.647 211.794 240.514 219.728 234.017 220.783C227.519 221.837 219.243 221.48 219.255 212.89Z" fill="#DC5FEE"/>
<path d="M207.605 279.867L193.958 275.314C193.958 275.314 192.35 276.375 194.739 278.133C195.752 278.899 196.72 279.723 197.638 280.599L207.605 279.867Z" fill="url(#paint11_linear_72_216)"/>
<path d="M220.194 207.235C220.494 204.891 220.611 202.295 222.119 200.443C223.051 199.439 224.167 198.621 225.406 198.035L235.343 192.527C236.552 191.859 237.867 191.167 239.234 191.355C239.567 191.383 239.884 191.505 240.15 191.706C240.813 192.251 240.708 193.283 240.543 194.132C239.534 199.254 238.518 204.375 237.497 209.497C237.273 210.95 236.857 212.366 236.259 213.71C235.437 215.224 234.207 216.478 232.708 217.329C231.209 218.18 229.501 218.595 227.777 218.527C224.96 218.367 222.313 217.129 220.388 215.069C218.158 212.731 219.83 210.135 220.194 207.235Z" fill="url(#paint12_linear_72_216)"/>
<path d="M252.534 284.379C254.472 284.103 256.346 283.488 258.069 282.562C261.509 280.722 267.02 277.441 268.094 274.828C269.673 270.966 269.409 263.149 269.409 263.149L253.562 264.356C253.562 264.356 253.697 269.354 252.388 269.53C251.079 269.706 208.996 280.224 208.996 280.224C208.996 280.224 202.486 278.121 196.775 280.312C191.065 282.504 182.648 287.602 184.79 290.274C185.117 290.668 185.526 290.988 185.987 291.21C186.449 291.433 186.954 291.553 187.467 291.563C189.321 291.622 188.594 293.784 189.709 294.604C191.2 295.7 206.014 296.831 211.085 291.575C212.382 290.239 243.091 285.738 252.534 284.379Z" fill="url(#paint13_linear_72_216)"/>
<path d="M181.914 208.858L179.285 223.42C176.751 221.604 174.089 219.973 171.32 218.538C166.66 216.124 155.772 185.723 155.772 185.723C155.772 185.723 154.628 180.291 151.206 178.446C147.784 176.6 147.954 170.634 147.954 168.701C147.954 166.773 146.193 163.796 144.474 161.435C142.754 159.073 144.474 157.837 144.474 157.837C144.474 157.837 148.917 162.044 148.999 161.522C149.081 161.001 146.78 155.241 145.477 153.793C144.174 152.346 144.251 149.949 144.955 149.598C145.659 149.246 152.585 158.276 152.585 158.276C152.368 156.01 151.804 153.791 150.912 151.696C149.51 148.631 149.862 145.209 150.912 145.736C151.963 146.264 156.359 156.284 156.359 154.368C156.359 152.452 152.838 142.584 155.655 143.633C156.705 144.025 157.85 146.058 158.994 149.176C160.902 154.397 162.792 162.653 164.159 171.355C166.361 185.214 181.914 208.858 181.914 208.858Z" fill="url(#paint14_linear_72_216)"/>
<path d="M160.603 162.478C160.603 162.478 157.621 159.032 155.42 159.483C153.219 159.934 155.86 163.527 155.86 163.527C155.86 163.527 157.703 166.685 156.829 168.877C155.954 171.068 155.338 175.979 155.596 176.154C155.854 176.33 153.665 178.352 151.294 173.178C150.518 171.462 149.381 169.933 147.96 168.695C147.96 166.767 146.199 163.79 144.48 161.429C142.76 159.067 144.48 157.831 144.48 157.831C144.48 157.831 148.923 162.038 149.005 161.517C149.087 160.995 146.786 155.235 145.483 153.788C144.18 152.34 144.256 149.944 144.961 149.592C145.665 149.24 152.591 158.27 152.591 158.27C152.374 156.004 151.81 153.785 150.918 151.69C149.515 148.625 149.868 145.203 150.918 145.73C151.969 146.258 156.365 156.278 156.365 154.362C156.365 152.446 152.843 142.578 155.661 143.627C156.711 144.019 157.856 146.053 159 149.17C159.024 149.17 160.867 158.616 160.603 162.478Z" fill="url(#paint15_linear_72_216)"/>
<path d="M266.339 410.335L244.945 425.049C241.735 418.85 253.562 407.177 253.562 407.177C253.562 407.177 235.367 378.552 228.27 359.425C222.865 344.917 220.64 329.863 212.159 329.986C209.465 330.027 206.143 331.597 201.882 335.201C184.192 350.144 189.762 400.889 189.762 400.889L184.479 403.878L163.25 415.832L162.352 410.728C161.507 399.29 177.06 393.858 177.06 393.858C177.06 393.858 175.247 368.971 177.06 344.049C178.874 319.128 187.625 297.939 187.625 297.939L234.785 308.609L241.664 310.162C241.277 359.009 265.928 409.544 266.333 410.324L266.339 410.335Z" fill="#0B0038"/>
<path d="M245.262 181.065C244.955 183.042 244.437 184.981 243.719 186.849C243.913 186.837 244.107 186.88 244.279 186.973C244.45 187.067 244.592 187.206 244.687 187.376C245.802 189.234 243.196 195.451 239.792 194.748C237.896 197.894 235.73 200.965 232.79 203.168C226.204 208.102 216.039 207.428 210.169 201.686C205.844 197.461 203.995 191.185 204.03 185.143C204.071 178.112 205.967 166.937 210.404 161.165C214.841 155.393 224.309 157.614 230.131 159.6C234.633 161.136 239.176 163.239 242.093 166.99C245.127 170.892 245.972 176.178 245.262 181.065Z" fill="url(#paint16_linear_72_216)"/>
<path d="M205.304 153.606C206.677 151.731 206.102 149.147 206.278 146.832C206.489 144.084 208.238 141.201 210.973 140.761C212.118 140.574 213.286 140.831 214.448 140.82C216.796 140.82 219.003 139.648 221.216 138.822C223.428 137.995 226.017 137.456 228.094 138.587C229.38 139.285 230.278 140.521 231.375 141.517C233.04 142.957 235.149 143.784 237.35 143.861C239.111 143.92 240.907 143.48 242.692 143.468C244.476 143.457 246.442 143.996 247.387 145.496C248.426 147.096 248.009 149.193 248.361 151.069C248.625 152.457 249.705 153.319 250.92 154.057C252.135 154.795 253.485 155.411 254.33 156.547C254.772 157.22 255.058 157.982 255.169 158.779C255.28 159.575 255.212 160.386 254.97 161.153C254.479 162.682 253.729 164.115 252.752 165.39C252.165 166.251 251.501 167.218 251.66 168.255C251.865 169.638 253.344 170.388 254.231 171.467C254.607 171.978 254.869 172.564 254.999 173.185C255.129 173.806 255.124 174.447 254.985 175.067C254.846 175.686 254.576 176.268 254.193 176.774C253.81 177.28 253.322 177.698 252.763 178C252.036 178.34 251.202 178.487 250.592 179.008C249.154 180.25 249.758 182.864 248.326 184.112C247.152 185.155 245.116 184.528 244.141 183.268C243.167 182.008 240.919 178.803 240.69 177.227C240.279 174.684 241.682 173.547 239.927 171.66C237.873 169.462 234.744 168.73 231.956 167.617C228.511 166.216 224.279 166.503 220.869 165.021C217.858 163.708 213.486 162.384 210.434 161.165C207.381 159.946 207.106 156.342 205.304 153.606Z" fill="#0B0038"/>
<path d="M241.359 176.688L248.989 181.416C248.989 181.416 246.736 187.763 244.94 188.448L235.584 184.423L241.359 176.688Z" fill="#9F78FF"/>
<path d="M240.775 177L248.406 181.729C248.406 181.729 246.152 188.075 244.356 188.761L235 184.735L240.775 177Z" fill="url(#paint17_linear_72_216)"/>
<path d="M205.773 153.793C205.773 153.793 195.666 153.969 193.195 157.479C190.724 160.989 188.341 172.627 188.341 172.627L222.865 187.774C222.865 187.774 227.431 189.767 231.381 186.948C235.331 184.13 242.152 181.838 241.87 178.246C241.588 174.654 244.382 170.98 238.759 168.179C233.136 165.378 209.5 161.499 205.773 153.793Z" fill="#9F78FF"/>
<path d="M205.432 154C205.432 154 195.325 154.176 192.854 157.686C190.383 161.196 188 172.833 188 172.833L222.524 187.981C222.524 187.981 227.09 189.973 231.04 187.155C234.99 184.336 241.81 182.045 241.529 178.453C241.247 174.861 244.041 171.187 238.418 168.386C232.795 165.585 209.159 161.706 205.432 154Z" fill="url(#paint18_linear_72_216)"/>
<path d="M193.195 157.479C193.195 157.479 227.607 170.136 229.057 171.349C230.507 172.562 228.265 181.504 226.158 185.841C224.05 190.177 220.429 188.454 220.429 188.454L189.222 176.242C189.222 176.242 187.197 174.93 189.222 168.091C191.247 161.253 192.356 159.097 193.195 157.479Z" fill="#9F78FF"/>
<path d="M192.874 158C192.874 158 227.286 170.657 228.735 171.87C230.185 173.083 227.943 182.025 225.836 186.361C223.729 190.698 220.107 188.975 220.107 188.975L188.9 176.763C188.9 176.763 186.875 175.45 188.9 168.612C190.925 161.774 192.034 159.617 192.874 158Z" fill="url(#paint19_linear_72_216)"/>
<path d="M187.866 165.185C188.136 164.236 189.715 163.321 190.642 163.667C198.125 166.462 227.085 177.819 230.284 177.819C233.952 177.819 241.893 176.207 241.893 176.207C242.057 176.877 242.057 177.576 241.893 178.246C241.594 179.037 232.309 182.641 228.288 181.973C224.766 181.387 195.883 171.502 189.01 168.923C188.195 168.619 187.437 166.72 187.672 165.876L187.866 165.185Z" fill="#9F78FF"/>
<path d="M188.237 165.592C188.507 164.643 190.086 163.729 191.013 164.075C198.497 166.87 227.456 178.226 230.655 178.226C234.323 178.226 242.264 176.615 242.264 176.615C242.428 177.285 242.428 177.984 242.264 178.654C241.965 179.445 232.68 183.049 228.659 182.381C225.138 181.795 196.255 171.909 189.382 169.331C188.566 169.026 187.809 167.128 188.043 166.284L188.237 165.592Z" fill="url(#paint20_linear_72_216)"/>
<path d="M179.285 223.42H194.123C195.058 223.419 195.982 223.625 196.828 224.023C197.674 224.42 198.422 225 199.017 225.721C199.612 226.441 200.04 227.284 200.271 228.189C200.501 229.094 200.528 230.039 200.35 230.955L200.315 231.149L178.17 229.654L179.285 223.42Z" fill="url(#paint21_linear_72_216)"/>
<path d="M266.333 410.324C235.772 378.23 234.768 308.609 234.768 308.609L241.647 310.162C241.277 359.01 265.928 409.544 266.333 410.324ZM212.159 329.986C209.465 330.027 206.143 331.597 201.882 335.201C184.192 350.144 189.762 400.89 189.762 400.89L184.479 403.878C180.054 377.286 179.784 354.421 193.383 336.186C198.742 328.949 211.343 329.898 212.159 329.986Z" fill="#3F2778"/>
<path d="M61 308H59V359H61V308Z" fill="#535461"/>
<path d="M75.9916 364.066L75.8495 366.102L75.6455 368.983L75.5617 370.18L75.3613 373.06L75.2739 374.258L75.0699 377.138L72.7673 409.808C72.6672 411.214 71.9612 412.533 70.793 413.498C69.6248 414.462 68.0821 414.999 66.4789 415H54.507C52.9043 414.999 51.362 414.462 50.1944 413.498C49.0267 412.533 48.3215 411.214 48.2223 409.808L45.9307 377.116L45.7266 374.235L45.6428 373.038L45.4388 370.157L45.355 368.96L45.151 366.08L45.0053 364.044C44.98 363.652 45.046 363.26 45.1994 362.891C45.3529 362.523 45.5904 362.186 45.8974 361.901C46.2044 361.616 46.5745 361.389 46.985 361.234C47.3954 361.079 47.8376 360.999 48.2843 361H72.7709C73.216 361.003 73.6555 361.087 74.0623 361.245C74.4692 361.404 74.8348 361.634 75.1366 361.921C75.4384 362.208 75.67 362.547 75.817 362.916C75.9641 363.285 76.0235 363.676 75.9916 364.066Z" fill="#3F3D56"/>
<path d="M76 361L75.7941 363H45.2059L45 361H76Z" fill="#9D9CB5"/>
<path d="M75 366L74.8005 369H45.2031L45 366H75Z" fill="#9D9CB5"/>
<path d="M75 369L74.8034 374H46.2001L46 369H75Z" fill="#9D9CB5"/>
<path d="M41.6087 326.215C54.5839 335.882 60 351 60 351C60 351 44.3629 350.448 31.3842 340.781C18.4054 331.114 13 316 13 316C13 316 28.6299 316.549 41.6087 326.215Z" fill="url(#paint22_linear_72_216)"/>
<path d="M13 316C13 316 29.2304 325.275 34.4357 332.955C39.6409 340.635 60 351 60 351" stroke="#535461" stroke-width="2" stroke-miterlimit="10"/>
<path d="M50.2153 308.255C57.1146 313.224 60 321 60 321C60 321 51.684 320.716 44.7812 315.748C37.8785 310.779 35 303 35 303C35 303 43.3125 303.284 50.2153 308.255Z" fill="url(#paint23_linear_72_216)"/>
<path d="M35 303C35 303 43.6319 307.771 46.3993 311.72C49.1667 315.668 60 321 60 321" stroke="#535461" stroke-width="2" stroke-miterlimit="10"/>
<path d="M71.0387 320.346C62.753 329.733 61 342 61 342C61 342 72.6828 339.044 80.9613 329.654C89.2398 320.264 91 308 91 308C91 308 79.3245 310.959 71.0387 320.346Z" fill="url(#paint24_linear_72_216)"/>
<path d="M91 308C91 308 80.209 317.623 77.4659 324.254C74.7228 330.884 61 342 61 342" stroke="#535461" stroke-width="2" stroke-miterlimit="10"/>
</g>
<path d="M52.8594 72.4709L132.724 104.618C133.925 105.102 134.954 105.934 135.679 107.006C136.403 108.078 136.791 109.342 136.791 110.636V246.665C136.792 247.74 136.524 248.798 136.014 249.744C135.503 250.69 134.765 251.495 133.866 252.085C132.967 252.676 131.935 253.035 130.863 253.129C129.791 253.223 128.712 253.05 127.723 252.625L46.139 217.601C44.9642 217.09 43.9669 216.244 43.2724 215.169C42.578 214.094 42.2173 212.838 42.2358 211.559L43.9321 78.4069C43.9451 77.3521 44.2156 76.3164 44.7201 75.3895C45.2246 74.4626 45.9479 73.6726 46.8273 73.0878C47.7068 72.5031 48.7158 72.1413 49.7669 72.0338C50.818 71.9263 51.8795 72.0763 52.8594 72.4709Z" fill="url(#paint25_linear_72_216)"/>
<path d="M47.6533 74.5218L127.477 106.669C128.684 107.147 129.721 107.975 130.453 109.047C131.185 110.118 131.579 111.384 131.585 112.681V248.716C131.584 249.79 131.316 250.847 130.805 251.793C130.294 252.738 129.556 253.542 128.658 254.132C127.759 254.723 126.728 255.082 125.656 255.177C124.584 255.271 123.506 255.099 122.517 254.676L40.9329 219.646C39.7536 219.138 38.751 218.294 38.0512 217.219C37.3515 216.144 36.9859 214.886 37.0004 213.604L38.6967 80.452C38.7087 79.394 38.9798 78.355 39.4864 77.4256C39.9929 76.4962 40.7194 75.7046 41.6026 75.1198C42.4859 74.535 43.4989 74.1748 44.5536 74.0706C45.6082 73.9664 46.6724 74.1213 47.6533 74.5218Z" fill="url(#paint26_linear_72_216)"/>
</g>
<defs>
<linearGradient id="paint0_linear_72_216" x1="489.954" y1="419.443" x2="489.954" y2="112.143" gradientUnits="userSpaceOnUse">
<stop stop-color="#808080" stop-opacity="0.25"/>
<stop offset="0.54" stop-color="#808080" stop-opacity="0.12"/>
<stop offset="1" stop-color="#808080" stop-opacity="0.1"/>
</linearGradient>
<linearGradient id="paint1_linear_72_216" x1="470.244" y1="323.387" x2="470.244" y2="416.288" gradientUnits="userSpaceOnUse">
<stop stop-color="#ECC4D7"/>
<stop offset="0.369792" stop-color="#EFD4D1"/>
<stop offset="1" stop-color="#F2EAC9"/>
</linearGradient>
<linearGradient id="paint2_linear_72_216" x1="528.437" y1="322.979" x2="528.437" y2="415.189" gradientUnits="userSpaceOnUse">
<stop stop-color="#ECC4D7"/>
<stop offset="0.369792" stop-color="#EFD4D1"/>
<stop offset="1" stop-color="#F2EAC9"/>
</linearGradient>
<linearGradient id="paint3_linear_72_216" x1="508.306" y1="139.11" x2="508.306" y2="166.884" gradientUnits="userSpaceOnUse">
<stop stop-color="#ECC4D7"/>
<stop offset="0.369792" stop-color="#EFD4D1"/>
<stop offset="1" stop-color="#F2EAC9"/>
</linearGradient>
<linearGradient id="paint4_linear_72_216" x1="468.973" y1="221.986" x2="468.973" y2="234.078" gradientUnits="userSpaceOnUse">
<stop stop-color="#ECC4D7"/>
<stop offset="0.369792" stop-color="#EFD4D1"/>
<stop offset="1" stop-color="#F2EAC9"/>
</linearGradient>
<linearGradient id="paint5_linear_72_216" x1="449.286" y1="206.667" x2="449.286" y2="220.076" gradientUnits="userSpaceOnUse">
<stop stop-color="#ECC4D7"/>
<stop offset="0.369792" stop-color="#EFD4D1"/>
<stop offset="1" stop-color="#F2EAC9"/>
</linearGradient>
<linearGradient id="paint6_linear_72_216" x1="496.803" y1="125.564" x2="496.803" y2="158" gradientUnits="userSpaceOnUse">
<stop stop-color="#ECC4D7"/>
<stop offset="0.369792" stop-color="#EFD4D1"/>
<stop offset="1" stop-color="#F2EAC9"/>
</linearGradient>
<linearGradient id="paint7_linear_72_216" x1="450.147" y1="209.462" x2="450.147" y2="217.975" gradientUnits="userSpaceOnUse">
<stop stop-color="#ECC4D7"/>
<stop offset="0.369792" stop-color="#EFD4D1"/>
<stop offset="1" stop-color="#F2EAC9"/>
</linearGradient>
<linearGradient id="paint8_linear_72_216" x1="276" y1="95" x2="437.346" y2="102.852" gradientUnits="userSpaceOnUse">
<stop stop-color="#6812C8"/>
<stop offset="1" stop-color="#3A82FF"/>
</linearGradient>
<linearGradient id="paint9_linear_72_216" x1="178.17" y1="259.888" x2="284.178" y2="263.87" gradientUnits="userSpaceOnUse">
<stop stop-color="#6812C8"/>
<stop offset="1" stop-color="#3A82FF"/>
</linearGradient>
<linearGradient id="paint10_linear_72_216" x1="269.826" y1="292.466" x2="176.821" y2="246.475" gradientUnits="userSpaceOnUse">
<stop offset="0.01"/>
<stop offset="0.15" stop-opacity="0.48"/>
<stop offset="0.99" stop-opacity="0"/>
</linearGradient>
<linearGradient id="paint11_linear_72_216" x1="200.432" y1="277.939" x2="198.592" y2="279.847" gradientUnits="userSpaceOnUse">
<stop stop-color="#ECC4D7"/>
<stop offset="0.42" stop-color="#EFD4D1"/>
<stop offset="1" stop-color="#F2EAC9"/>
</linearGradient>
<linearGradient id="paint12_linear_72_216" x1="230.771" y1="204.024" x2="238.087" y2="213.575" gradientUnits="userSpaceOnUse">
<stop stop-color="#ECC4D7"/>
<stop offset="0.83" stop-color="#F2EAC9"/>
</linearGradient>
<linearGradient id="paint13_linear_72_216" x1="184.456" y1="279.34" x2="269.426" y2="279.34" gradientUnits="userSpaceOnUse">
<stop stop-color="#ECC4D7"/>
<stop offset="0.42" stop-color="#EFD4D1"/>
<stop offset="1" stop-color="#F2EAC9"/>
</linearGradient>
<linearGradient id="paint14_linear_72_216" x1="143.711" y1="183.485" x2="181.914" y2="183.485" gradientUnits="userSpaceOnUse">
<stop stop-color="#ECC4D7"/>
<stop offset="0.42" stop-color="#EFD4D1"/>
<stop offset="1" stop-color="#F2EAC9"/>
</linearGradient>
<linearGradient id="paint15_linear_72_216" x1="143.711" y1="160.116" x2="160.632" y2="160.116" gradientUnits="userSpaceOnUse">
<stop stop-color="#ECC4D7"/>
<stop offset="0.42" stop-color="#EFD4D1"/>
<stop offset="1" stop-color="#F2EAC9"/>
</linearGradient>
<linearGradient id="paint16_linear_72_216" x1="243.32" y1="168.824" x2="203.982" y2="192.519" gradientUnits="userSpaceOnUse">
<stop stop-color="#ECC4D7"/>
<stop offset="0.83" stop-color="#F2EAC9"/>
</linearGradient>
<linearGradient id="paint17_linear_72_216" x1="244.403" y1="178.137" x2="240.34" y2="186.281" gradientUnits="userSpaceOnUse">
<stop stop-color="#9F78FF"/>
<stop offset="1" stop-color="#D690E0"/>
</linearGradient>
<linearGradient id="paint18_linear_72_216" x1="185.253" y1="176.519" x2="263.472" y2="162.852" gradientUnits="userSpaceOnUse">
<stop offset="0.01" stop-color="#9F78FF"/>
<stop offset="0.99" stop-color="#E789F4"/>
</linearGradient>
<linearGradient id="paint19_linear_72_216" x1="203.732" y1="187.053" x2="214.436" y2="158.159" gradientUnits="userSpaceOnUse">
<stop offset="0.01" stop-color="#9F78FF"/>
<stop offset="0.99" stop-color="#EAA9F3"/>
</linearGradient>
<linearGradient id="paint20_linear_72_216" x1="215.905" y1="169.19" x2="213.102" y2="181.158" gradientUnits="userSpaceOnUse">
<stop offset="0.01" stop-color="#9F78FF"/>
<stop offset="0.99" stop-color="#EB87FA"/>
</linearGradient>
<linearGradient id="paint21_linear_72_216" x1="192.673" y1="242.265" x2="186.728" y2="219.208" gradientUnits="userSpaceOnUse">
<stop offset="0.01"/>
<stop offset="0.99" stop-opacity="0"/>
</linearGradient>
<linearGradient id="paint22_linear_72_216" x1="13" y1="333.5" x2="67.5114" y2="336.575" gradientUnits="userSpaceOnUse">
<stop stop-color="#6812C8"/>
<stop offset="1" stop-color="#3A82FF"/>
</linearGradient>
<linearGradient id="paint23_linear_72_216" x1="35" y1="312" x2="63.989" y2="313.692" gradientUnits="userSpaceOnUse">
<stop stop-color="#6812C8"/>
<stop offset="1" stop-color="#3A82FF"/>
</linearGradient>
<linearGradient id="paint24_linear_72_216" x1="61" y1="325" x2="95.8574" y2="326.292" gradientUnits="userSpaceOnUse">
<stop stop-color="#6812C8"/>
<stop offset="1" stop-color="#3A82FF"/>
</linearGradient>
<linearGradient id="paint25_linear_72_216" x1="89.5132" y1="72" x2="89.5132" y2="253.154" gradientUnits="userSpaceOnUse">
<stop stop-color="#3CAACC"/>
<stop offset="1" stop-color="#9F78FF"/>
</linearGradient>
<linearGradient id="paint26_linear_72_216" x1="37" y1="164.62" x2="146.998" y2="167.033" gradientUnits="userSpaceOnUse">
<stop stop-color="#6812C8"/>
<stop offset="1" stop-color="#3A82FF"/>
</linearGradient>
<clipPath id="clip0_72_216">
<rect width="606" height="428" fill="white"/>
</clipPath>
<clipPath id="clip1_72_216">
<rect width="372" height="350" fill="white" transform="translate(13 94)"/>
</clipPath>
</defs>
</svg>
