<svg width="1158" height="500" viewBox="0 0 1158 500" fill="none" xmlns="http://www.w3.org/2000/svg">
<g clip-path="url(#clip0_370_2)">
<path opacity="0.05" d="M426.762 43.0737L713.94 1.15674V276.136L426.762 234.22V43.0737Z" fill="white"/>
<path d="M412.676 432.946L438.606 424.721C441.838 410.804 441.623 396.31 437.981 382.495C427.564 405.658 397.002 411.333 379.588 429.82C374.201 435.628 370.19 442.573 367.852 450.142C365.514 457.71 364.91 465.708 366.083 473.542L360.627 492.048C373.369 490.959 385.722 487.121 396.838 480.799C407.953 474.476 417.565 465.819 425.012 455.423C429.132 449.55 432.496 443.182 435.025 436.468C423.967 435.361 412.676 432.946 412.676 432.946Z" fill="url(#paint0_linear_370_2)"/>
<path d="M384.969 398.726L404.509 379.8C401.195 365.903 394.538 353.025 385.118 342.285C386.124 367.662 361.3 386.372 353.959 410.685C351.728 418.285 351.235 426.291 352.518 434.108C353.801 441.924 356.827 449.352 361.371 455.841L364.741 474.837C375.66 468.181 385.005 459.236 392.134 448.62C399.263 438.004 404.005 425.968 406.035 413.343C407.103 406.248 407.274 399.048 406.543 391.911C396.152 395.852 384.969 398.726 384.969 398.726Z" fill="url(#paint1_linear_370_2)"/>
<path d="M762.612 414.71L770.597 388.705C760.99 378.131 748.947 370.063 735.513 365.2C748.638 386.943 735.92 415.307 741.22 440.145C742.932 447.88 746.363 455.129 751.258 461.357C756.153 467.585 762.386 472.632 769.497 476.123L781.614 491.137C787.966 480.038 791.837 467.695 792.959 454.957C794.082 442.218 792.429 429.388 788.116 417.35C785.629 410.621 782.305 404.231 778.222 398.333C771.021 406.798 762.612 414.71 762.612 414.71Z" fill="url(#paint2_linear_370_2)"/>
<path d="M718.707 418.032L714.256 391.196C700.942 386.017 686.564 384.166 672.372 385.804C693.816 399.412 695.083 430.471 710.904 450.339C715.885 456.498 722.189 461.456 729.348 464.848C736.507 468.239 744.337 469.976 752.258 469.93L769.799 477.963C770.535 465.197 768.495 452.423 763.818 440.521C759.142 428.619 751.941 417.872 742.711 409.021C737.485 404.107 731.66 399.871 725.374 396.413C722.705 407.2 718.707 418.032 718.707 418.032Z" fill="url(#paint3_linear_370_2)"/>
<path d="M305.732 356.532C305.087 355.211 304.159 354.048 303.016 353.124C301.872 352.2 300.54 351.538 299.113 351.185C297.686 350.831 296.199 350.795 294.757 351.079C293.314 351.363 291.951 351.959 290.764 352.826L261.389 332.478L260.965 351.042L288.925 367.52C290.514 369.417 292.744 370.666 295.193 371.029C297.641 371.393 300.137 370.845 302.209 369.491C304.281 368.136 305.783 366.069 306.433 363.681C307.082 361.292 306.833 358.749 305.732 356.532L305.732 356.532Z" fill="url(#paint4_linear_370_2)"/>
<path d="M277.78 362.625L221.271 331.165L221.256 330.89C221.226 330.364 218.287 278.116 219.441 266.965C220.07 260.222 222.987 253.896 227.707 249.038L227.83 248.925L227.997 248.909C231.408 248.599 234.822 249.461 237.677 251.353C240.532 253.244 242.657 256.051 243.702 259.313C248.664 275.085 249.892 291.794 247.29 308.122L245.799 317.408L283.436 346.013L277.78 362.625Z" fill="url(#paint5_linear_370_2)"/>
<path d="M363.145 483.213L374.015 478.544L361.18 434.396L345.137 441.287L363.145 483.213Z" fill="url(#paint6_linear_370_2)"/>
<path d="M355.481 481.5L359.016 479.982L370.404 468.445L380.208 470.879L380.209 470.879C384.389 469.084 389.11 469.023 393.334 470.709C397.558 472.395 400.94 475.69 402.735 479.869L402.955 480.381L362.47 497.77L355.481 481.5Z" fill="#2F2E41"/>
<path d="M314.246 484.351L326.076 484.35L331.704 438.72H314.244L314.246 484.351Z" fill="url(#paint7_linear_370_2)"/>
<path d="M307.88 479.753L311.726 479.752L326.743 473.646L334.791 479.752H334.792C339.341 479.752 343.703 481.559 346.919 484.775C350.135 487.991 351.942 492.353 351.942 496.901V497.459L307.881 497.46L307.88 479.753Z" fill="#2F2E41"/>
<path d="M258.09 435.636H237.043V470.515H258.09V435.636Z" fill="#CACACA"/>
<path d="M257.036 454.092L254.334 458.073L304.848 492.35L307.549 488.369L257.036 454.092Z" fill="#CACACA"/>
<path d="M238.098 454.092L187.585 488.369L190.286 492.35L240.799 458.073L238.098 454.092Z" fill="#CACACA"/>
<path d="M306.198 496.974C309.851 496.974 312.813 494.012 312.813 490.359C312.813 486.706 309.851 483.744 306.198 483.744C302.545 483.744 299.583 486.706 299.583 490.359C299.583 494.012 302.545 496.974 306.198 496.974Z" fill="#CACACA"/>
<path d="M247.266 496.974C250.919 496.974 253.881 494.012 253.881 490.359C253.881 486.706 250.919 483.744 247.266 483.744C243.613 483.744 240.651 486.706 240.651 490.359C240.651 494.012 243.613 496.974 247.266 496.974Z" fill="#CACACA"/>
<path d="M188.935 496.974C192.589 496.974 195.55 494.012 195.55 490.359C195.55 486.706 192.589 483.744 188.935 483.744C185.282 483.744 182.321 486.706 182.321 490.359C182.321 494.012 185.282 496.974 188.935 496.974Z" fill="#CACACA"/>
<path d="M249.671 456.082H244.861V490.359H249.671V456.082Z" fill="#CACACA"/>
<path d="M252.077 404.968H243.057V451.272H252.077V404.968Z" fill="#CACACA"/>
<path d="M201.709 412.184V401.36C201.711 399.367 202.504 397.456 203.913 396.047C205.322 394.638 207.233 393.845 209.226 393.843H279.516C281.509 393.845 283.419 394.638 284.829 396.047C286.238 397.456 287.03 399.367 287.033 401.36V412.184C287.03 414.177 286.238 416.088 284.829 417.497C283.419 418.906 281.509 419.699 279.516 419.701H209.226C207.233 419.699 205.322 418.906 203.913 417.497C202.504 416.088 201.711 414.177 201.709 412.184Z" fill="#3F3D56"/>
<path d="M511.479 499.034H1.18452C0.869933 499.032 0.568849 498.906 0.347042 498.683C0.125235 498.46 0.000732422 498.158 0.000732422 497.843C0.000732422 497.529 0.125235 497.227 0.347042 497.004C0.568849 496.781 0.869933 496.654 1.18452 496.652H511.479C511.793 496.654 512.095 496.78 512.317 497.003C512.54 497.226 512.664 497.528 512.664 497.843C512.664 498.158 512.54 498.46 512.317 498.683C512.095 498.907 511.793 499.033 511.479 499.034V499.034Z" fill="#CACACA"/>
<path d="M192.154 340.285L243.154 341.285L245.005 355.812C245.005 355.812 334.154 351.285 342.005 369.812C359.683 411.53 375.005 459.812 375.005 459.812L353.005 466.812L310.005 394.812C310.005 394.812 190.154 430.285 199.154 370.285L192.154 340.285Z" fill="#2F2E41"/>
<path d="M346.429 382.69C341.196 427.697 330.005 469.812 330.005 469.812L309.005 466.812L313.788 381.939" fill="#2F2E41"/>
<path d="M234.417 231.025C247.952 231.025 258.924 220.053 258.924 206.518C258.924 192.983 247.952 182.011 234.417 182.011C220.882 182.011 209.91 192.983 209.91 206.518C209.91 220.053 220.882 231.025 234.417 231.025Z" fill="#F2EAC9"/>
<path d="M235.228 229.961C229.498 232.711 222.445 231.779 216.975 228.545C211.504 225.31 207.479 220.035 204.665 214.337C202.605 210.163 201.108 205.384 202.301 200.885C203.494 196.386 208.254 192.616 212.714 193.949C209.658 191.489 210.015 186.416 212.483 183.367C214.952 180.319 218.847 178.853 222.611 177.749C228.073 176.145 233.813 175.014 239.446 175.834C245.08 176.654 250.626 179.704 253.277 184.742C255.117 185.216 257.062 185.066 258.808 184.316C260.554 183.567 262.002 182.259 262.925 180.598C263.539 182.195 263.61 183.949 263.127 185.59C262.643 187.231 261.632 188.666 260.251 189.675L267.88 185.535C269.825 188.231 268.058 192.343 265.105 193.87C262.152 195.398 258.583 194.99 255.361 194.174C252.138 193.358 255.94 200.164 252.617 200.229C249.293 200.295 245.698 202.034 244.746 205.22C244.248 206.888 244.538 208.679 244.391 210.414C244.244 212.149 243.413 214.074 241.731 214.526C240.669 214.812 239.507 214.433 238.453 214.75C237.818 215.003 237.269 215.435 236.875 215.994C236.482 216.554 236.26 217.216 236.236 217.899C236.213 219.267 236.462 220.625 236.968 221.895C238.631 227.022 233.294 224.148 234.957 229.275" fill="#2F2E41"/>
<path d="M199.954 391.902L199.94 391.9L199.746 391.867L199.69 391.679C198.985 389.309 198.089 386.883 197.222 384.537C195.945 381.288 194.866 377.964 193.993 374.584C193.305 371.353 192.829 368.08 192.566 364.787C192.324 362.396 192.074 359.924 191.649 357.49C191.46 356.409 192.175 355.386 192.868 354.396C193.509 353.479 194.116 352.612 193.988 351.792C193.858 350.953 192.928 350.032 192.029 349.142C191.043 348.166 190.024 347.156 189.88 346.094C187.915 331.597 187.001 316.978 187.144 302.35C187.347 282.111 188.262 268.315 189.862 261.346C194.167 242.608 214.054 239.189 217.166 238.766C217.498 237.883 218.008 237.078 218.664 236.4C219.32 235.723 220.109 235.188 220.981 234.828C221.853 234.468 222.789 234.292 223.733 234.31C224.676 234.328 225.605 234.54 226.463 234.933L240.592 241.401C243.459 242.718 246.023 244.61 248.127 246.96C250.231 249.309 251.83 252.067 252.823 255.061L254.922 261.46L255.973 304.417L250.147 334.667L261.531 351.743C200.856 385.055 200.149 391.902 199.954 391.902Z" fill="url(#paint8_linear_370_2)"/>
<path d="M905.117 359.633C905.589 359.729 906.052 359.868 906.499 360.046L923.96 312.673L925.591 264.047C925.694 260.988 926.953 258.082 929.114 255.914C931.275 253.747 934.177 252.48 937.236 252.368C940.295 252.257 943.282 253.309 945.595 255.314C947.908 257.318 949.375 260.125 949.7 263.168C950.754 273.03 950.263 282.997 948.245 292.708L941.584 324.766L911.171 369.983C910.691 371.452 909.797 372.75 908.597 373.723C907.397 374.696 905.941 375.301 904.405 375.465C902.869 375.63 901.318 375.347 899.939 374.651C898.559 373.955 897.411 372.875 896.631 371.542C895.851 370.208 895.473 368.678 895.542 367.134C895.612 365.591 896.126 364.101 897.022 362.843C897.919 361.585 899.16 360.612 900.596 360.043C902.032 359.474 903.602 359.331 905.117 359.633L905.117 359.633Z" fill="url(#paint9_linear_370_2)"/>
<path d="M944.19 313.095L922.93 309.951L919.318 264.775C920.303 259.828 923.212 255.475 927.406 252.674C929.482 251.287 931.812 250.322 934.261 249.835C936.71 249.348 939.232 249.349 941.681 249.836C944.13 250.324 946.46 251.289 948.536 252.676C950.612 254.064 952.395 255.847 953.782 257.924C955.169 260 956.134 262.33 956.62 264.779C957.107 267.228 957.107 269.75 956.62 272.199L944.19 313.095Z" fill="#2F2E41"/>
<path d="M915.861 358.554H960.764V313.65H915.861V358.554Z" fill="url(#paint10_linear_370_2)"/>
<path d="M809.373 445.894L792.224 440.124L782.674 486.804L794.294 490.713L809.373 445.894Z" fill="url(#paint11_linear_370_2)"/>
<path d="M839.786 437.013L822.178 441.177L838.737 485.853L850.668 483.031L839.786 437.013Z" fill="url(#paint12_linear_370_2)"/>
<path d="M920.264 435.636H899.217V470.515H920.264V435.636Z" fill="#CACACA"/>
<path d="M900.272 454.092L849.758 488.369L852.46 492.35L902.973 458.073L900.272 454.092Z" fill="#CACACA"/>
<path d="M919.209 454.092L916.508 458.073L967.021 492.35L969.723 488.369L919.209 454.092Z" fill="#CACACA"/>
<path d="M851.109 496.974C854.762 496.974 857.724 494.012 857.724 490.359C857.724 486.706 854.762 483.744 851.109 483.744C847.456 483.744 844.494 486.706 844.494 490.359C844.494 494.012 847.456 496.974 851.109 496.974Z" fill="#CACACA"/>
<path d="M910.041 496.974C913.694 496.974 916.656 494.012 916.656 490.359C916.656 486.706 913.694 483.744 910.041 483.744C906.388 483.744 903.426 486.706 903.426 490.359C903.426 494.012 906.388 496.974 910.041 496.974Z" fill="#CACACA"/>
<path d="M968.372 496.974C972.025 496.974 974.987 494.012 974.987 490.359C974.987 486.706 972.025 483.744 968.372 483.744C964.719 483.744 961.757 486.706 961.757 490.359C961.757 494.012 964.719 496.974 968.372 496.974Z" fill="#CACACA"/>
<path d="M912.447 456.082H907.636V490.359H912.447V456.082Z" fill="#CACACA"/>
<path d="M914.251 404.968H905.23V451.272H914.251V404.968Z" fill="#CACACA"/>
<path d="M948.082 419.701H877.791C875.798 419.699 873.888 418.906 872.479 417.497C871.069 416.088 870.277 414.177 870.274 412.184V401.36C870.277 399.367 871.069 397.456 872.479 396.047C873.888 394.638 875.798 393.845 877.791 393.843H948.082C950.074 393.845 951.985 394.638 953.394 396.047C954.803 397.456 955.596 399.367 955.598 401.36V412.184C955.596 414.177 954.803 416.088 953.394 417.497C951.985 418.906 950.074 419.699 948.082 419.701V419.701Z" fill="#3F3D56"/>
<path d="M959.154 370.285C968.154 430.285 848.303 394.812 848.303 394.812L805.303 466.812L783.303 459.812C783.303 459.812 798.624 411.53 816.303 369.812C824.154 351.285 913.303 355.812 913.303 355.812L915.154 341.285L966.154 340.285L959.154 370.285Z" fill="#2F2E41"/>
<path d="M844.519 381.939L849.302 466.812L828.302 469.812C828.302 469.812 817.111 427.697 811.878 382.69" fill="#2F2E41"/>
<path d="M933.502 240.683L942.54 229.065L955.432 228.506L956.719 239.432L963.107 242.378C969.486 266.612 970.471 291.949 965.993 316.605C965.137 317.411 964.512 318.431 964.181 319.559C963.851 320.688 963.827 321.884 964.113 323.025L964.528 324.676L964.489 324.736C963.13 326.881 962.669 329.475 963.205 331.957L974.884 352.709C950.083 362.817 931.902 343.967 915.059 319.263L904.635 283.18L933.502 240.683Z" fill="url(#paint13_linear_370_2)"/>
<path d="M906.33 307.484L903.896 283.141L936.211 235.304L937.54 236.201L905.549 283.558L907.926 307.325L906.33 307.484Z" fill="#2F2E41"/>
<path d="M907.128 309.81C908.457 309.81 909.534 308.733 909.534 307.405C909.534 306.076 908.457 304.999 907.128 304.999C905.799 304.999 904.722 306.076 904.722 307.405C904.722 308.733 905.799 309.81 907.128 309.81Z" fill="#2F2E41"/>
<path d="M943.894 232.273C957.059 232.273 967.732 221.6 967.732 208.435C967.732 195.27 957.059 184.597 943.894 184.597C930.729 184.597 920.056 195.27 920.056 208.435C920.056 221.6 930.729 232.273 943.894 232.273Z" fill="#F2EAC9"/>
<path d="M947.491 179.423L950.383 180.193L951.366 180.455L962.372 183.384C972.127 185.981 977.668 196.983 974.746 207.958C980.14 217.308 975.466 225.98 966.972 234.394C956.082 232.9 945.038 232.913 934.152 234.434L934.342 228.133L929.523 235.215C926.772 235.747 924.013 236.395 921.244 237.159C927.536 224.768 932.175 211.97 932.965 201.279L927.925 199.938L929.393 194.422L926.214 199.482L917.077 197.05C917.917 193.896 919.369 190.938 921.352 188.345C923.335 185.752 925.809 183.575 928.633 181.938C931.458 180.301 934.577 179.236 937.812 178.805C941.048 178.374 944.337 178.584 947.491 179.423V179.423Z" fill="#2F2E41"/>
<path d="M967.807 194.157C974.007 194.157 979.033 189.131 979.033 182.931C979.033 176.731 974.007 171.705 967.807 171.705C961.607 171.705 956.581 176.731 956.581 182.931C956.581 189.131 961.607 194.157 967.807 194.157Z" fill="#2F2E41"/>
<path d="M928.113 365.854C928.594 365.856 929.075 365.901 929.548 365.989L937.426 316.119L929.534 268.11C929.037 265.09 929.704 261.994 931.401 259.446C933.097 256.899 935.696 255.089 938.674 254.383C941.652 253.676 944.787 254.126 947.447 255.64C950.107 257.154 952.094 259.62 953.007 262.542V262.542C955.965 272.009 957.429 281.879 957.346 291.797L957.071 324.539L936.07 374.823C935.886 376.357 935.263 377.805 934.276 378.993C933.288 380.182 931.979 381.059 930.504 381.521C929.03 381.982 927.454 382.007 925.965 381.594C924.477 381.181 923.139 380.346 922.114 379.19C921.089 378.034 920.419 376.607 920.186 375.08C919.953 373.553 920.166 371.991 920.8 370.582C921.434 369.173 922.461 367.977 923.758 367.138C925.056 366.3 926.568 365.854 928.113 365.854V365.854Z" fill="url(#paint14_linear_370_2)"/>
<path d="M957.349 312.584L935.884 313.65L923.523 270.048C923.523 265.005 925.526 260.168 929.093 256.601C932.659 253.035 937.496 251.031 942.54 251.031C947.583 251.031 952.42 253.035 955.986 256.601C959.553 260.168 961.556 265.005 961.556 270.048L957.349 312.584Z" fill="#2F2E41"/>
<path d="M804.484 497.285H796.778L795.403 490.01L791.881 497.285H771.444C770.465 497.285 769.511 496.972 768.721 496.391C767.932 495.811 767.35 494.993 767.058 494.058C766.766 493.123 766.782 492.119 767.101 491.193C767.42 490.267 768.028 489.467 768.834 488.91L785.154 477.639V470.285L802.319 471.309L804.484 497.285Z" fill="#2F2E41"/>
<path d="M855.053 494.4L847.411 495.384L845.118 488.344L842.553 496.009L822.283 498.617C821.312 498.742 820.326 498.554 819.469 498.079C818.612 497.604 817.93 496.867 817.521 495.977C817.113 495.086 817 494.089 817.198 493.129C817.397 492.17 817.897 491.3 818.625 490.645L833.373 477.383L832.435 470.088L849.591 468.914L855.053 494.4Z" fill="#2F2E41"/>
<path d="M644.642 497.847C644.641 497.691 644.672 497.536 644.731 497.391C644.79 497.246 644.878 497.115 644.988 497.004C645.098 496.893 645.229 496.805 645.373 496.745C645.518 496.684 645.672 496.653 645.829 496.652H1156.12C1156.44 496.654 1156.74 496.781 1156.96 497.004C1157.18 497.227 1157.31 497.529 1157.31 497.843C1157.31 498.158 1157.18 498.46 1156.96 498.683C1156.74 498.906 1156.44 499.032 1156.12 499.034H645.829C645.514 499.033 645.213 498.907 644.991 498.685C644.768 498.463 644.643 498.161 644.642 497.847V497.847Z" fill="#CACACA"/>
<path d="M920.264 215.157L908.357 214.265C907.34 214.187 906.397 213.71 905.732 212.938C905.067 212.165 904.736 211.161 904.811 210.145L905.947 194.975C906.025 193.958 906.502 193.014 907.274 192.349C908.047 191.684 909.052 191.353 910.068 191.428L921.976 192.321H921.976C922.993 192.397 923.937 192.874 924.602 193.647C925.267 194.419 925.598 195.424 925.522 196.441C927.3 200.77 933.966 203.453 924.385 211.611C924.347 212.114 924.211 212.606 923.984 213.056C923.756 213.507 923.442 213.909 923.059 214.238C922.677 214.567 922.233 214.818 921.753 214.976C921.274 215.133 920.768 215.195 920.264 215.157V215.157Z" fill="#3F3D56"/>
<path d="M909.467 191.249L912.159 191.516L910.205 214.911L907.512 214.644C907.004 214.593 906.511 214.442 906.062 214.198C905.613 213.955 905.217 213.624 904.897 213.226C904.236 212.416 903.916 211.38 904.006 210.338L905.304 194.796C905.366 193.968 905.693 193.182 906.236 192.554C906.78 191.926 907.512 191.49 908.322 191.311C908.698 191.231 909.085 191.211 909.467 191.249Z" fill="#6C63FF"/>
<path d="M972.735 211.708L918.971 207.679C918.313 207.629 917.703 207.32 917.273 206.821C916.843 206.321 916.629 205.671 916.678 205.014L916.978 201.001L916.978 201C917.003 200.674 917.091 200.357 917.238 200.065C917.386 199.774 917.589 199.514 917.836 199.302C918.083 199.089 918.37 198.927 918.68 198.825C918.991 198.723 919.318 198.683 919.643 198.707L973.408 202.736H973.408C974.065 202.786 974.676 203.094 975.106 203.594C975.536 204.093 975.75 204.743 975.701 205.401L975.4 209.415C975.376 209.74 975.287 210.058 975.14 210.349C974.993 210.641 974.79 210.9 974.543 211.113C974.295 211.326 974.008 211.488 973.698 211.59C973.388 211.692 973.061 211.732 972.735 211.708V211.708Z" fill="#3F3D56"/>
<path d="M911.843 200.926L911.842 200.926C911.303 200.872 910.807 200.606 910.463 200.186C910.12 199.767 909.956 199.228 910.009 198.689L910.332 195.434L910.335 195.408C910.392 194.869 910.66 194.374 911.082 194.033C911.504 193.692 912.043 193.532 912.583 193.589C913.122 193.646 913.617 193.915 913.958 194.337C914.299 194.758 914.458 195.298 914.402 195.837L914.079 199.092C914.052 199.359 913.974 199.619 913.847 199.856C913.72 200.093 913.548 200.302 913.341 200.472C913.133 200.643 912.894 200.77 912.637 200.848C912.38 200.926 912.11 200.952 911.843 200.926L911.843 200.926Z" fill="#3F3D56"/>
<path d="M911.447 209.458H911.446C910.905 209.43 910.396 209.188 910.033 208.785C909.67 208.382 909.482 207.852 909.511 207.31L909.681 204.043C909.71 203.502 909.952 202.995 910.355 202.632C910.758 202.27 911.288 202.082 911.829 202.11C912.37 202.139 912.878 202.38 913.241 202.783C913.604 203.185 913.792 203.715 913.765 204.256L913.595 207.523C913.581 207.791 913.515 208.054 913.399 208.297C913.284 208.539 913.122 208.757 912.922 208.937C912.723 209.116 912.49 209.255 912.236 209.345C911.983 209.434 911.715 209.473 911.447 209.458V209.458Z" fill="#3F3D56"/>
<path d="M977.683 339.1L974.615 339.065C971.674 339.028 968.867 337.826 966.811 335.723C964.755 333.62 963.617 330.787 963.648 327.846L963.673 300.588C963.709 297.646 964.911 294.84 967.015 292.784C969.118 290.728 971.951 289.59 974.892 289.62L977.96 289.655C980.901 289.692 983.708 290.894 985.764 292.997C987.82 295.1 988.958 297.933 988.928 300.874L988.903 328.132C988.866 331.073 987.664 333.88 985.561 335.936C983.457 337.992 980.624 339.13 977.683 339.1Z" fill="#3F3D56"/>
<path d="M920.989 407.059L923.295 403.792C928.857 407.708 935.493 409.811 942.295 409.812C960.522 409.814 980.3 353.512 980.302 335.285H984.302C984.279 355.71 962.727 413.788 942.302 413.812C934.669 413.828 927.22 411.468 920.989 407.059V407.059Z" fill="#3F3D56"/>
<path d="M280.432 373.797C280.016 372.387 279.297 371.085 278.324 369.983C277.351 368.881 276.148 368.006 274.8 367.419C273.452 366.832 271.992 366.548 270.522 366.586C269.053 366.625 267.61 366.985 266.294 367.642L240.734 342.668L237.213 360.901L262.025 381.821C263.274 383.957 265.264 385.561 267.617 386.329C269.97 387.096 272.523 386.974 274.792 385.985C277.061 384.996 278.888 383.209 279.928 380.963C280.967 378.716 281.146 376.167 280.432 373.797V373.797Z" fill="url(#paint15_linear_370_2)"/>
<path d="M251.855 375.132L201.4 334.668L201.431 334.394C201.489 333.871 207.327 281.866 210.329 271.066C212.076 264.522 216.009 258.772 221.475 254.772L221.616 254.681L221.783 254.693C225.197 254.958 228.419 256.379 230.918 258.721C233.417 261.063 235.042 264.186 235.528 267.576C237.783 283.956 236.201 300.635 230.905 316.299L227.883 325.205L260.208 359.699L251.855 375.132Z" fill="url(#paint16_linear_370_2)"/>
<path d="M163.109 337.788L162.683 307.557C162.607 304.617 163.701 301.766 165.724 299.631C167.747 297.496 170.534 296.251 173.474 296.169L176.542 296.086C179.482 296.01 182.332 297.104 184.467 299.127C186.602 301.15 187.848 303.938 187.93 306.878L188.357 337.109C188.432 340.049 187.339 342.9 185.316 345.035C183.292 347.17 180.505 348.415 177.565 348.497L174.498 348.58C171.557 348.656 168.707 347.562 166.572 345.539C164.437 343.516 163.192 340.728 163.109 337.788Z" fill="#3F3D56"/>
<path d="M212.005 410.285C191.58 410.261 169.028 362.71 169.005 342.285H173.005C173.007 360.512 193.785 406.287 212.012 406.285C218.814 406.284 225.45 404.181 231.012 400.265L233.318 403.532C227.087 407.941 219.638 410.301 212.005 410.285V410.285Z" fill="#3F3D56"/>
<path d="M256.344 219.975C255.517 219.769 254.777 219.304 254.232 218.648C253.688 217.991 253.368 217.178 253.319 216.326C243.53 207.676 250.5 205.019 252.429 200.559C252.369 199.503 252.731 198.466 253.436 197.677C254.141 196.888 255.13 196.411 256.187 196.351H256.187L268.564 195.652C269.62 195.593 270.657 195.956 271.446 196.661C272.235 197.366 272.712 198.355 272.773 199.411L273.663 215.178C273.721 216.234 273.359 217.27 272.654 218.059C271.949 218.848 270.96 219.326 269.904 219.386L257.528 220.086C257.13 220.108 256.731 220.071 256.344 219.975V219.975Z" fill="#3F3D56"/>
<path d="M270.378 195.563C271.216 195.765 271.967 196.231 272.519 196.893C273.071 197.555 273.396 198.378 273.444 199.238L274.495 215.394C274.568 216.477 274.217 217.546 273.515 218.375C273.176 218.782 272.758 219.117 272.287 219.361C271.817 219.606 271.302 219.753 270.774 219.797L267.974 220.022L266.392 195.702L269.191 195.477C269.589 195.444 269.989 195.474 270.378 195.563V195.563Z" fill="#6C63FF"/>
<path d="M202.368 215.432C201.833 215.299 201.354 214.998 201.002 214.574C200.65 214.149 200.443 213.623 200.412 213.073L200.176 208.901C200.138 208.218 200.372 207.547 200.828 207.037C201.284 206.527 201.924 206.218 202.607 206.18H202.607L258.487 203.024C258.825 203.005 259.164 203.052 259.484 203.164C259.804 203.276 260.098 203.45 260.351 203.675C260.604 203.901 260.81 204.174 260.957 204.479C261.104 204.785 261.19 205.116 261.209 205.454L261.209 205.455L261.444 209.627C261.482 210.31 261.248 210.98 260.792 211.49C260.336 212 259.697 212.309 259.014 212.348L203.134 215.504C202.876 215.519 202.618 215.495 202.368 215.432V215.432Z" fill="#3F3D56"/>
<path d="M265.861 205.42C265.429 205.313 265.042 205.073 264.754 204.733C264.465 204.394 264.291 203.973 264.255 203.53L263.982 200.145C263.958 199.867 263.988 199.588 264.072 199.322C264.156 199.056 264.292 198.809 264.471 198.596C264.65 198.382 264.87 198.206 265.117 198.078C265.365 197.949 265.635 197.871 265.912 197.846C266.19 197.822 266.47 197.853 266.736 197.937C267.001 198.021 267.248 198.156 267.462 198.336C267.675 198.515 267.851 198.734 267.98 198.982C268.108 199.229 268.187 199.499 268.211 199.777L268.213 199.804L268.486 203.189C268.531 203.75 268.351 204.305 267.986 204.734C267.622 205.163 267.102 205.429 266.541 205.475L266.541 205.475C266.313 205.494 266.083 205.475 265.861 205.42V205.42Z" fill="#3F3D56"/>
<path d="M266.203 214.278C265.756 214.166 265.357 213.911 265.067 213.552C264.777 213.193 264.612 212.75 264.596 212.289L264.482 208.895C264.473 208.616 264.518 208.339 264.616 208.078C264.714 207.817 264.863 207.578 265.053 207.374C265.243 207.17 265.472 207.006 265.726 206.891C265.98 206.776 266.254 206.712 266.532 206.702C266.811 206.693 267.088 206.738 267.349 206.836C267.61 206.934 267.85 207.083 268.053 207.273C268.257 207.463 268.421 207.692 268.536 207.946C268.651 208.2 268.716 208.474 268.725 208.752L268.839 212.146C268.849 212.425 268.803 212.703 268.705 212.964C268.607 213.225 268.459 213.464 268.268 213.667C268.078 213.871 267.849 214.035 267.596 214.15C267.342 214.266 267.068 214.33 266.789 214.339H266.789C266.592 214.346 266.395 214.325 266.203 214.278V214.278Z" fill="#3F3D56"/>
<path d="M714.941 277.292L425.762 235.085V42.209L714.941 0V277.292ZM427.762 233.355L712.941 274.979V2.31349L427.762 43.9385L427.762 233.355Z" fill="#3F3D56"/>
<path opacity="0.1" d="M643.5 246C626.655 246 613 243.985 613 241.5C613 239.015 626.655 237 643.5 237C660.345 237 674 239.015 674 241.5C674 243.985 660.345 246 643.5 246Z" fill="#6C63FF"/>
<path d="M613.838 124.545C613.838 124.545 615.061 124.378 615.061 122.643C615.061 120.908 615.936 117.668 615.936 117.668C615.936 117.653 616.693 112.024 617.739 111.129C618.784 110.235 620.128 104.981 620.128 104.981C620.128 104.981 620.358 102.13 620.826 101.517C621.295 100.903 621.928 99.4008 622.862 97.2577C623.796 95.1145 627.69 93.6303 627.69 93.6303C627.69 93.6303 634.731 89.6522 636.726 88.3555C636.907 88.2489 637.077 88.1243 637.232 87.9837C637.579 87.5393 639.093 87.5302 639.093 87.5302C639.252 86.5569 639.404 85.4384 639.453 84.4258C639.453 84.317 639.453 84.2082 639.469 84.0993C637.244 82.8182 635.568 80.7983 634.749 78.4104C634.712 78.2955 634.681 78.1746 634.647 78.0597C634.514 78.017 634.391 77.9476 634.287 77.8559C634.182 77.7643 634.099 77.6525 634.042 77.5277C633.862 77.1378 633.859 76.6813 633.635 76.3186C633.375 75.8894 632.878 75.6596 632.487 75.3362C631.5 74.52 631.246 73.1446 631.293 71.8932C631.324 70.8806 631.491 69.8588 631.426 68.8522L631.407 68.5983C631.389 68.4472 631.367 68.296 631.339 68.151C631.187 67.4013 630.855 66.694 630.669 65.9503C630.483 65.2067 630.464 64.3694 630.898 63.7286C631.535 62.7885 632.86 62.6011 634.023 62.5043C635.342 62.3955 636.521 62.5376 637.365 61.4705C637.76 60.9128 638.204 60.3899 638.693 59.9077C638.867 59.7505 640.555 58.747 640.555 58.6805C642.202 57.9371 644.07 57.7976 645.814 58.2875C646.69 58.5354 647.515 58.9404 648.402 59.143C650.317 59.5843 652.52 59.1067 654.146 60.1737C655.052 60.7783 655.595 61.7396 656.104 62.6766C656.518 63.4485 656.938 64.2193 657.364 64.9891C658.05 66.2556 658.748 67.5434 659.036 68.946C659.097 69.2512 659.134 69.5603 659.148 69.8709V69.8861C659.148 69.9979 659.148 70.1097 659.148 70.2216V70.3637C659.148 70.4695 659.148 70.5722 659.129 70.6659C659.111 70.7596 659.114 70.7899 659.105 70.8533C659.095 70.9168 659.08 71.0589 659.061 71.1556C659.042 71.2524 659.005 71.4216 658.968 71.5546C658.952 71.6121 658.931 71.6665 658.912 71.7209C658.881 71.8237 658.844 71.9234 658.804 72.0232C658.782 72.0746 658.76 72.129 658.735 72.1804C658.689 72.2862 658.633 72.3889 658.577 72.4827C658.552 72.525 658.534 72.5643 658.509 72.6036C658.422 72.7441 658.327 72.8794 658.223 73.0086C657.559 73.8157 656.582 74.3296 655.859 75.0853C655.859 75.1155 655.859 75.1457 655.859 75.173C655.859 75.2576 655.859 75.3392 655.859 75.4238C655.82 77.1092 655.36 78.76 654.517 80.2324C653.675 81.7049 652.476 82.9545 651.024 83.8726C651.024 83.9875 651.009 84.1054 651.003 84.2202C650.942 85.1175 650.954 86.018 651.037 86.9136C651.163 86.7686 651.321 86.6531 651.5 86.5757C651.678 86.4983 651.872 86.4608 652.067 86.4662C652.2 86.4599 652.334 86.471 652.464 86.4995L652.492 86.4783V86.5055C653.175 86.6687 654.016 87.3609 654.819 89.3288C654.819 89.3288 657.264 92.0131 659.126 91.9012C660.988 91.7894 665.701 94.6943 665.701 94.6943C665.701 94.6943 670.3 97.6023 671.287 100.565C671.838 102.244 672.5 103.888 673.267 105.486L678.951 116.897L680 125.95C680 125.95 679.42 129.977 679.535 130.59C679.649 131.204 677.148 136.739 677.148 136.739C677.148 136.739 668.885 150.882 665.509 151.608L665.267 151.442C665.123 151.515 664.969 151.571 664.811 151.608L664.116 151.13C664.074 151.663 664.092 152.198 664.169 152.726C664.634 154.123 663.995 163.237 663.182 165.023C662.369 166.81 662.657 190.233 662.657 190.233L662.772 192.301C662.772 192.301 662.772 192.368 662.744 192.482L662.772 192.972L662.688 193.014C662.601 193.67 662.63 194.336 662.772 194.982C663.064 195.889 663.182 198.452 663.182 198.452C663.182 198.452 665.506 212.926 664.404 215.834C663.303 218.742 662.366 221.928 662.366 221.928C662.366 221.928 661.202 225.555 662.31 226.175C663.418 226.794 666.567 227.834 665.919 229.346C665.329 230.742 663.092 234.484 662.76 235.032L662.788 235.319L663.244 240.134C663.17 240.77 662.993 241.39 662.72 241.972C662.22 243.021 661.249 244.109 659.402 243.991C659.092 243.97 658.732 243.934 658.385 243.888C655.006 243.447 650.844 241.978 650.844 241.978C651.06 241.844 651.258 241.685 651.434 241.503V241.503C651.6 241.347 651.732 241.159 651.821 240.951C651.91 240.743 651.955 240.52 651.952 240.294C651.903 239.418 653.587 235.24 654.006 234.212C654.072 234.064 654.106 233.98 654.106 233.98C654.106 233.98 650.264 230.068 650.903 226.601C650.903 226.601 655.154 224.183 653.755 222.856C652.356 221.529 649.855 217.717 649.855 217.717C649.855 217.717 649.74 203.464 649.855 201.336C649.974 199.859 649.902 198.373 649.64 196.914C649.594 196.693 649.538 196.479 649.479 196.267C647.544 196.548 645.59 196.693 643.633 196.699C642.919 196.699 642.193 196.699 641.461 196.657C641.461 196.858 641.452 197.076 641.433 197.31C641.272 200.841 640.971 207.031 640.726 209.332C640.378 212.629 638.457 221.517 638.457 221.517C638.457 221.517 642.122 223.808 637.818 229.454C637.818 229.454 637.818 231.501 638.104 231.797C638.408 232.766 638.654 233.751 638.839 234.747C639.019 235.811 639.093 236.888 638.802 237.447C638.104 238.783 633.915 238.674 633.915 238.674L633.812 238.656C633.021 238.576 632.222 238.65 631.461 238.874C630.7 239.098 629.992 239.466 629.378 239.959C627.786 241.204 621.745 240.657 618.474 240.261C617.193 240.104 616.336 239.959 616.336 239.959C616.295 239.817 616.28 239.67 616.293 239.523C616.327 238.741 616.957 237.024 621.226 235.491C621.226 235.491 625.242 232.861 625.186 230.57H625.27H625.735C625.397 230.552 625.18 230.57 625.18 230.57C625.18 230.57 626.753 224.978 626.111 224.524C625.468 224.071 627.392 217.874 627.392 217.874C627.392 217.874 628.494 207.476 628.553 206.747C628.55 206.122 628.453 205.501 628.264 204.903L628.553 199.202C628.553 199.202 628.608 197.307 628.553 196.69C628.562 196.155 628.607 195.621 628.686 195.091C628.714 194.88 628.742 194.659 628.773 194.441C627.268 194.069 626.291 193.725 626.291 193.725L626.464 173.88C625.186 171.462 624.95 166.157 624.956 162.393C624.956 159.975 625.068 158.186 625.068 158.186L623.321 155.408C623.321 155.408 622.918 152.082 623.557 151.354C623.839 151.024 623.712 150.683 623.479 150.402C623.358 150.308 623.231 150.224 623.098 150.148C623.098 150.148 623.116 150.121 623.138 150.081C623.016 149.982 622.886 149.892 622.75 149.812C622.75 149.812 623.371 148.875 622.815 148.479C622.294 148.824 621.828 149.084 621.475 149.295C621.5 149.516 621.524 149.643 621.524 149.643L621.375 149.341C621.034 149.528 620.826 149.643 620.826 149.643C620.826 149.643 618.089 144.332 618.148 143.549C618.207 142.766 616.287 139.468 616.287 139.468C616.287 139.468 616.054 137.736 615.005 137.011C613.956 136.285 614.192 131.029 614.192 131.029C614.192 131.029 613.9 128.29 613.202 127.171C612.504 126.053 613.838 124.545 613.838 124.545ZM666.204 122.214L666.151 123.481C666.462 122.994 666.685 122.643 666.685 122.643L666.204 122.214Z" fill="url(#paint17_linear_370_2)"/>
<path d="M620 147.893L620.742 151C620.742 151 626.688 148.018 627.76 144.228C628.832 140.439 625.966 139 625.966 139L620.426 141.307L620 147.893Z" fill="white"/>
<path opacity="0.1" d="M620 147.893L620.742 151C620.742 151 626.688 148.018 627.76 144.228C628.832 140.439 625.966 139 625.966 139L620.426 141.307L620 147.893Z" fill="black"/>
<path d="M651 241.839C651 241.839 655.497 243.75 658.588 243.99C660.229 244.117 661.092 242.954 661.536 241.833C661.779 241.209 661.935 240.546 662 239.866L661.598 234.716L661.385 231.973L654.817 230L653.886 233.289L653.799 233.539C653.425 234.638 651.927 239.106 651.972 240.039C651.974 240.278 651.934 240.514 651.855 240.735C651.776 240.955 651.659 241.155 651.511 241.322C651.361 241.519 651.189 241.693 651 241.839V241.839Z" fill="white"/>
<path d="M617.004 238.812C616.992 238.956 617.006 239.101 617.047 239.24C617.047 239.24 627.527 240.95 629.67 239.24C630.275 238.74 630.979 238.37 631.739 238.152C632.498 237.934 633.296 237.874 634.08 237.976C634.08 237.976 638.135 238.084 638.812 236.778C639.093 236.23 639.02 235.167 638.845 234.118C638.667 233.136 638.43 232.165 638.135 231.21L637.973 231.084L637.008 230.326L625.714 230H625.628C625.683 232.258 621.794 234.849 621.794 234.849C617.663 236.347 617.053 238.039 617.004 238.812Z" fill="white"/>
<path opacity="0.1" d="M617.003 238.788C616.993 238.935 617.008 239.083 617.049 239.225C617.049 239.225 627.527 240.969 629.671 239.225C630.275 238.715 630.979 238.338 631.738 238.116C632.497 237.894 633.294 237.832 634.078 237.935C634.078 237.935 638.136 238.045 638.81 236.713C639.092 236.151 639.022 235.069 638.847 234C637.285 234.156 634.819 234.544 633.852 235.47C632.388 236.878 629.907 238.284 628.385 238.394C627.193 238.47 620.066 238.696 617.003 238.788Z" fill="black"/>
<path opacity="0.1" d="M651 241.564C651 241.564 655.269 243.718 658.204 243.989C659.762 244.132 660.581 242.821 661 241.553C659.914 242.055 658.407 242.583 657.614 242.099C656.675 241.528 653.345 241.158 651.478 241C651.335 241.214 651.175 241.403 651 241.564V241.564Z" fill="black"/>
<path d="M643.667 98.6372C647.802 97.0438 653.12 91.7787 651.792 89.3186C651.497 88.6978 651.322 88.0278 651.276 87.3431C651.19 86.4136 651.178 85.4789 651.238 84.5475C651.331 83.022 651.516 81.5035 651.792 80C651.792 80 638.884 80.2889 639.636 82.1743C639.855 82.7273 639.89 83.6871 639.83 84.7618C639.771 85.8366 639.614 87.0511 639.451 88.0792C639.226 89.4895 639 90.5642 639 90.5642C639 90.5642 639.789 91.6607 640.253 91.7197C640.717 91.7787 637.735 100.908 643.667 98.6372Z" fill="url(#paint18_linear_370_2)"/>
<path opacity="0.1" d="M653 232.923L653.089 233.015C656.641 229.015 660.937 234 660.937 234L661 233.895L660.781 231.63L654.044 230L653.089 232.717L653 232.923Z" fill="black"/>
<path opacity="0.1" d="M625 230.451C625 230.451 628.086 230.373 629.732 232.128C631.377 233.884 639.332 232.509 638.989 232.128C638.888 231.939 638.826 231.723 638.811 231.499L637.731 230.451L625.086 230C625.038 230.277 625 230.451 625 230.451Z" fill="black"/>
<path d="M649.031 195.772C649.232 196.256 649.385 196.758 649.487 197.271C649.737 198.675 649.806 200.105 649.694 201.526C649.583 203.572 649.694 217.281 649.694 217.281C649.694 217.281 652.065 220.937 653.388 222.226C654.71 223.514 650.689 225.829 650.689 225.829C650.089 229.16 653.723 232.925 653.723 232.925C657.417 228.57 661.885 234 661.885 234C661.885 234 664.314 229.909 664.92 228.447C665.525 226.986 662.548 225.975 661.501 225.382C660.455 224.789 661.552 221.29 661.552 221.29C661.552 221.29 662.437 218.225 663.486 215.428C664.536 212.631 662.329 198.709 662.329 198.709C662.329 198.709 662.215 196.236 661.942 195.374C661.804 194.752 661.777 194.112 661.861 193.481C661.879 193.267 661.9 193.089 661.915 192.969C661.93 192.849 661.942 192.794 661.942 192.794L661.9 192.724L660.401 190C660.401 190 648.311 194.056 649.031 195.772Z" fill="#3F3D56"/>
<path d="M625 230.156C625 230.156 627.963 230.098 629.543 231.368C631.123 232.638 638.761 231.647 638.431 231.368C638.102 231.089 638.129 229.025 638.129 229.025C642.609 223.393 638.787 221.108 638.787 221.108C638.787 221.108 640.789 212.242 641.151 208.953C641.404 206.656 641.717 200.481 641.885 196.956C641.957 195.44 642 194.398 642 194.398L638.339 193.719L637.869 193.631L629.039 192C629.039 192 628.796 193.516 628.631 194.755C628.549 195.285 628.503 195.818 628.493 196.353C628.552 196.959 628.493 198.856 628.493 198.856L628.193 204.546C628.389 205.143 628.49 205.762 628.493 206.386C628.434 207.11 627.285 217.483 627.285 217.483C627.285 217.483 625.286 223.672 625.968 224.118C626.649 224.563 625 230.156 625 230.156Z" fill="#3F3D56"/>
<path opacity="0.1" d="M639.034 82.421C639.268 83.0367 639.304 84.1054 639.241 85.3021C641.085 86.4517 643.205 87.0395 645.357 86.9979C647.51 86.9563 649.607 86.287 651.409 85.0669C651.508 83.3672 651.705 81.6752 652 80C652 80 638.232 80.3147 639.034 82.421Z" fill="black"/>
<path d="M635.005 76.0949C635.002 77.2437 635.176 78.3854 635.52 79.4772C636.289 81.9233 637.865 84.0084 639.971 85.3639C642.076 86.7193 644.575 87.2579 647.025 86.8845C649.476 86.511 651.721 85.2495 653.363 83.323C655.005 81.3964 655.938 78.9288 655.998 76.3563C655.998 76.2671 655.998 76.1842 655.998 76.0949C656.022 74.6469 655.768 73.2085 655.251 71.8635C654.735 70.5186 653.965 69.294 652.988 68.2612C652.011 67.2285 650.845 66.4082 649.56 65.8483C648.274 65.2884 646.894 65 645.5 65C644.106 65 642.726 65.2884 641.44 65.8483C640.155 66.4082 638.989 67.2285 638.012 68.2612C637.035 69.294 636.265 70.5186 635.749 71.8635C635.232 73.2085 634.978 74.6469 635.002 76.0949H635.005Z" fill="url(#paint19_linear_370_2)"/>
<path opacity="0.1" d="M643.667 98.6576C647.802 97.1539 653.12 92.1857 651.792 89.8642C651.497 89.2784 651.322 88.6461 651.276 88L645.615 92.3527L642.114 95.0406L639.451 88.6976C639.226 90.0283 639 91.0425 639 91.0425C639 91.0425 639.789 92.0772 640.253 92.1329C640.717 92.1886 637.735 100.8 643.667 98.6576Z" fill="black"/>
<path d="M630 118.215L634.576 194.611L640.545 195L656 150.702L653.465 98.1113L652.931 87L646.059 92.6084L642.665 95.3719L640.011 88.6605L635.077 92.9339L630 118.215Z" fill="#3F3D56"/>
<path opacity="0.1" d="M649.029 195.552C649.215 196.02 649.357 196.505 649.451 197C653.433 196.376 657.301 195.15 660.925 193.362L661 193.322L660.975 192.868L660.961 192.631L659.571 190C659.571 190 648.361 193.895 649.029 195.552Z" fill="black"/>
<path opacity="0.1" d="M637 196.646C638.604 196.821 640.222 196.939 641.847 197C641.943 195.596 642 194.629 642 194.629L637.127 194L637 196.646Z" fill="black"/>
<path opacity="0.1" d="M630 194.999C631.774 195.609 634.513 196.295 636.965 195.866L637 193.775L630.309 192C630.309 192 630.125 193.633 630 194.999Z" fill="black"/>
<path opacity="0.1" d="M637 196.551C649.965 198.673 661.838 192.588 661.838 192.588L661.725 190.527C661.725 190.527 661.431 167.157 662.246 165.365C663.062 163.573 663.698 154.488 663.236 153.093C662.774 151.699 664.921 130.787 664.921 130.787L665.269 122.298L678 117.354L672.308 105.98C671.539 104.385 670.878 102.744 670.329 101.068C669.339 98.1156 664.744 95.2144 664.744 95.2144C664.744 95.2144 660.033 92.3162 658.17 92.4254C656.308 92.5345 653.867 89.8607 653.867 89.8607C652.064 85.4558 650.433 87.4506 650.433 87.4506C650.433 87.6597 650.433 87.4506 650.521 88.1024C651.154 92.9377 640.295 108.217 640.14 108.487L639.106 132.636L638.059 163.197L637 196.551Z" fill="black"/>
<path d="M637 196.551C649.962 198.673 661.836 192.589 661.836 192.589L661.719 190.528C661.719 190.528 661.425 167.162 662.244 165.37C663.062 163.579 663.695 154.495 663.23 153.1C662.765 151.706 664.915 130.798 664.915 130.798L665.266 122.311L678 117.349L672.31 105.976C671.543 104.381 670.882 102.741 670.33 101.066C669.344 98.1138 664.747 95.2131 664.747 95.2131C664.747 95.2131 660.037 92.3154 658.178 92.4245C656.319 92.5336 653.875 89.8602 653.875 89.8602C652.07 85.4561 650.082 87.4505 650.082 87.4505C650.082 87.6596 650.271 87.7536 650.17 88.1022C648.779 92.7912 640.294 108.213 640.139 108.483L639.093 132.629L638.046 163.185L637 196.551Z" fill="white"/>
<path opacity="0.1" d="M642 110C643.284 109.428 650.088 101.145 650.088 101.145V99.2594C650.335 98.6381 651.806 99.0171 653 99.4519L652.487 88L651.905 88.5156C650.629 93.3175 642.149 109.724 642 110Z" fill="black"/>
<path d="M641 109C642.404 108.428 649.824 100.145 649.824 100.145V98.2594C650.094 97.6381 651.698 98.0171 653 98.4519L652.438 87L651.803 87.5156C650.408 92.3175 641.156 108.727 641 109Z" fill="white"/>
<path opacity="0.1" d="M661.373 148.886C661.219 148.886 653.425 148 653.425 148C653.425 148 648.705 158.036 649.015 160.478C649.324 162.92 649.884 165.081 651.783 164.699C653.681 164.316 662 165 662 165L661.373 148.886Z" fill="black"/>
<path d="M661.373 147.938C661.219 147.938 653.425 147 653.425 147C653.425 147 648.708 157.63 649.014 160.212C649.321 162.794 649.887 165.086 651.783 164.681C653.678 164.275 662 165 662 165L661.373 147.938Z" fill="white"/>
<path d="M656.212 144C656.212 144 648.177 148.248 648.005 149.545C647.833 150.842 652.095 148.978 653.015 148.753C653.621 148.61 654.238 148.515 654.86 148.47L661 148.633L656.212 144Z" fill="url(#paint20_linear_370_2)"/>
<path opacity="0.1" d="M644.5 110C643.672 110 643 109.776 643 109.5C643 109.224 643.672 109 644.5 109C645.328 109 646 109.224 646 109.5C646 109.776 645.328 110 644.5 110Z" fill="black"/>
<path d="M644.5 110C643.672 110 643 109.552 643 109C643 108.448 643.672 108 644.5 108C645.328 108 646 108.448 646 109C646 109.552 645.328 110 644.5 110Z" fill="#3F3D56"/>
<path d="M644 127C643.448 127 643 126.776 643 126.5C643 126.224 643.448 126 644 126C644.552 126 645 126.224 645 126.5C645 126.776 644.552 127 644 127Z" fill="#3F3D56"/>
<path d="M623.627 147.199C623.627 147.199 623.066 148.032 623.627 148.421C624.189 148.811 623.573 149.752 623.573 149.752C623.573 149.752 624.973 150.564 624.357 151.295C623.74 152.025 624.131 155.324 624.131 155.324L625.815 158.082C625.815 158.082 625.715 159.86 625.708 162.263C625.708 166.011 625.931 171.281 627.164 173.683L626.993 193.395C626.993 193.395 632.891 195.526 637.828 194.877L638.561 163.247C638.561 163.247 637.493 145.31 637.099 141.869C636.869 140.083 636.775 138.282 636.818 136.481C636.818 136.481 636.986 131.097 637.551 128.598C637.551 128.598 638.161 117.772 638.222 114.775C638.249 113.341 638.173 109.158 638.088 105.18C637.993 100.831 637.886 96.729 637.886 96.729L639 88.0125C639 88.0125 637.886 87.9008 637.551 88.3445C637.4 88.4834 637.237 88.6078 637.062 88.7158V88.7158C635.14 90.0015 628.348 93.9553 628.348 93.9553C628.348 93.9553 624.589 95.4342 623.688 97.553C622.788 99.6717 622.163 101.175 621.726 101.778C621.29 102.382 621.052 105.219 621.052 105.219C621.052 105.219 619.758 110.441 618.748 111.325C617.738 112.209 617 117.835 617 117.835L625.925 124.777C625.925 124.777 626.709 136.324 626.877 136.771C627.045 137.218 623.627 147.199 623.627 147.199Z" fill="white"/>
<path d="M623.514 147.237C623.514 147.237 622.965 148.069 623.514 148.458C624.064 148.847 623.463 149.788 623.463 149.788C623.463 149.788 624.833 150.608 624.232 151.338C623.632 152.067 624.01 155.363 624.01 155.363L625.668 158.119C625.668 158.119 625.569 159.895 625.56 162.295C625.56 166.04 625.779 171.304 626.992 173.704L626.827 193.397C626.827 193.397 632.642 195.525 637.495 194.877L638.213 163.278C638.213 163.278 637.162 145.358 636.774 141.921C636.547 140.137 636.456 138.337 636.501 136.539C636.501 136.539 636.666 131.16 637.219 128.663C637.219 128.663 637.82 117.848 637.883 114.853C637.91 113.421 637.832 109.242 637.751 105.268C637.657 100.923 637.552 96.8255 637.552 96.8255L639 88C639 88 637.552 88 637.219 88.4493C637.072 88.5897 636.911 88.714 636.738 88.8201C634.846 90.1046 628.158 94.0545 628.158 94.0545C628.158 94.0545 624.46 95.532 623.574 97.6487C622.688 99.7654 622.073 101.267 621.64 101.87C621.208 102.473 620.98 105.307 620.98 105.307C620.98 105.307 619.706 110.524 618.712 111.407C617.718 112.291 617 117.899 617 117.899L625.785 124.834C625.785 124.834 626.557 136.37 626.725 136.816C626.893 137.263 623.514 147.237 623.514 147.237Z" fill="white"/>
<path opacity="0.1" d="M635.016 99.5586L634.333 101.844L637.925 106C637.845 101.726 637.755 97.6885 637.755 97.6885L639 89C639 89 637.755 89 637.468 89.4423C637.342 89.5802 637.203 89.7016 637.054 89.8044L634 99.9267L635.016 99.5586Z" fill="black"/>
<path d="M635.018 98.5586L634.333 100.844L637.923 105C637.843 100.723 637.753 96.6885 637.753 96.6885L639 88C639 88 637.753 88 637.468 88.4423C637.342 88.5797 637.203 88.702 637.055 88.8074L634 98.9267L635.018 98.5586Z" fill="white"/>
<path opacity="0.1" d="M635.005 75.3465C635.002 76.4178 635.176 77.4825 635.52 78.5006C635.578 78.5094 635.637 78.5068 635.694 78.493C635.751 78.4792 635.805 78.4545 635.851 78.4203C635.931 75.7449 637.291 73.2329 638.963 71.0955C639.432 70.4502 640.002 69.8787 640.65 69.4011C641.306 68.9237 642.122 68.7001 642.939 68.7738C643.86 68.8957 644.673 69.5022 645.603 69.5795C646.83 69.6776 647.929 68.8541 649.147 68.8125C649.642 68.8171 650.13 68.9239 650.58 69.1259C651.029 69.3278 651.429 69.6203 651.752 69.9837C652.392 70.7172 652.867 71.5716 653.148 72.4927C653.63 73.8894 653.893 75.3485 653.927 76.821C653.943 77.6534 654.025 78.6968 654.823 79C654.763 78.3878 654.835 77.7703 655.034 77.1864C655.233 76.6026 655.555 76.0651 655.98 75.6081L655.998 75.5903C655.998 75.5071 655.998 75.4298 655.998 75.3465C656.022 73.9962 655.768 72.6548 655.251 71.4006C654.735 70.1463 653.965 69.0043 652.988 68.0412C652.011 67.0781 650.845 66.3132 649.56 65.7911C648.274 65.2689 646.894 65 645.5 65C644.106 65 642.726 65.2689 641.44 65.7911C640.155 66.3132 638.989 67.0781 638.012 68.0412C637.035 69.0043 636.265 70.1463 635.749 71.4006C635.232 72.6548 634.978 73.9962 635.002 75.3465H635.005Z" fill="black"/>
<path d="M641.14 60.6286C642.806 59.9429 644.701 59.8132 646.468 60.2639C647.356 60.494 648.193 60.8671 649.094 61.055C651.017 61.4618 653.261 61.0213 654.912 62.006C655.829 62.567 656.38 63.4535 656.893 64.3147L658.175 66.4523C658.874 67.622 659.58 68.8114 659.871 70.099C660.163 71.3866 659.987 72.8285 659.054 73.8636C658.374 74.6182 657.371 75.0923 656.634 75.8021C656.192 76.2337 655.857 76.7406 655.649 77.2909C655.442 77.8412 655.367 78.4231 655.428 79C654.591 78.7195 654.511 77.732 654.492 76.9466C654.456 75.5571 654.182 74.1802 653.678 72.8622C653.385 71.9927 652.888 71.1863 652.219 70.4946C651.881 70.1519 651.464 69.8761 650.994 69.6855C650.525 69.4949 650.015 69.394 649.498 69.3893C648.215 69.4286 647.064 70.2028 645.795 70.1103C644.833 70.0401 643.981 69.4651 643.012 69.3529C642.159 69.2822 641.306 69.4933 640.621 69.9448C639.943 70.3948 639.35 70.9342 638.861 71.5437C637.111 73.5607 635.691 75.9255 635.607 78.4558C635.245 78.6886 634.723 78.3857 634.543 78.0266C634.363 77.6675 634.357 77.2467 634.129 76.9045C633.867 76.509 633.363 76.2986 632.969 76.0012C631.969 75.2466 631.719 73.9759 631.757 72.8229C631.796 71.67 632.052 70.5002 631.802 69.3669C631.651 68.6712 631.312 68.0204 631.126 67.3331C630.94 66.6458 630.917 65.8744 631.357 65.2825C631.998 64.4129 633.347 64.2417 634.524 64.1604C635.861 64.0594 637.056 64.1884 637.909 63.2038C638.309 62.69 638.76 62.2076 639.255 61.7619C639.425 61.6161 641.14 60.6903 641.14 60.6286Z" fill="#2F2E41"/>
<path opacity="0.1" d="M673.798 122.919L676.989 117L678 126.132C678 126.132 677.438 130.188 677.551 130.81C677.664 131.432 675.248 137.007 675.248 137.007C675.248 137.007 667.268 151.265 664.01 152L653 144.109L655.92 140.389C655.92 140.389 656.93 139.994 657.184 140.389C657.184 140.389 662.605 131.034 663.167 130.357C663.729 129.68 663.619 128.329 663.619 128.329C663.619 128.329 664.462 127.428 664.181 126.582C663.9 125.737 665.808 122.805 665.808 122.805L664.068 121.172L673.798 122.919Z" fill="black"/>
<path d="M677.072 117L677.949 117.661L679 126.621C679 126.621 678.416 130.6 678.533 131.21C678.651 131.821 676.135 137.291 676.135 137.291C676.135 137.291 667.84 151.279 664.452 152L653 144.258L656.039 140.609C656.039 140.609 657.09 140.221 657.354 140.609C657.354 140.609 662.991 131.43 663.575 130.766C664.16 130.101 664.042 128.776 664.042 128.776C664.042 128.776 664.919 127.892 664.626 127.063C664.334 126.233 666.322 123.357 666.322 123.357L664.512 121.755L677.072 117Z" fill="white"/>
<path opacity="0.1" d="M624.768 152.596C624.17 153.359 624.547 156.787 624.547 156.787L626.196 159.659C626.196 159.659 626.097 161.512 626.091 164.01L628.863 164.921C629.114 165.004 629.379 165.022 629.638 164.974C629.897 164.926 630.14 164.814 630.35 164.648C630.559 164.481 630.727 164.263 630.84 164.014C630.953 163.765 631.007 163.491 630.999 163.215L630.521 147L624.054 149.601C624.603 150.004 624 150.99 624 150.99C624 150.99 625.371 151.832 624.768 152.596Z" fill="black"/>
<path d="M623.877 152.278C623.195 152.998 623.625 156.236 623.625 156.236L625.508 158.946C625.508 158.946 625.396 160.693 625.385 163.053L628.61 163.928C628.891 164.004 629.188 164.02 629.477 163.976C629.766 163.932 630.039 163.828 630.272 163.674C630.506 163.519 630.694 163.319 630.82 163.089C630.947 162.858 631.008 162.605 630.999 162.35L630.45 147L623.058 149.455C623.689 149.835 623 150.763 623 150.763C623 150.763 624.56 151.56 623.877 152.278Z" fill="white"/>
<path d="M623 144.464C623 144.464 623.339 147.338 624.189 147.506C625.039 147.675 625.42 152.155 626.268 151.996C627.115 151.837 626.554 147.831 626.524 147.053C626.494 146.276 627.448 143.057 626.734 142.325C626.021 141.594 623.762 142.325 623.762 142.325L623 144.464Z" fill="url(#paint21_linear_370_2)"/>
<path opacity="0.1" d="M620.028 123.257L617.875 119C617.875 119 617.019 122.245 617.019 123.978C617.019 125.711 615.822 125.882 615.822 125.882C615.822 125.882 614.51 127.402 615.201 128.509C615.893 129.616 616.172 132.371 616.172 132.371C616.172 132.371 615.946 137.629 616.973 138.356C617.999 139.082 618.213 140.819 618.213 140.819C618.213 140.819 620.099 144.118 620.04 144.903C619.981 145.687 622.664 151 622.664 151C622.664 151 621.352 144.398 628.998 141.546C628.998 141.546 629.057 139.304 628.486 138.69C627.916 138.076 627.026 137.796 627.584 134.691C628.142 131.587 627.745 127.877 627.745 127.132C627.745 126.386 626.033 121.74 626.033 121.74L620.028 123.257Z" fill="black"/>
<path d="M618.093 118L616.081 118.615C616.081 118.615 615.161 121.899 615.161 123.653C615.161 125.408 613.88 125.58 613.88 125.58C613.88 125.58 612.475 127.119 613.216 128.239C613.956 129.359 614.252 132.147 614.252 132.147C614.252 132.147 614.009 137.468 615.108 138.204C616.207 138.939 616.453 140.697 616.453 140.697C616.453 140.697 618.469 144.036 618.406 144.83C618.342 145.624 621.218 151 621.218 151C621.218 151 619.81 144.319 627.998 141.432C627.998 141.432 628.058 139.164 627.447 138.542C626.836 137.921 625.883 137.638 626.481 134.495C627.079 131.353 626.654 127.599 626.654 126.845C626.654 126.091 624.821 121.388 624.821 121.388L618.093 118Z" fill="white"/>
<path opacity="0.1" d="M660 226.794C660 226.794 657.745 225.318 656.264 226.39C654.784 227.463 660 226.794 660 226.794Z" fill="black"/>
<path opacity="0.1" d="M636 222.018C636 222.018 634.003 221.65 632.325 224.236C630.648 226.821 636 222.018 636 222.018Z" fill="black"/>
<g opacity="0.1">
<path d="M632.962 75.5039C633.343 75.8237 633.832 76.053 634.086 76.4783C634.303 76.8434 634.309 77.2929 634.483 77.6851C634.656 78.0773 635.161 78.397 635.511 78.1497C635.591 75.4345 636.966 72.8853 638.653 70.7132C639.125 70.0577 639.698 69.4776 640.353 68.9936C641.016 68.5082 641.84 68.2812 642.666 68.3571C643.595 68.4808 644.412 69.0962 645.35 69.1716C646.588 69.2742 647.7 68.4385 648.929 68.3963C649.429 68.4011 649.921 68.51 650.374 68.7155C650.827 68.921 651.229 69.2185 651.555 69.5879C652.201 70.3307 652.681 71.197 652.963 72.1311C653.45 73.5486 653.715 75.0293 653.75 76.5236C653.768 77.3653 653.849 78.4151 654.648 78.7289C654.629 78.9518 654.629 79.1757 654.648 79.3986C653.843 79.0969 653.762 78.035 653.744 77.1903C653.709 75.696 653.444 74.2152 652.957 72.7978C652.675 71.8628 652.195 70.9956 651.548 70.2516C651.223 69.8832 650.82 69.5866 650.367 69.3816C649.914 69.1767 649.422 69.068 648.923 69.063C647.684 69.1052 646.57 69.9379 645.344 69.8383C644.415 69.7629 643.591 69.1445 642.659 69.0238C641.834 68.9479 641.009 69.1749 640.347 69.6603C639.692 70.1443 639.119 70.7244 638.647 71.3799C636.959 73.549 635.585 76.0922 635.504 78.8134C635.154 79.0638 634.65 78.7379 634.476 78.3518C634.303 77.9656 634.297 77.5131 634.08 77.1451C633.826 76.7197 633.337 76.4934 632.956 76.1736C631.99 75.3621 631.749 73.9955 631.786 72.7556C631.786 72.7164 631.786 72.6771 631.786 72.6409C631.845 73.7149 632.139 74.81 632.962 75.5039Z" fill="black"/>
<path d="M655.818 75.2897C656.53 74.5265 657.502 74.0166 658.156 73.2081C658.706 72.4924 659.02 71.6308 659.057 70.7374C659.154 71.8539 658.834 72.9671 658.156 73.8718C657.502 74.6834 656.53 75.1932 655.818 75.9565C655.134 76.703 654.724 77.6494 654.651 78.6475C654.603 78.04 654.682 77.4296 654.883 76.8526C655.083 76.2756 655.402 75.7441 655.818 75.2897V75.2897Z" fill="black"/>
<path d="M631.182 66.1819C631.365 66.921 631.69 67.624 631.839 68.3691C631.927 68.867 631.959 69.3728 631.935 69.8775C631.924 69.59 631.892 69.3037 631.839 69.0208C631.69 68.2726 631.365 67.5727 631.182 66.8336C631.076 66.4259 631.041 66.0035 631.08 65.5846C631.099 65.7858 631.133 65.9855 631.182 66.1819V66.1819Z" fill="black"/>
</g>
<g clip-path="url(#clip1_370_2)">
<path d="M521.723 76.9525C521.707 77.0335 521.688 77.1202 521.66 77.2126C520.759 78.0025 519.986 78.5601 519.713 78.1093C517.705 79.3271 518.659 80.3281 519.674 81.2986C520.242 81.8375 520.827 82.371 520.923 82.9253C521.155 84.2729 520.835 85.6602 520.342 86.9302C519.228 89.7985 517.207 92.2944 514.651 93.9558C516.153 91.9012 519.85 88.4704 517.729 87.0939C516.704 86.4283 509.061 86.6016 508.442 85.922C505.158 82.3223 513.717 77.8438 513.452 76.2078C513.445 76.1466 513.432 76.0911 513.416 76.0355C512.43 72.5467 515.372 72.1086 517.705 69.3555C517.761 69.2899 517.816 69.2273 517.875 69.1676C518.54 68.471 519.372 68.0804 520.293 67.8982C521.69 69.4469 521.642 72.1392 520.978 72.9375C521.651 74.2401 521.971 75.6188 521.723 76.9525L521.723 76.9525L521.723 76.9525Z" fill="#2F2E41"/>
<path d="M551.107 59.361C549.831 58.3747 547.56 59.228 546.034 61.2668C545.366 62.1593 544.951 63.131 544.803 64.0243L543.94 65.2081L531.609 80.7626C531.609 80.7626 518.17 90.8743 516.994 93.2269C515.817 95.5794 517.167 97.7279 517.167 97.7279L519.787 99.0492L538.12 82.9622L547.098 68.7154L548.366 66.7795C549.174 66.3962 549.985 65.731 550.653 64.8384C552.179 62.7996 552.382 60.3473 551.107 59.361L551.107 59.361Z" fill="url(#paint22_linear_370_2)"/>
<path d="M498.431 114.007L498.878 128.467L520.859 128.971L520.687 114.517L498.431 114.007Z" fill="#A0616A"/>
<path d="M491.125 154.932L495.388 187.435L489.971 211.652L495.748 211.785L504.91 186.086L505.304 156.461L491.125 154.932Z" fill="url(#paint23_linear_370_2)"/>
<path d="M523.096 155.665L511.879 218.628L506.841 218.512L507.905 185.885L508.861 156.543L523.096 155.665Z" fill="url(#paint24_linear_370_2)"/>
<path d="M520.945 126.565C512.658 129.565 504.954 129.506 498.526 122.739C498.932 115.773 497.263 110.757 495.206 106.105L495.383 91.9603L503.942 86.7379L517.454 87.0479L517.481 87.0648C519.07 88.059 521.02 88.2513 522.754 87.5476C522.908 87.4851 523.008 87.4562 523.026 87.4768C525.51 90.2526 523.902 95.9516 523.341 99.7881L522.106 108.228C520.99 111.524 520.518 123.058 520.945 126.565L520.945 126.565V126.565Z" fill="url(#paint25_linear_370_2)"/>
<path d="M498.526 122.739L496.585 129.92C496.585 129.92 487.353 145.061 491.434 160.809L505.58 165.935L506.887 151.982L508.194 165.995C508.194 165.995 519.331 164.61 523.269 160.787C523.269 160.787 526.698 140.395 522.741 132.176L520.965 125.662C520.965 125.662 508.603 128.841 498.526 122.739L498.526 122.739V122.739Z" fill="#2F2E41"/>
<path d="M518.396 92.7224C518.396 92.7224 520.451 97.8447 523.391 96.5886C529.566 95.4638 538.12 82.9622 538.12 82.9622L529.662 82.2102L518.806 90.6914C518.406 91.1398 518.185 92.157 518.396 92.7224V92.7224Z" fill="url(#paint26_linear_370_2)"/>
<path d="M524.039 220.329C524.193 220.606 524.257 221.49 524.249 221.808C524.227 222.785 523.43 223.559 522.468 223.537L506.589 223.172C505.934 223.157 505.415 222.605 505.43 221.938L505.445 221.266C505.445 221.266 504.706 219.228 506.381 216.776C506.381 216.776 508.346 218.771 511.419 215.787L512.343 214.176L518.644 219.09L522.188 219.616C522.963 219.731 523.655 219.635 524.039 220.329L524.039 220.329L524.039 220.329V220.329Z" fill="#2F2E41"/>
<path d="M505.009 220.48C505.043 220.796 504.759 221.635 504.63 221.924C504.231 222.814 503.198 223.207 502.324 222.802L487.872 216.113C487.275 215.837 487.012 215.121 487.284 214.514L487.559 213.902C487.559 213.902 487.669 211.732 490.157 210.147C490.157 210.147 491.19 212.769 495.17 211.254L496.642 210.142L500.531 217.182L503.584 219.084C504.252 219.5 504.925 219.688 505.009 220.48L505.009 220.48L505.009 220.48V220.48Z" fill="#2F2E41"/>
<path d="M492.798 144.988C494.4 145.029 495.752 142.986 495.816 140.426C495.844 139.305 495.621 138.271 495.227 137.459L495.246 135.986L496.296 116.044C496.296 116.044 501.378 99.8544 500.978 97.248C500.578 94.6415 498.246 93.7033 498.246 93.7033L495.36 94.191L489.747 118.135L490.664 135.023L490.75 137.346C490.316 138.137 490.041 139.158 490.013 140.279C489.948 142.839 491.195 144.948 492.798 144.988L492.798 144.988L492.798 144.988Z" fill="url(#paint27_linear_370_2)"/>
<path d="M500.745 90.5781C500.745 90.5781 495.128 90.1482 493.875 93.1299C492.622 96.1116 491.324 111.41 491.324 111.41L499.498 106.204C501.338 101.604 502.833 96.8603 501.624 90.9954L500.745 90.5781L500.745 90.5781L500.745 90.5781Z" fill="url(#paint28_linear_370_2)"/>
<path d="M521.724 76.9525C521.707 77.0335 521.688 77.1202 521.66 77.2125C521.585 77.4955 521.458 77.8267 521.295 78.192C520.774 79.3655 520.244 80.4022 519.675 81.2986C518.465 83.2087 517.089 84.4817 515.287 85.0709C513.85 85.5434 512.14 85.5797 510.026 85.1564L509.605 85.0712L506.683 84.487C506.092 82.3321 504.576 80.0223 503.573 75.6615C503.149 73.8271 504.051 73.409 504.259 71.5369C504.853 66.1957 507.5 64.6904 510.589 67.0857C511.96 65.7545 515.223 66.9247 517.875 69.1676C519.137 70.2309 520.259 71.5408 520.978 72.9375C521.651 74.24 521.971 75.6187 521.724 76.9525V76.9525Z" fill="#2F2E41"/>
<path d="M512.893 84.2359C517.123 84.3329 520.631 80.9262 520.73 76.6267C520.829 72.3272 517.48 68.7631 513.251 68.666C509.021 68.569 505.513 71.9757 505.414 76.2752C505.315 80.5747 508.664 84.1388 512.893 84.2359Z" fill="url(#paint29_linear_370_2)"/>
<path d="M504.112 63.4785C506.447 63.8753 508.021 66.121 507.629 68.4944C507.237 70.8678 505.027 72.4701 502.693 72.0733C500.358 71.6765 498.292 67.8982 500.585 67.2969C503.31 66.582 501.778 63.0817 504.112 63.4785L504.112 63.4785Z" fill="#2F2E41"/>
<path d="M520.978 72.9375C520.907 73.0259 520.826 73.0909 520.739 73.1296C519.865 73.5075 519.472 71.4531 519.059 71.6383C517.412 72.3792 515.696 74.6903 513.524 76.16C513.498 76.1769 513.475 76.1938 513.452 76.2078C511.716 77.365 510.92 77.2973 510.641 77.2561C509.966 77.1563 509.318 77.7484 508.615 78.3718C507.904 79.0026 507.575 81.111 508.256 81.5596C509.087 82.1045 509.278 83.1026 509.605 85.0712L509.604 85.0771C510.423 90.0148 512.062 88.9396 511.796 89.195C510.931 90.0236 509.707 88.72 507.505 89.3871C505.628 89.9542 505.678 91.1582 503.731 91.9154C501.664 92.7222 498.884 92.4231 498.317 91.2101C497.756 90.006 499.776 88.7768 499.274 86.8739C498.911 85.4941 497.674 85.4745 497.334 84.2144C496.905 82.6211 498.55 81.4182 499.733 79.3301C501.949 75.4208 499.56 73.6866 501.375 70.0703C503.258 66.319 503.248 63.7823 506.77 64.3832C507.67 64.5374 509.062 63.6748 509.633 64.591C509.792 64.8451 509.316 65.4869 511.078 66.1294C514.073 64.6929 519.956 67.5244 520.288 67.8894C520.291 67.8923 520.293 67.8953 520.293 67.8982C521.69 69.4469 521.642 72.1392 520.978 72.9375L520.978 72.9375Z" fill="#2F2E41"/>
<path d="M467.851 161.909L466.073 161.577L456 215.552L457.779 215.884L467.851 161.909Z" fill="#6C63FF"/>
<path d="M467.096 161.161C467.573 161.25 467.887 161.71 467.798 162.189L463.592 184.723C463.503 185.201 463.044 185.517 462.567 185.428C462.09 185.339 461.776 184.879 461.865 184.4L466.07 161.867C466.16 161.388 466.619 161.072 467.096 161.161L467.096 161.161V161.161ZM469.149 174.1C469.238 173.622 469.697 173.306 470.174 173.395L480.179 175.262L477.166 170.85C476.891 170.448 476.994 169.899 477.395 169.623C477.796 169.347 478.343 169.449 478.617 169.851L482.828 176.018C483.103 176.419 483.001 176.968 482.601 177.244L482.599 177.245L476.447 181.479C476.047 181.754 475.499 181.652 475.225 181.25C474.95 180.849 475.053 180.299 475.454 180.023L479.856 176.995L469.851 175.128C469.374 175.039 469.06 174.579 469.149 174.1L469.149 174.1L469.149 174.1Z" fill="#3F3D56"/>
</g>
<g clip-path="url(#clip2_370_2)">
<path d="M583.522 65.2152C573.224 62.6407 562.79 68.9017 560.215 79.1986C557.641 89.4956 563.902 99.9306 574.199 102.505C584.496 105.079 594.931 98.8185 597.505 88.5216C600.079 78.2246 593.819 67.7896 583.522 65.2152ZM571.728 93.9632L571.719 93.9477L571.705 93.9575L565.249 82.8345L570.731 79.4743L573.951 85.0232L590.361 74.8501L593.59 80.4104L571.728 93.9632Z" fill="#0CC681"/>
</g>
<path d="M551.496 176.168L549.719 175.834L539.57 229.795L541.348 230.129L551.496 176.168Z" fill="#6C63FF"/>
<path d="M551.394 176.439L547.158 198.966C547.068 199.445 546.608 199.76 546.131 199.671C545.655 199.581 545.341 199.12 545.431 198.642L549.668 176.114C549.758 175.635 550.217 175.32 550.694 175.41C551.171 175.5 551.484 175.96 551.394 176.439L551.394 176.439V176.439ZM543.07 187.432L533.067 185.551L536.075 189.967C536.349 190.37 536.246 190.919 535.844 191.194C535.443 191.47 534.896 191.367 534.622 190.964L530.42 184.791L530.418 184.79C530.145 184.387 530.249 183.839 530.65 183.565L536.808 179.34C537.209 179.065 537.757 179.168 538.031 179.57C538.304 179.972 538.201 180.522 537.8 180.797L533.393 183.818L543.396 185.7C543.873 185.789 544.186 186.25 544.096 186.728C544.006 187.207 543.547 187.522 543.07 187.433L543.07 187.432V187.432Z" fill="#3F3D56"/>
<path d="M441.925 100.934H452.1C452.357 100.934 452.565 100.724 452.565 100.467C452.565 100.209 452.357 100 452.1 100H441.925C441.669 100 441.46 100.209 441.46 100.467C441.46 100.724 441.669 100.934 441.925 100.934Z" fill="#F2F2F2"/>
<path d="M452.1 109.956H441.925C441.669 109.956 441.46 110.165 441.46 110.423C441.46 110.68 441.669 110.89 441.925 110.89H452.1C452.357 110.89 452.565 110.68 452.565 110.423C452.565 110.165 452.357 109.956 452.1 109.956Z" fill="#F2F2F2"/>
<path d="M447.045 123.683H436.871C436.614 123.683 436.405 123.892 436.405 124.149C436.405 124.407 436.614 124.616 436.871 124.616H447.045C447.302 124.616 447.51 124.407 447.51 124.149C447.51 123.892 447.302 123.683 447.045 123.683V123.683Z" fill="#F2F2F2"/>
<path d="M457.56 104.981H436.465C436.209 104.981 436 105.191 436 105.448C436 105.705 436.209 105.915 436.465 105.915H457.56C457.816 105.915 458.025 105.705 458.025 105.448C458.025 105.191 457.816 104.981 457.56 104.981Z" fill="#F2F2F2"/>
<path d="M691.925 91.9337H702.1C702.357 91.9337 702.565 91.7243 702.565 91.4668C702.565 91.2094 702.357 91 702.1 91H691.925C691.669 91 691.46 91.2094 691.46 91.4668C691.46 91.7243 691.669 91.9337 691.925 91.9337Z" fill="#F2F2F2"/>
<path d="M702.1 100.956H691.925C691.669 100.956 691.46 101.165 691.46 101.423C691.46 101.68 691.669 101.89 691.925 101.89H702.1C702.357 101.89 702.565 101.68 702.565 101.423C702.565 101.165 702.357 100.956 702.1 100.956Z" fill="#F2F2F2"/>
<path d="M697.045 114.683H686.871C686.614 114.683 686.405 114.892 686.405 115.149C686.405 115.407 686.614 115.616 686.871 115.616H697.045C697.302 115.616 697.51 115.407 697.51 115.149C697.51 114.892 697.302 114.683 697.045 114.683Z" fill="#F2F2F2"/>
<path d="M707.56 95.9812H686.465C686.209 95.9812 686 96.1906 686 96.448C686 96.7055 686.209 96.9149 686.465 96.9149H707.56C707.816 96.9149 708.025 96.7055 708.025 96.448C708.025 96.1906 707.816 95.9812 707.56 95.9812Z" fill="#F2F2F2"/>
<path d="M439.028 214.805C438.988 215.079 439.209 215.336 439.524 215.382L688.764 251.558C689.079 251.604 689.364 251.42 689.404 251.146C689.444 250.871 689.223 250.614 688.908 250.568L439.667 214.392C439.352 214.346 439.067 214.53 439.028 214.805Z" fill="#CCCCCC"/>
</g>
<defs>
<linearGradient id="paint0_linear_370_2" x1="440.881" y1="382.495" x2="336.427" y2="459.013" gradientUnits="userSpaceOnUse">
<stop stop-color="#6812C8"/>
<stop offset="1" stop-color="#3A82FF"/>
</linearGradient>
<linearGradient id="paint1_linear_370_2" x1="406.987" y1="342.285" x2="312.944" y2="381.424" gradientUnits="userSpaceOnUse">
<stop stop-color="#6812C8"/>
<stop offset="1" stop-color="#3A82FF"/>
</linearGradient>
<linearGradient id="paint2_linear_370_2" x1="793.301" y1="365.2" x2="697.828" y2="409.009" gradientUnits="userSpaceOnUse">
<stop stop-color="#6812C8"/>
<stop offset="1" stop-color="#3A82FF"/>
</linearGradient>
<linearGradient id="paint3_linear_370_2" x1="769.946" y1="385.225" x2="677.327" y2="482.673" gradientUnits="userSpaceOnUse">
<stop stop-color="#6812C8"/>
<stop offset="1" stop-color="#3A82FF"/>
</linearGradient>
<linearGradient id="paint4_linear_370_2" x1="448.898" y1="122.904" x2="448.898" y2="215.805" gradientUnits="userSpaceOnUse">
<stop stop-color="#ECC4D7"/>
<stop offset="0.369792" stop-color="#EFD4D1"/>
<stop offset="1" stop-color="#F2EAC9"/>
</linearGradient>
<linearGradient id="paint5_linear_370_2" x1="176.824" y1="59.4048" x2="292.832" y2="63.3868" gradientUnits="userSpaceOnUse">
<stop stop-color="#6812C8"/>
<stop offset="1" stop-color="#3A82FF"/>
</linearGradient>
<linearGradient id="paint6_linear_370_2" x1="470.244" y1="323.387" x2="470.244" y2="416.288" gradientUnits="userSpaceOnUse">
<stop stop-color="#ECC4D7"/>
<stop offset="0.369792" stop-color="#EFD4D1"/>
<stop offset="1" stop-color="#F2EAC9"/>
</linearGradient>
<linearGradient id="paint7_linear_370_2" x1="470.244" y1="323.387" x2="470.244" y2="416.288" gradientUnits="userSpaceOnUse">
<stop stop-color="#ECC4D7"/>
<stop offset="0.369792" stop-color="#EFD4D1"/>
<stop offset="1" stop-color="#F2EAC9"/>
</linearGradient>
<linearGradient id="paint8_linear_370_2" x1="176.824" y1="59.4049" x2="292.832" y2="63.3869" gradientUnits="userSpaceOnUse">
<stop stop-color="#6812C8"/>
<stop offset="1" stop-color="#3A82FF"/>
</linearGradient>
<linearGradient id="paint9_linear_370_2" x1="448.897" y1="122.904" x2="448.897" y2="215.805" gradientUnits="userSpaceOnUse">
<stop stop-color="#ECC4D7"/>
<stop offset="0.369792" stop-color="#EFD4D1"/>
<stop offset="1" stop-color="#F2EAC9"/>
</linearGradient>
<linearGradient id="paint10_linear_370_2" x1="1427.73" y1="549.3" x2="1427.73" y2="456.399" gradientUnits="userSpaceOnUse">
<stop stop-color="#ECC4D7"/>
<stop offset="0.369792" stop-color="#EFD4D1"/>
<stop offset="1" stop-color="#F2EAC9"/>
</linearGradient>
<linearGradient id="paint11_linear_370_2" x1="470.244" y1="323.387" x2="470.244" y2="416.288" gradientUnits="userSpaceOnUse">
<stop stop-color="#ECC4D7"/>
<stop offset="0.369792" stop-color="#EFD4D1"/>
<stop offset="1" stop-color="#F2EAC9"/>
</linearGradient>
<linearGradient id="paint12_linear_370_2" x1="470.243" y1="323.387" x2="470.243" y2="416.288" gradientUnits="userSpaceOnUse">
<stop stop-color="#ECC4D7"/>
<stop offset="0.369792" stop-color="#EFD4D1"/>
<stop offset="1" stop-color="#F2EAC9"/>
</linearGradient>
<linearGradient id="paint13_linear_370_2" x1="974.884" y1="228.506" x2="867.308" y2="288.017" gradientUnits="userSpaceOnUse">
<stop stop-color="#6812C8"/>
<stop offset="1" stop-color="#3A82FF"/>
</linearGradient>
<linearGradient id="paint14_linear_370_2" x1="448.898" y1="122.904" x2="448.898" y2="215.805" gradientUnits="userSpaceOnUse">
<stop stop-color="#ECC4D7"/>
<stop offset="0.369792" stop-color="#EFD4D1"/>
<stop offset="1" stop-color="#F2EAC9"/>
</linearGradient>
<linearGradient id="paint15_linear_370_2" x1="448.897" y1="122.904" x2="448.897" y2="215.805" gradientUnits="userSpaceOnUse">
<stop stop-color="#ECC4D7"/>
<stop offset="0.369792" stop-color="#EFD4D1"/>
<stop offset="1" stop-color="#F2EAC9"/>
</linearGradient>
<linearGradient id="paint16_linear_370_2" x1="176.824" y1="59.4049" x2="292.832" y2="63.3869" gradientUnits="userSpaceOnUse">
<stop stop-color="#6812C8"/>
<stop offset="1" stop-color="#3A82FF"/>
</linearGradient>
<linearGradient id="paint17_linear_370_2" x1="646.503" y1="244.006" x2="646.503" y2="58.0003" gradientUnits="userSpaceOnUse">
<stop stop-color="#808080" stop-opacity="0.25"/>
<stop offset="0.54" stop-color="#808080" stop-opacity="0.12"/>
<stop offset="1" stop-color="#808080" stop-opacity="0.1"/>
</linearGradient>
<linearGradient id="paint18_linear_370_2" x1="816.422" y1="60.5062" x2="816.422" y2="74.3145" gradientUnits="userSpaceOnUse">
<stop stop-color="#ECC4D7"/>
<stop offset="0.369792" stop-color="#EFD4D1"/>
<stop offset="1" stop-color="#F2EAC9"/>
</linearGradient>
<linearGradient id="paint19_linear_370_2" x1="921.604" y1="42.4282" x2="921.604" y2="58.4168" gradientUnits="userSpaceOnUse">
<stop stop-color="#ECC4D7"/>
<stop offset="0.369792" stop-color="#EFD4D1"/>
<stop offset="1" stop-color="#F2EAC9"/>
</linearGradient>
<linearGradient id="paint20_linear_370_2" x1="825.422" y1="137.844" x2="825.422" y2="142.205" gradientUnits="userSpaceOnUse">
<stop stop-color="#ECC4D7"/>
<stop offset="0.369792" stop-color="#EFD4D1"/>
<stop offset="1" stop-color="#F2EAC9"/>
</linearGradient>
<linearGradient id="paint21_linear_370_2" x1="677.591" y1="131.74" x2="677.591" y2="139.008" gradientUnits="userSpaceOnUse">
<stop stop-color="#ECC4D7"/>
<stop offset="0.369792" stop-color="#EFD4D1"/>
<stop offset="1" stop-color="#F2EAC9"/>
</linearGradient>
<linearGradient id="paint22_linear_370_2" x1="80.2178" y1="6.32574" x2="79.5379" y2="35.9533" gradientUnits="userSpaceOnUse">
<stop stop-color="#ECC4D7"/>
<stop offset="0.369792" stop-color="#EFD4D1"/>
<stop offset="1" stop-color="#F2EAC9"/>
</linearGradient>
<linearGradient id="paint23_linear_370_2" x1="309.16" y1="92.5343" x2="308.214" y2="133.754" gradientUnits="userSpaceOnUse">
<stop stop-color="#ECC4D7"/>
<stop offset="0.369792" stop-color="#EFD4D1"/>
<stop offset="1" stop-color="#F2EAC9"/>
</linearGradient>
<linearGradient id="paint24_linear_370_2" x1="322.531" y1="86.2003" x2="321.477" y2="132.121" gradientUnits="userSpaceOnUse">
<stop stop-color="#ECC4D7"/>
<stop offset="0.369792" stop-color="#EFD4D1"/>
<stop offset="1" stop-color="#F2EAC9"/>
</linearGradient>
<linearGradient id="paint25_linear_370_2" x1="495.031" y1="107.313" x2="528.696" y2="109.074" gradientUnits="userSpaceOnUse">
<stop stop-color="#6812C8"/>
<stop offset="0.243366" stop-color="#5346E1"/>
<stop offset="1" stop-color="#3A82FF"/>
</linearGradient>
<linearGradient id="paint26_linear_370_2" x1="518.38" y1="89.3226" x2="541.066" y2="91.1122" gradientUnits="userSpaceOnUse">
<stop stop-color="#6812C8"/>
<stop offset="0.243366" stop-color="#5346E1"/>
<stop offset="1" stop-color="#3A82FF"/>
</linearGradient>
<linearGradient id="paint27_linear_370_2" x1="355.207" y1="37.675" x2="354.35" y2="75.0177" gradientUnits="userSpaceOnUse">
<stop stop-color="#ECC4D7"/>
<stop offset="0.369792" stop-color="#EFD4D1"/>
<stop offset="1" stop-color="#F2EAC9"/>
</linearGradient>
<linearGradient id="paint28_linear_370_2" x1="491.565" y1="100.887" x2="503.614" y2="101.413" gradientUnits="userSpaceOnUse">
<stop stop-color="#6812C8"/>
<stop offset="0.243366" stop-color="#5346E1"/>
<stop offset="1" stop-color="#3A82FF"/>
</linearGradient>
<linearGradient id="paint29_linear_370_2" x1="312.248" y1="48.0708" x2="311.988" y2="59.3862" gradientUnits="userSpaceOnUse">
<stop stop-color="#ECC4D7"/>
<stop offset="0.369792" stop-color="#EFD4D1"/>
<stop offset="1" stop-color="#F2EAC9"/>
</linearGradient>
<clipPath id="clip0_370_2">
<rect width="1157.31" height="499.034" fill="white"/>
</clipPath>
<clipPath id="clip1_370_2">
<rect width="156" height="164" fill="white" transform="translate(427 59)"/>
</clipPath>
<clipPath id="clip2_370_2">
<rect width="41" height="41" fill="white" transform="translate(563.945 59) rotate(14.037)"/>
</clipPath>
</defs>
</svg>
