<svg width="512" height="512" viewBox="0 0 512 512" fill="none" xmlns="http://www.w3.org/2000/svg">
<g clip-path="url(#clip0_333_118)">
<circle cx="256" cy="256" r="251" fill="#040925" stroke="url(#paint0_linear_333_118)" stroke-width="10"/>
<g clip-path="url(#clip1_333_118)">
<path d="M434.443 251.937C434.161 235.933 428.277 222.063 416.262 211.454C410.786 206.457 405.902 200.849 401.706 194.739C400.294 192.798 398.917 190.834 397.494 188.915C381.04 166.67 359.099 155.136 331.286 155.057C306.182 154.966 281.09 155.057 255.987 155.057V155.136C229.562 155.136 203.138 154.899 176.725 155.215C157.911 155.44 141.458 162.426 127.139 174.57C117.563 182.685 111.25 193.418 103.775 203.237C102.453 204.938 100.937 206.48 99.2577 207.831C85.1646 219.207 77.5196 233.868 77.1356 251.982C76.842 266.857 76.955 281.744 77.1356 296.619C77.4179 324.439 97.2702 349.314 124.666 354.494C135.608 356.571 147.116 356.131 158.352 356.052C176.42 355.939 193.02 350.409 208.265 340.759C222.256 331.877 232.566 319.586 241.34 305.772C248.455 294.486 262.887 294.666 270.306 305.772C271.706 307.871 273.073 309.982 274.462 312.081C288.803 333.6 308.524 347.486 333.623 353.738C347.332 357.124 361.312 356.402 375.202 356.199C407.567 355.725 434.048 329.112 434.443 296.664C434.646 281.687 434.703 266.812 434.443 251.937ZM164.54 168.284C169.936 167.159 175.436 166.607 180.948 166.636C230.872 166.523 280.808 166.636 330.744 166.557C353.592 166.557 372.123 175.462 386.337 193.272C387.15 194.287 387.839 195.382 388.595 196.42H122.983C133.293 181.669 147.048 172.099 164.54 168.284ZM422.981 294.915C422.879 322.995 401.344 344.574 373.203 344.574C361.109 344.574 348.97 345.364 337 342.497C315.792 337.418 298.82 326.155 286.183 308.481C283.868 305.275 281.779 301.901 279.566 298.628C276.997 294.684 273.483 291.445 269.342 289.206C265.202 286.966 260.566 285.797 255.858 285.805C251.15 285.813 246.519 286.997 242.386 289.251C238.252 291.504 234.749 294.755 232.194 298.707C224.978 309.7 217.31 320.151 206.48 327.983C192.06 338.378 175.991 344.201 158.239 344.484C148.663 344.642 138.94 345.003 129.499 343.693C106.711 340.522 89.0944 319.993 88.7556 296.98C88.5373 281.864 88.5373 266.752 88.7556 251.644C89.0605 228.552 107.806 209.016 130.911 207.628C136.647 207.278 142.429 207.424 148.2 207.424H255.885C295.981 207.424 336.081 207.424 376.185 207.424C398.973 207.424 417.086 221.589 421.919 243.134C422.633 246.534 422.992 249.998 422.992 253.472C423.06 267.32 423.06 281.146 422.981 294.915Z" fill="white"/>
<path d="M384.304 281.823H367.478V299.203C367.475 300.87 366.811 302.467 365.633 303.645C364.454 304.823 362.855 305.487 361.188 305.49H352.154C350.487 305.487 348.889 304.823 347.71 303.645C346.531 302.467 345.867 300.87 345.864 299.203V281.823H329.004C327.333 281.823 325.73 281.159 324.549 279.978C323.367 278.797 322.703 277.195 322.703 275.525V267.749C322.703 266.079 323.367 264.477 324.549 263.296C325.73 262.115 327.333 261.451 329.004 261.451H345.887V243.901C345.887 242.219 346.555 240.606 347.745 239.416C348.936 238.227 350.55 237.558 352.233 237.558H361.132C362.815 237.558 364.429 238.227 365.619 239.416C366.809 240.606 367.478 242.219 367.478 243.901V261.406H384.304C385.99 261.406 387.607 262.075 388.8 263.267C389.992 264.459 390.662 266.075 390.662 267.76V275.502C390.653 277.182 389.979 278.789 388.788 279.974C387.596 281.158 385.984 281.823 384.304 281.823Z" fill="white"/>
<path d="M120.065 202.026C120.814 175.93 152.207 165.057 167.81 162.882C287.642 154.494 270.791 172.575 308.238 162.882C345.686 153.19 378.14 176.862 389.687 189.91V202.026H120.065Z" fill="url(#paint1_linear_333_118)" fill-opacity="0.49"/>
<path d="M202.327 340.463C207.004 340.463 210.795 336.689 210.795 332.033C210.795 327.377 207.004 323.603 202.327 323.603C197.65 323.603 193.859 327.377 193.859 332.033C193.859 336.689 197.65 340.463 202.327 340.463Z" fill="white"/>
<path d="M279.444 214.43C283.186 214.43 286.219 211.411 286.219 207.686C286.219 203.962 283.186 200.942 279.444 200.942C275.703 200.942 272.67 203.962 272.67 207.686C272.67 211.411 275.703 214.43 279.444 214.43Z" fill="white"/>
<path d="M165.067 274.708C168.809 274.708 171.842 271.688 171.842 267.964C171.842 264.239 168.809 261.219 165.067 261.219C161.326 261.219 158.293 264.239 158.293 267.964C158.293 271.688 161.326 274.708 165.067 274.708Z" fill="white"/>
<path d="M119.34 274.708C122.146 274.708 124.421 272.443 124.421 269.65C124.421 266.856 122.146 264.592 119.34 264.592C116.534 264.592 114.259 266.856 114.259 269.65C114.259 272.443 116.534 274.708 119.34 274.708Z" fill="white"/>
<path d="M89.702 296.626C92.9758 296.626 95.6297 293.984 95.6297 290.725C95.6297 287.465 92.9758 284.823 89.702 284.823C86.4283 284.823 83.7744 287.465 83.7744 290.725C83.7744 293.984 86.4283 296.626 89.702 296.626Z" fill="white"/>
<path d="M280.976 208.293L221.803 228.342L216.859 264.592L231.118 308.428L201.48 331.19" stroke="white" stroke-width="5.01888"/>
<path d="M165.204 266.277L173.535 234.243L192.301 210.639" stroke="white" stroke-width="5.01888" stroke-miterlimit="10"/>
<path d="M90.8777 291.619L119.34 297.469L147.421 294.097L165.067 268.807L176.923 303.37L200.633 332.875" stroke="white" stroke-width="5.01888" stroke-miterlimit="10"/>
<path d="M193.859 215.697C197.6 215.697 200.633 212.677 200.633 208.953C200.633 205.228 197.6 202.208 193.859 202.208C190.117 202.208 187.084 205.228 187.084 208.953C187.084 212.677 190.117 215.697 193.859 215.697Z" fill="white"/>
<path d="M100.71 227.499C104.452 227.499 107.485 224.48 107.485 220.755C107.485 217.031 104.452 214.011 100.71 214.011C96.9688 214.011 93.9358 217.031 93.9358 220.755C93.9358 224.48 96.9688 227.499 100.71 227.499Z" fill="white"/>
<path d="M217.706 271.336C221.447 271.336 224.48 268.316 224.48 264.592C224.48 260.867 221.447 257.848 217.706 257.848C213.964 257.848 210.931 260.867 210.931 264.592C210.931 268.316 213.964 271.336 217.706 271.336Z" fill="white"/>
<path d="M154.906 321.917C157.712 321.917 159.987 319.652 159.987 316.859C159.987 314.065 157.712 311.801 154.906 311.801C152.1 311.801 149.825 314.065 149.825 316.859C149.825 319.652 152.1 321.917 154.906 321.917Z" fill="white"/>
<path d="M164.357 267.12L130.348 251.103L97.323 219.069" stroke="white" stroke-width="5.01888"/>
<path d="M173.535 234.243L192.165 261.219L217.706 264.591" stroke="white" stroke-width="5.01888"/>
<path d="M148.268 294.097L155.752 316.859L130.485 350.579" stroke="white" stroke-width="5.01888"/>
<path d="M130.349 250.26L119.34 268.807V294.94" stroke="white" stroke-width="5.01888"/>
<path d="M165.067 274.708C168.809 274.708 171.842 271.688 171.842 267.964C171.842 264.239 168.809 261.219 165.067 261.219C161.326 261.219 158.293 264.239 158.293 267.964C158.293 271.688 161.326 274.708 165.067 274.708Z" fill="white"/>
<path d="M119.34 274.708C122.146 274.708 124.421 272.443 124.421 269.65C124.421 266.856 122.146 264.592 119.34 264.592C116.534 264.592 114.259 266.856 114.259 269.65C114.259 272.443 116.534 274.708 119.34 274.708Z" fill="white"/>
<path d="M89.702 296.626C92.9758 296.626 95.6297 293.984 95.6297 290.725C95.6297 287.465 92.9758 284.823 89.702 284.823C86.4283 284.823 83.7744 287.465 83.7744 290.725C83.7744 293.984 86.4283 296.626 89.702 296.626Z" fill="white"/>
<path d="M280.976 208.293L221.803 228.342L216.859 264.592L231.118 308.428L201.48 331.19" stroke="white" stroke-width="5.01888"/>
<path d="M165.204 266.277L173.535 234.243L192.301 210.639" stroke="white" stroke-width="5.01888" stroke-miterlimit="10"/>
<path d="M90.8777 291.619L119.34 297.469L147.421 294.097L165.067 268.807L176.923 303.37L200.633 332.875" stroke="white" stroke-width="5.01888" stroke-miterlimit="10"/>
<path d="M193.859 215.697C197.6 215.697 200.633 212.677 200.633 208.953C200.633 205.228 197.6 202.208 193.859 202.208C190.117 202.208 187.084 205.228 187.084 208.953C187.084 212.677 190.117 215.697 193.859 215.697Z" fill="white"/>
<path d="M100.71 227.499C104.452 227.499 107.485 224.48 107.485 220.755C107.485 217.031 104.452 214.011 100.71 214.011C96.9688 214.011 93.9358 217.031 93.9358 220.755C93.9358 224.48 96.9688 227.499 100.71 227.499Z" fill="white"/>
<path d="M217.706 271.336C221.447 271.336 224.48 268.316 224.48 264.592C224.48 260.867 221.447 257.848 217.706 257.848C213.964 257.848 210.931 260.867 210.931 264.592C210.931 268.316 213.964 271.336 217.706 271.336Z" fill="white"/>
<path d="M154.906 321.917C157.712 321.917 159.987 319.652 159.987 316.859C159.987 314.065 157.712 311.801 154.906 311.801C152.1 311.801 149.825 314.065 149.825 316.859C149.825 319.652 152.1 321.917 154.906 321.917Z" fill="white"/>
<path d="M164.357 267.12L130.348 251.103L97.323 219.069" stroke="white" stroke-width="5.01888"/>
<path d="M173.535 234.243L192.165 261.219L217.706 264.591" stroke="white" stroke-width="5.01888"/>
<path d="M148.268 294.097L155.752 316.859L130.485 350.579" stroke="white" stroke-width="5.01888"/>
<path d="M130.349 250.26L119.34 268.807V294.94" stroke="white" stroke-width="5.01888"/>
</g>
</g>
<defs>
<linearGradient id="paint0_linear_333_118" x1="-1.81246e-07" y1="256" x2="594.667" y2="280.983" gradientUnits="userSpaceOnUse">
<stop stop-color="#6812C8"/>
<stop offset="1" stop-color="#3A82FF"/>
</linearGradient>
<linearGradient id="paint1_linear_333_118" x1="138.788" y1="181.522" x2="372.835" y2="181.522" gradientUnits="userSpaceOnUse">
<stop stop-color="white" stop-opacity="0.64"/>
<stop offset="1" stop-color="white" stop-opacity="0"/>
</linearGradient>
<clipPath id="clip0_333_118">
<rect width="512" height="512" fill="white"/>
</clipPath>
<clipPath id="clip1_333_118">
<rect width="357.624" height="201.311" fill="white" transform="translate(77 155)"/>
</clipPath>
</defs>
</svg>
